<svg id="svg" version="1.1" width="1000" height="666" xmlns="http://www.w3.org/2000/svg" xmlns:xlink="http://www.w3.org/1999/xlink" style="display: block;"><g id="svgg"><path id="path0" d="" stroke="none" fill="#dbdbdb" fill-rule="evenodd"></path><path id="path1" d="" stroke="none" fill="#eaeaea" fill-rule="evenodd"></path><path id="path2" d="" stroke="none" fill="#efefef" fill-rule="evenodd"></path><path id="path3" d="M321.400 173.182 C 318.895 174.218,317.809 177.316,319.181 179.510 C 321.122 182.613,325.804 182.170,327.221 178.750 C 328.571 175.491,324.721 171.808,321.400 173.182 M325.284 174.545 C 327.239 176.031,326.922 179.103,324.695 180.254 C 321.020 182.155,317.692 177.907,320.499 174.900 C 321.462 173.869,324.133 173.671,325.284 174.545 M321.600 177.400 C 321.600 178.867,321.774 180.000,322.000 180.000 C 322.220 180.000,322.400 179.460,322.400 178.800 C 322.400 178.140,322.596 177.600,322.835 177.600 C 323.074 177.600,323.473 178.140,323.722 178.800 C 323.972 179.460,324.316 180.000,324.488 180.000 C 324.871 180.000,324.848 179.266,324.431 178.200 C 324.256 177.752,324.302 177.106,324.535 176.732 C 325.121 175.793,324.204 174.800,322.751 174.800 C 321.601 174.800,321.600 174.802,321.600 177.400 M323.828 176.045 C 323.979 176.289,323.854 176.647,323.551 176.839 C 322.695 177.381,322.400 177.268,322.400 176.400 C 322.400 175.546,323.370 175.305,323.828 176.045 " stroke="none" fill="#f5f5f5" fill-rule="evenodd"></path><path id="path4" d="M192.800 40.400 C 192.032 41.168,192.000 41.733,192.000 54.711 C 192.000 71.248,191.560 70.000,197.394 70.000 C 203.592 70.000,203.200 71.018,203.200 54.920 C 203.200 42.094,203.077 40.732,201.840 39.906 C 200.756 39.182,193.629 39.571,192.800 40.400 M173.499 59.594 L 172.400 60.458 172.400 74.167 C 172.400 90.313,172.093 89.288,177.002 89.536 C 181.057 89.741,182.664 89.155,183.217 87.271 C 184.017 84.548,183.555 60.583,182.686 59.714 C 181.502 58.529,174.961 58.444,173.499 59.594 M212.800 59.317 C 211.478 59.984,211.038 67.916,212.248 69.253 C 213.351 70.472,220.903 70.359,221.777 69.111 C 222.437 68.169,222.689 61.051,222.094 60.160 C 221.180 58.791,214.958 58.227,212.800 59.317 M153.782 79.382 C 152.715 80.448,152.311 86.339,153.192 87.984 C 154.032 89.555,159.431 90.183,162.189 89.030 C 164.399 88.107,164.880 80.804,162.840 79.152 C 161.297 77.903,155.104 78.060,153.782 79.382 M192.809 79.191 C 192.107 79.893,192.000 80.518,192.000 83.938 C 192.000 89.985,189.312 89.400,217.077 89.400 L 240.471 89.400 241.270 88.413 C 242.228 87.229,242.236 80.074,241.280 79.119 C 240.263 78.104,193.828 78.172,192.809 79.191 M134.440 98.356 C 133.130 99.363,132.937 106.604,134.183 107.982 C 135.280 109.193,142.393 109.207,143.600 108.000 C 144.410 107.190,144.771 101.623,144.161 99.349 C 143.665 97.502,136.502 96.771,134.440 98.356 M154.526 97.984 C 152.832 98.703,152.764 99.349,152.885 113.635 C 153.021 129.750,152.521 128.407,158.376 128.387 C 164.295 128.368,163.800 129.753,163.800 113.197 C 163.800 96.607,164.194 97.849,158.886 97.706 C 156.969 97.655,155.007 97.779,154.526 97.984 M173.382 98.582 C 172.477 99.487,172.400 99.861,172.400 103.382 C 172.400 109.232,171.174 108.800,187.771 108.800 L 201.542 108.800 202.371 107.746 C 203.320 106.540,203.566 101.240,202.756 99.463 C 201.953 97.701,201.116 97.600,187.363 97.600 L 174.364 97.600 173.382 98.582 M212.700 98.393 L 211.600 99.258 211.600 113.029 C 211.600 129.614,211.176 128.400,216.971 128.400 C 222.790 128.400,222.456 129.377,222.315 112.741 C 222.178 96.698,222.570 97.870,217.286 97.664 C 214.198 97.543,213.674 97.627,212.700 98.393 M231.745 98.619 C 230.767 99.597,230.732 99.797,230.863 103.652 C 231.054 109.236,229.750 108.800,246.254 108.800 L 259.955 108.800 260.577 107.911 C 261.037 107.255,261.200 106.006,261.200 103.140 C 261.200 97.247,262.173 97.600,245.928 97.600 L 232.764 97.600 231.745 98.619 M173.275 118.016 C 172.408 118.824,172.400 118.951,172.400 132.600 C 172.400 149.214,171.957 148.000,178.013 148.000 C 183.824 148.000,183.400 149.219,183.400 132.523 L 183.400 118.729 182.456 117.965 C 181.028 116.809,174.532 116.845,173.275 118.016 M192.800 118.000 C 192.017 118.783,192.000 119.333,192.000 143.511 C 192.000 172.877,191.414 170.000,197.394 170.000 C 203.809 170.000,203.200 172.776,203.200 143.528 L 203.200 119.164 202.218 118.182 C 200.854 116.818,194.112 116.688,192.800 118.000 M231.745 118.219 C 230.384 119.579,230.408 126.833,231.776 127.833 C 232.857 128.622,239.940 128.624,241.019 127.836 C 242.682 126.620,242.325 118.459,240.575 117.661 C 238.501 116.717,232.893 117.071,231.745 118.219 M212.144 137.820 C 210.676 139.288,210.819 146.001,212.344 147.236 C 214.341 148.852,221.660 148.117,222.161 146.251 C 222.771 143.977,222.410 138.410,221.600 137.600 C 220.264 136.264,213.544 136.420,212.144 137.820 M263.000 183.540 C 258.537 184.991,259.249 188.971,264.200 190.252 C 266.926 190.958,267.600 191.389,267.600 192.426 C 267.600 194.859,262.750 194.965,261.653 192.556 C 260.994 191.109,259.420 191.229,259.789 192.698 C 260.846 196.910,268.326 197.138,269.367 192.990 C 269.937 190.719,268.716 189.547,264.640 188.446 C 262.950 187.990,262.167 187.573,262.072 187.076 C 261.681 185.050,265.806 184.322,267.037 186.200 C 267.720 187.242,269.200 187.577,269.200 186.689 C 269.200 184.563,265.552 182.710,263.000 183.540 M80.800 189.600 L 80.800 195.600 84.418 195.600 C 89.556 195.600,91.573 193.308,89.149 190.225 C 88.516 189.421,88.413 189.027,88.749 188.691 C 91.033 186.407,88.385 183.600,83.946 183.600 L 80.800 183.600 80.800 189.600 M125.200 189.600 C 125.200 195.333,125.236 195.600,126.000 195.600 C 126.724 195.600,126.800 195.333,126.800 192.800 L 126.800 190.000 129.800 190.000 L 132.800 190.000 132.800 192.800 C 132.800 195.520,132.829 195.600,133.800 195.600 L 134.800 195.600 134.800 189.600 L 134.800 183.600 133.800 183.600 C 132.844 183.600,132.800 183.707,132.800 186.000 L 132.800 188.400 129.800 188.400 L 126.800 188.400 126.800 186.000 C 126.800 183.867,126.711 183.600,126.000 183.600 C 125.236 183.600,125.200 183.867,125.200 189.600 M170.059 188.633 L 170.200 193.666 171.556 194.877 C 173.270 196.409,176.975 196.402,178.516 194.863 C 179.829 193.551,180.139 183.600,178.866 183.600 C 178.123 183.600,178.060 183.917,177.934 188.236 C 177.785 193.391,177.265 194.400,174.756 194.400 C 172.468 194.400,172.000 193.347,172.000 188.200 L 172.000 183.600 170.959 183.600 L 169.918 183.600 170.059 188.633 M215.200 189.600 C 215.200 195.333,215.236 195.600,216.000 195.600 C 216.711 195.600,216.800 195.333,216.800 193.200 L 216.800 190.800 218.938 190.800 C 221.417 190.800,222.058 191.312,222.824 193.900 C 223.230 195.273,223.507 195.600,224.263 195.600 C 225.458 195.600,225.432 195.112,224.089 192.362 L 222.996 190.123 223.898 189.443 C 224.593 188.919,224.800 188.361,224.800 187.010 C 224.800 184.256,223.673 183.600,218.946 183.600 L 215.200 183.600 215.200 189.600 M303.600 184.400 C 303.600 185.093,303.867 185.200,305.600 185.200 L 307.600 185.200 307.600 190.400 C 307.600 195.333,307.641 195.600,308.400 195.600 C 309.159 195.600,309.200 195.333,309.200 190.400 L 309.200 185.200 311.200 185.200 C 312.933 185.200,313.200 185.093,313.200 184.400 C 313.200 183.644,312.933 183.600,308.400 183.600 C 303.867 183.600,303.600 183.644,303.600 184.400 M86.826 185.614 C 88.967 186.760,87.519 188.400,84.367 188.400 L 82.400 188.400 82.400 186.800 L 82.400 185.200 84.226 185.200 C 85.231 185.200,86.401 185.386,86.826 185.614 M222.571 185.829 C 224.291 187.548,223.005 188.800,219.520 188.800 L 216.800 188.800 216.800 187.000 L 216.800 185.200 219.371 185.200 C 221.176 185.200,222.130 185.388,222.571 185.829 M87.367 190.643 C 89.623 191.509,87.659 194.000,84.720 194.000 L 82.400 194.000 82.400 192.200 L 82.400 190.400 84.567 190.400 C 85.759 190.400,87.019 190.509,87.367 190.643 " stroke="none" fill="#ffffff" fill-rule="evenodd"></path></g></svg>