<?xml version="1.0" standalone="no"?>
<!DOCTYPE svg PUBLIC "-//W3C//DTD SVG 20010904//EN"
 "http://www.w3.org/TR/2001/REC-SVG-20010904/DTD/svg10.dtd">
<svg version="1.0" xmlns="http://www.w3.org/2000/svg"
 width="900.000000pt" height="753.000000pt" viewBox="0 0 900.000000 753.000000"
 preserveAspectRatio="xMidYMid meet">

<g transform="translate(0.000000,753.000000) scale(0.100000,-0.100000)"
fill="#000000" stroke="none">
<path d="M189 7520 c-25 -4 -59 -15 -76 -23 -44 -23 -91 -81 -100 -124 -4 -21
-8 -1206 -8 -2633 l0 -2595 1435 0 c789 0 2813 1 4498 3 l3062 2 -2 2608 c-3
2383 -4 2610 -19 2642 -21 44 -63 84 -114 107 -38 17 -220 18 -4335 19 -2362
1 -4316 -2 -4341 -6z m2118 -330 c7 -26 27 -25 65 2 38 26 62 15 66 -31 2 -23
-1 -31 -12 -31 -9 0 -16 5 -16 10 0 6 -6 5 -14 -2 -22 -21 -9 -27 34 -16 33 9
40 15 40 34 0 13 -4 24 -9 24 -5 0 -11 7 -15 15 -4 12 3 15 34 15 36 0 40 -3
40 -25 0 -16 6 -25 16 -25 12 0 15 7 12 25 -4 19 -1 25 13 25 12 0 16 -5 13
-15 -4 -8 -1 -15 5 -15 7 0 14 6 17 14 5 12 35 14 159 14 94 -1 153 -5 152
-11 -1 -5 4 -12 11 -14 6 -3 12 2 12 11 0 24 80 23 80 -1 0 -10 8 -27 16 -38
15 -19 15 -18 12 15 l-3 35 104 3 c87 2 102 0 92 -11 -9 -12 -7 -13 14 -9 14
2 25 8 25 13 0 5 60 9 133 9 118 -1 130 -2 113 -15 -14 -10 -17 -18 -10 -25 7
-7 19 -2 38 15 26 24 53 35 41 16 -10 -17 13 -22 28 -7 11 12 45 15 151 14 75
0 136 -3 136 -7 0 -4 -5 -12 -10 -17 -7 -7 -7 -19 -1 -35 8 -21 10 -22 16 -7
4 10 11 15 16 12 5 -3 9 -1 9 5 0 5 -5 11 -12 13 -6 2 -9 12 -5 21 5 14 26 16
146 16 135 0 141 -1 141 -20 0 -14 5 -19 18 -17 10 2 16 11 14 23 -2 15 0 17
6 7 8 -11 13 -12 30 -1 18 11 24 10 42 -6 18 -16 20 -16 14 -2 -5 15 1 17 50
17 43 0 56 -3 56 -15 0 -8 5 -15 10 -15 6 0 10 7 10 15 0 20 36 19 44 -1 3 -9
6 -27 6 -40 0 -20 5 -24 33 -24 17 0 38 -4 45 -9 19 -11 62 10 62 30 0 18 20
29 52 29 11 0 33 8 49 17 15 9 32 13 36 9 4 -5 2 -11 -5 -13 -7 -3 -17 -15
-22 -28 -5 -14 -20 -24 -39 -28 -43 -9 -39 -24 9 -32 48 -8 60 -2 60 34 0 31
16 52 36 44 8 -3 14 1 14 11 0 18 25 22 35 6 8 -13 72 -13 80 0 4 6 12 4 21
-5 20 -19 44 -19 44 0 0 12 16 15 87 15 88 0 108 -16 28 -22 -35 -3 -40 -6
-43 -30 -3 -24 0 -28 23 -28 14 0 37 11 51 26 20 19 32 24 53 19 20 -4 32 0
46 15 16 18 30 20 142 20 100 0 123 -3 123 -14 0 -8 -9 -18 -20 -21 -11 -3
-20 -13 -20 -22 0 -8 3 -13 8 -11 4 2 24 10 45 18 23 8 37 21 37 31 0 15 15
17 151 18 145 0 150 0 144 -19 -8 -25 2 -25 46 -2 31 16 86 17 642 20 410 2
607 -1 607 -8 0 -5 9 -10 20 -10 11 0 20 4 20 10 0 6 255 10 730 10 l730 0 0
-2350 c0 -1293 -1 -2351 -2 -2351 -15 -7 -7269 -6 -7258 1 8 5 18 6 22 4 16
-10 154 39 223 80 74 43 238 197 250 234 3 12 10 22 15 22 18 0 92 171 99 231
6 51 5 59 -5 44 -7 -9 -10 -23 -7 -31 3 -9 -1 -14 -12 -14 -10 0 -15 6 -12 13
16 43 15 56 -3 23 -24 -47 -25 -60 -5 -52 8 3 15 4 15 2 0 -3 3 -12 7 -21 6
-16 4 -16 -22 1 -27 18 -27 18 -48 -10 -36 -50 -101 -122 -140 -156 -28 -24
-41 -30 -49 -22 -8 8 2 24 38 59 27 27 67 71 89 98 22 28 46 56 53 63 6 7 12
18 12 23 0 5 10 26 23 47 26 42 47 125 46 180 0 36 -1 35 -14 -15 -23 -83 -88
-199 -106 -187 -4 2 -11 -1 -15 -7 -4 -8 -3 -9 4 -5 33 20 3 -21 -70 -95 -44
-46 -79 -78 -77 -72 2 6 32 41 67 78 64 67 78 90 33 54 -13 -10 -20 -19 -17
-19 9 0 -37 -51 -56 -61 -14 -7 -16 -6 -12 6 4 8 1 15 -6 15 -23 0 -4 29 72
109 71 75 157 204 150 225 -1 4 2 14 8 21 6 7 12 41 15 76 l5 64 -20 -61 c-32
-98 -134 -245 -214 -306 -32 -25 -36 -26 -19 -7 18 20 19 26 7 37 -8 7 -14 9
-14 5 0 -4 -5 -2 -11 4 -9 9 5 30 56 85 37 40 72 83 78 96 5 12 13 22 17 22 4
0 17 24 31 53 13 28 27 54 30 57 4 3 10 26 14 53 4 26 11 47 15 47 4 0 8 11 8
25 0 37 -13 23 -36 -43 -26 -70 -101 -180 -166 -242 -58 -55 -79 -100 -77
-162 1 -30 -2 -48 -9 -48 -7 0 -11 14 -10 33 1 17 1 37 0 42 -1 6 -1 29 0 51
1 23 -4 45 -10 49 -21 13 3 50 85 131 77 75 144 168 132 180 -3 3 -10 -4 -17
-15 -6 -12 -15 -19 -20 -16 -6 3 -7 0 -5 -7 3 -8 -10 -32 -29 -53 -19 -22 -35
-35 -36 -29 0 6 7 17 16 24 8 8 20 23 25 34 9 19 9 19 -4 4 -8 -10 -17 -14
-21 -10 -4 4 -6 1 -4 -7 2 -7 -4 -15 -12 -16 -8 -2 -21 -4 -29 -6 -16 -4 -35
53 -28 82 3 12 0 16 -9 12 -10 -4 -11 1 -1 27 10 25 9 33 -2 40 -12 7 -12 11
2 25 23 23 21 34 -5 29 l-23 -5 23 12 c12 7 22 19 22 28 0 11 -3 12 -11 4 -17
-17 -41 7 -26 25 8 10 7 16 -3 22 -8 5 -11 13 -6 17 4 4 14 -1 22 -11 14 -19
14 -19 14 2 0 12 -4 22 -9 22 -6 0 -7 15 -4 33 4 24 0 37 -16 51 -21 19 -30
42 -12 31 5 -3 12 -1 16 5 3 5 -1 10 -10 10 -12 0 -13 4 -6 18 9 16 -12 201
-33 292 -3 14 -8 43 -10 65 -2 22 -9 67 -14 100 -6 33 -14 78 -17 100 -3 22
-15 94 -26 160 -11 66 -22 147 -25 180 -8 87 -18 94 -90 56 -37 -19 -81 -32
-119 -36 -33 -3 -118 -12 -190 -20 -178 -19 -472 -43 -638 -51 l-139 -7 4 22
c3 22 5 22 243 26 248 3 427 14 648 39 134 15 226 46 254 85 11 16 23 19 51
12 2 -1 0 -6 -3 -11 -5 -8 -11 -7 -21 1 -19 15 -18 -6 2 -46 l14 -30 -5 28
c-3 15 -1 27 4 27 10 0 25 -40 36 -97 4 -18 12 -33 18 -33 9 0 8 -3 -1 -8 -9
-7 -10 -20 -1 -63 6 -30 12 -63 13 -74 12 -103 26 -149 38 -115 2 6 13 12 26
13 12 0 22 6 22 11 0 5 3 7 6 4 8 -9 -15 -49 -25 -43 -5 2 -14 -1 -20 -8 -8
-11 -6 -13 11 -13 15 1 25 -9 34 -30 10 -24 10 -31 1 -30 -14 1 -17 -5 -17
-35 0 -17 3 -19 14 -10 11 9 15 2 20 -42 4 -29 4 -61 0 -72 -4 -11 -4 -16 2
-12 6 3 11 -9 12 -26 2 -18 10 -39 19 -47 14 -14 15 -7 9 70 -4 47 -20 191
-36 320 -39 304 -39 308 6 380 36 59 53 111 46 143 -2 9 -7 17 -12 17 -5 0 -7
-7 -4 -15 4 -8 -6 -39 -20 -69 -30 -62 -86 -136 -86 -114 0 8 11 25 25 38 17
16 22 27 16 39 -6 10 -3 24 8 41 15 22 19 49 13 98 -1 6 -9 12 -17 12 -22 0
-18 17 5 23 15 4 20 13 20 39 0 24 -3 29 -10 18 -5 -8 -12 -11 -16 -7 -4 4 -2
13 4 19 7 7 12 30 13 52 1 36 2 38 9 16 l8 -25 1 27 c1 16 -9 39 -21 53 -21
24 -21 24 -35 5 -8 -12 -16 -34 -18 -51 -3 -17 -9 -37 -15 -44 -6 -7 -8 -20
-4 -29 4 -12 0 -16 -15 -16 -12 0 -24 -7 -27 -15 -5 -12 -10 -13 -20 -4 -11 9
-14 7 -14 -13 0 -16 -9 -29 -25 -38 -13 -7 -22 -17 -19 -22 3 -4 0 -8 -5 -8
-6 0 -11 -10 -11 -22 0 -20 -1 -21 -20 -3 -26 24 -26 10 1 -23 11 -15 16 -28
11 -30 -5 -1 -7 -14 -4 -27 7 -37 -7 -30 -24 11 -12 27 -19 34 -32 29 -9 -4
-27 -10 -39 -12 -12 -3 -19 -11 -17 -18 6 -15 -23 -28 -32 -14 -3 5 -1 16 6
24 9 11 7 12 -9 8 -14 -4 -35 9 -74 46 -30 28 -57 48 -60 44 -4 -3 -7 -1 -7 5
0 7 -15 12 -35 12 -19 0 -35 -3 -35 -7 0 -8 -11 -9 -137 -14 -40 -1 -73 -6
-73 -10 0 -4 -8 -8 -17 -8 -31 -1 -80 -9 -102 -16 -11 -3 -21 -2 -21 2 0 5
-16 9 -35 10 -19 1 -35 -3 -35 -8 0 -5 -17 -8 -37 -8 -21 0 -76 -2 -123 -6
-47 -4 -111 -7 -143 -8 l-57 -2 2 685 3 685 65 26 c40 16 66 32 68 43 3 12 10
15 23 11 10 -4 19 -2 19 3 0 6 11 13 24 16 13 3 26 13 30 21 4 12 -1 14 -25
10 -42 -8 -85 -31 -92 -50 -4 -8 -17 -15 -30 -15 -14 0 -30 -6 -36 -14 -6 -8
-21 -16 -31 -19 -19 -5 -20 0 -20 84 l0 89 63 1 c34 0 109 3 166 5 122 6 153
1 144 -22 -4 -12 -2 -15 8 -12 8 3 13 10 12 15 -1 6 23 13 53 16 42 4 92 24
197 76 78 39 147 71 154 71 13 0 93 51 93 60 0 3 13 5 30 4 17 -1 27 2 24 8
-3 5 -12 7 -20 4 -15 -6 -18 11 -8 38 10 26 29 18 39 -16 8 -25 16 -33 35 -35
19 -1 20 0 5 4 -25 7 -34 20 -28 44 8 29 43 24 43 -5 0 -14 4 -27 8 -30 4 -2
8 8 7 22 0 22 4 27 25 27 21 0 25 -5 25 -27 -1 -14 3 -24 8 -21 5 3 7 18 5 33
-5 31 -3 32 82 65 25 10 59 24 77 31 17 8 35 14 40 14 4 0 31 11 58 25 28 13
57 25 65 25 8 0 38 14 65 30 l50 28 213 1 c206 1 214 0 219 -19z m2243 -6 c0
-30 -19 -28 -31 4 -7 18 -5 22 11 22 15 0 20 -7 20 -26z m110 16 c-36 -12
-100 -12 -100 0 0 6 27 10 63 9 46 -1 56 -3 37 -9z m-3649 -196 c11 -13 10
-15 -6 -12 -10 1 -20 -3 -23 -11 -3 -9 1 -11 17 -6 24 7 29 -10 5 -19 -16 -6
-44 9 -44 25 0 7 28 39 34 39 2 0 9 -7 17 -16z m-296 -5 c4 -6 0 -9 -8 -7 -9
2 -16 -1 -16 -7 -1 -5 3 -10 8 -10 19 0 23 -15 6 -21 -21 -8 -47 20 -38 42 6
16 39 19 48 3z m68 -3 c8 -21 -17 -50 -37 -43 -16 6 -22 38 -9 50 11 12 41 7
46 -7z m47 3 c0 6 5 11 10 11 13 0 13 -47 1 -55 -5 -3 -13 0 -17 6 -4 8 -9 7
-15 -2 -6 -10 -9 -3 -9 20 0 29 2 32 15 21 10 -9 15 -9 15 -1z m62 -14 c-10
-34 -26 -36 -29 -2 -1 20 3 27 17 27 15 0 17 -5 12 -25z m55 5 c7 -25 2 -34
-20 -35 -23 -2 -27 5 -16 33 10 27 29 29 36 2z m115 -5 c-7 -37 -19 -39 -24
-5 -4 23 -1 30 12 30 13 0 16 -6 12 -25z m348 -1885 c0 -5 -4 -10 -10 -10 -5
0 -10 5 -10 10 0 6 5 10 10 10 6 0 10 -4 10 -10z m125 -48 c-3 -3 -5 0 -5 7 0
7 -4 10 -9 7 -5 -4 -7 4 -3 16 l5 22 9 -24 c5 -12 6 -25 3 -28z m-35 -7 c0
-15 -55 -55 -75 -55 -5 0 5 9 23 20 17 11 32 27 32 35 0 8 5 15 10 15 6 0 10
-7 10 -15z m-802 -12 c-10 -2 -26 -2 -35 0 -10 3 -2 5 17 5 19 0 27 -2 18 -5z
m162 -3 c11 -8 7 -9 -15 -4 -37 8 -45 14 -19 14 10 0 26 -5 34 -10z m-267 -7
c-7 -2 -19 -2 -25 0 -7 3 -2 5 12 5 14 0 19 -2 13 -5z m312 -21 c-3 -3 -11 0
-18 7 -9 10 -8 11 6 5 10 -3 15 -9 12 -12z m450 -42 c-3 -5 -11 -10 -16 -10
-6 0 -7 5 -4 10 3 6 11 10 16 10 6 0 7 -4 4 -10z m305 -180 c0 -5 -5 -10 -11
-10 -5 0 -7 5 -4 10 3 6 8 10 11 10 2 0 4 -4 4 -10z m23 -120 c3 -11 2 -18 -3
-15 -4 3 -10 14 -13 25 -3 11 -2 18 3 15 4 -3 10 -14 13 -25z m27 -1161 c0 -5
-4 -9 -10 -9 -5 0 -10 7 -10 16 0 8 5 12 10 9 6 -3 10 -10 10 -16z m36 1 c0
-11 -26 -45 -59 -77 -33 -32 -54 -48 -48 -36 6 12 25 32 43 44 28 21 29 23 12
30 -17 7 -17 8 -1 8 9 1 17 6 17 12 0 5 5 7 12 3 7 -5 8 -3 3 6 -6 9 3 22 20
30 1 0 1 -9 1 -20z m-405 -284 c9 -19 9 -19 -4 -3 -8 9 -19 17 -25 17 -6 0
-13 4 -16 9 -4 5 3 7 14 4 11 -3 25 -15 31 -27z m-126 -26 c-239 -50 -531 -90
-770 -106 -141 -9 -115 2 35 16 192 17 502 59 635 84 66 13 136 24 155 24 19
0 -5 -8 -55 -18z m495 -30 c0 -5 -2 -10 -4 -10 -3 0 -8 5 -11 10 -3 6 -1 10 4
10 6 0 11 -4 11 -10z m-13 -82 c-3 -8 -6 -5 -6 6 -1 11 2 17 5 13 3 -3 4 -12
1 -19z m-540 -4 c-3 -3 -12 -4 -19 -1 -8 3 -5 6 6 6 11 1 17 -2 13 -5z m108
-74 c0 -25 -270 -79 -673 -134 l-242 -32 0 23 c0 13 3 23 8 23 15 0 311 40
447 60 149 22 386 68 394 76 12 11 66 -2 66 -16z m308 -154 c6 -15 -1 -26 -15
-26 -4 0 -8 9 -8 20 0 23 15 27 23 6z m-289 -11 c4 -10 -6 -17 -32 -24 -143
-39 -551 -106 -874 -144 -23 -3 -28 0 -28 18 0 20 8 23 103 34 243 30 645 97
722 120 48 15 102 13 109 -4z m132 -63 c-10 -10 -29 15 -21 28 6 9 10 8 17 -4
6 -10 7 -20 4 -24z m-339 -58 c-3 -3 -12 -4 -19 -1 -8 3 -5 6 6 6 11 1 17 -2
13 -5z m221 -59 c-16 -16 -535 -113 -708 -132 -56 -6 -61 -8 -35 -14 21 -6
-162 -5 -202 1 -2 0 -3 6 -3 14 0 10 35 18 128 30 144 18 184 24 442 67 102
16 223 38 270 48 71 15 87 16 99 5 8 -8 12 -16 9 -19z m385 -16 c-6 -6 -7 3
-4 23 4 28 6 29 9 9 2 -13 0 -27 -5 -32z m-78 -49 c-3 -5 -12 -10 -18 -10 -7
0 -6 4 3 10 19 12 23 12 15 0z m-160 -50 c3 -5 1 -10 -4 -10 -6 0 -11 5 -11
10 0 6 2 10 4 10 3 0 8 -4 11 -10z m-752 -37 c-18 -2 -48 -2 -65 0 -18 2 -4 4
32 4 36 0 50 -2 33 -4z m220 0 c-35 -2 -91 -2 -125 0 -35 2 -7 3 62 3 69 0 97
-1 63 -3z m370 0 c-45 -2 -122 -2 -170 0 -48 1 -11 3 82 3 94 0 133 -2 88 -3z"/>
<path d="M4150 7190 c0 -5 5 -10 11 -10 5 0 7 5 4 10 -3 6 -8 10 -11 10 -2 0
-4 -4 -4 -10z"/>
<path d="M5361 7184 c0 -11 3 -14 6 -6 3 7 2 16 -1 19 -3 4 -6 -2 -5 -13z"/>
<path d="M5985 7190 c-3 -5 -1 -18 4 -27 9 -16 10 -14 11 10 0 28 -5 34 -15
17z"/>
<path d="M3293 7183 c-7 -2 -13 -15 -13 -28 0 -13 -3 -25 -7 -28 -5 -2 -3 -2
4 -1 6 2 14 -2 17 -9 3 -9 5 -9 5 1 1 6 10 12 21 12 25 0 36 25 20 45 -13 15
-25 17 -47 8z"/>
<path d="M3998 7179 c-26 -14 -22 -29 7 -29 14 0 25 -4 25 -10 0 -5 7 -10 15
-10 8 0 15 5 15 10 0 6 -4 10 -9 10 -5 0 -11 9 -14 20 -6 22 -14 24 -39 9z"/>
<path d="M4090 7180 c-12 -8 -12 -10 3 -16 21 -8 35 2 21 16 -5 5 -15 6 -24 0z"/>
<path d="M5817 7183 c-12 -11 -8 -23 8 -23 8 0 15 7 15 15 0 16 -12 20 -23 8z"/>
<path d="M5300 7170 c0 -5 9 -10 20 -10 11 0 20 5 20 10 0 6 -9 10 -20 10 -11
0 -20 -4 -20 -10z"/>
<path d="M5635 7170 c-3 -5 -1 -10 4 -10 6 0 11 5 11 10 0 6 -2 10 -4 10 -3 0
-8 -4 -11 -10z"/>
<path d="M5693 7173 c-7 -2 -13 -11 -13 -19 0 -11 5 -11 25 -2 34 15 22 35
-12 21z"/>
<path d="M2924 7151 c-28 -15 -29 -18 -14 -34 22 -23 36 -21 43 4 4 15 11 20
22 15 12 -4 16 -1 13 11 -4 23 -26 25 -64 4z"/>
<path d="M3075 7160 c3 -5 16 -10 28 -10 18 0 19 2 7 10 -20 13 -43 13 -35 0z"/>
<path d="M3740 7160 c0 -5 5 -10 10 -10 6 0 10 5 10 10 0 6 -4 10 -10 10 -5 0
-10 -4 -10 -10z"/>
<path d="M7855 7160 c-3 -5 1 -10 9 -10 9 0 16 5 16 10 0 6 -4 10 -9 10 -6 0
-13 -4 -16 -10z"/>
<path d="M5768 7153 c6 -2 18 -2 25 0 6 3 1 5 -13 5 -14 0 -19 -2 -12 -5z"/>
<path d="M3490 7135 c-15 -18 -7 -31 11 -19 7 4 32 7 55 5 23 -1 45 2 49 8 3
6 3 11 -2 12 -88 9 -101 8 -113 -6z"/>
<path d="M5172 7135 l-23 -12 25 -5 c20 -4 26 -1 26 13 0 11 -1 19 -2 18 -2
-1 -13 -7 -26 -14z"/>
<path d="M2058 7133 c7 -3 16 -2 19 1 4 3 -2 6 -13 5 -11 0 -14 -3 -6 -6z"/>
<path d="M2860 7130 c-9 -6 -10 -10 -3 -10 6 0 15 5 18 10 8 12 4 12 -15 0z"/>
<path d="M4903 7133 c21 -5 23 -23 2 -23 -8 0 -15 -7 -15 -15 0 -22 16 -18 33
9 18 27 13 37 -17 35 -17 -1 -18 -2 -3 -6z"/>
<path d="M5032 7126 c13 -14 28 -12 28 5 0 5 -9 9 -20 9 -17 0 -19 -2 -8 -14z"/>
<path d="M2550 7115 c0 -9 9 -15 25 -15 16 0 25 6 25 15 0 9 -9 15 -25 15 -16
0 -25 -6 -25 -15z"/>
<path d="M3033 7112 c-6 -10 -27 -27 -47 -36 -20 -9 -36 -19 -36 -20 0 -2 16
-4 36 -3 39 1 69 31 62 62 -2 13 -5 13 -15 -3z"/>
<path d="M3207 7124 c-4 -4 -7 -16 -7 -26 0 -16 3 -17 21 -8 11 6 19 16 16 23
-4 14 -21 20 -30 11z"/>
<path d="M3438 7125 c-3 -3 -27 -7 -54 -9 -58 -3 -70 -29 -16 -34 24 -2 32 -7
28 -18 -3 -8 -1 -14 3 -14 5 0 16 -3 25 -6 11 -4 16 0 16 12 0 9 7 25 16 35
20 22 3 54 -18 34z"/>
<path d="M4075 7120 c3 -5 10 -10 16 -10 5 0 9 5 9 10 0 6 -7 10 -16 10 -8 0
-12 -4 -9 -10z"/>
<path d="M5225 7120 c4 -6 11 -8 16 -5 14 9 11 15 -7 15 -8 0 -12 -5 -9 -10z"/>
<path d="M2323 7089 c-12 -4 -27 -18 -34 -31 -12 -22 -11 -22 6 -8 10 8 26 14
35 12 22 -4 46 23 28 31 -7 2 -23 1 -35 -4z"/>
<path d="M3577 7093 c-13 -12 -7 -23 13 -23 13 0 18 5 14 15 -7 16 -17 19 -27
8z"/>
<path d="M5033 7093 c-7 -2 -13 -8 -13 -13 0 -12 28 -20 45 -14 12 5 13 10 4
20 -12 15 -16 16 -36 7z"/>
<path d="M2825 7080 c-3 -5 -2 -10 4 -10 5 0 13 5 16 10 3 6 2 10 -4 10 -5 0
-13 -4 -16 -10z"/>
<path d="M2631 7064 c0 -11 3 -14 6 -6 3 7 2 16 -1 19 -3 4 -6 -2 -5 -13z"/>
<path d="M4472 7061 c-11 -7 -11 -9 0 -13 17 -6 38 1 38 13 0 11 -21 11 -38 0z"/>
<path d="M3096 7046 c9 -23 33 -28 27 -5 -3 10 -11 19 -19 19 -7 0 -11 -6 -8
-14z"/>
<path d="M3676 7045 c4 -8 8 -15 10 -15 2 0 4 7 4 15 0 8 -4 15 -10 15 -5 0
-7 -7 -4 -15z"/>
<path d="M5368 7053 c7 -3 16 -2 19 1 4 3 -2 6 -13 5 -11 0 -14 -3 -6 -6z"/>
<path d="M2708 7043 c-10 -2 -18 -9 -18 -14 0 -6 -5 -7 -10 -4 -6 4 -10 3 -9
-2 1 -4 1 -23 0 -42 -1 -26 -5 -32 -17 -27 -8 3 -13 2 -10 -3 3 -5 18 -8 33
-8 16 0 22 2 16 4 -22 8 -15 61 8 74 13 7 19 7 15 1 -3 -6 -2 -13 4 -17 6 -4
10 5 10 19 0 14 -1 25 -2 25 -2 -1 -11 -3 -20 -6z"/>
<path d="M3265 7040 c3 -5 10 -10 16 -10 5 0 9 5 9 10 0 6 -7 10 -16 10 -8 0
-12 -4 -9 -10z"/>
<path d="M3480 7036 c0 -8 5 -18 10 -21 6 -3 10 3 10 14 0 12 -4 21 -10 21 -5
0 -10 -6 -10 -14z"/>
<path d="M3591 7034 c11 -13 10 -17 -4 -25 -9 -6 -17 -17 -17 -26 0 -11 6 -8
20 10 20 25 18 57 -2 57 -6 0 -4 -7 3 -16z"/>
<path d="M3630 7035 c0 -8 5 -15 10 -15 6 0 10 7 10 15 0 8 -4 15 -10 15 -5 0
-10 -7 -10 -15z"/>
<path d="M5440 7039 c0 -5 5 -7 10 -4 6 3 10 8 10 11 0 2 -4 4 -10 4 -5 0 -10
-5 -10 -11z"/>
<path d="M1745 7030 c-3 -6 1 -7 9 -4 18 7 21 14 7 14 -6 0 -13 -4 -16 -10z"/>
<path d="M1880 7035 c1 -5 7 -18 14 -28 13 -17 14 -16 19 3 3 12 1 18 -5 14
-6 -4 -14 0 -19 7 -5 8 -9 10 -9 4z"/>
<path d="M1995 7032 c-20 -4 -35 -19 -35 -36 0 -6 6 -1 14 9 10 14 25 19 55
18 22 -1 42 1 45 5 4 8 -47 10 -79 4z"/>
<path d="M2330 7036 c0 -2 8 -10 18 -17 15 -13 16 -12 3 4 -13 16 -21 21 -21
13z"/>
<path d="M2445 7030 c-3 -5 -1 -10 4 -10 6 0 11 5 11 10 0 6 -2 10 -4 10 -3 0
-8 -4 -11 -10z"/>
<path d="M2544 7028 c-3 -4 -2 -13 2 -20 5 -8 10 -7 18 4 17 23 49 -2 44 -34
-4 -28 -35 -36 -52 -12 -10 13 -15 14 -21 4 -5 -8 -4 -11 2 -7 6 4 13 0 17 -8
13 -34 66 -10 66 30 0 35 -60 70 -76 43z"/>
<path d="M2650 7031 c0 -7 -4 -9 -10 -6 -6 4 -7 -1 -3 -11 6 -15 7 -15 15 1 6
9 7 19 4 22 -3 4 -6 1 -6 -6z"/>
<path d="M3325 7030 c3 -5 12 -7 20 -3 21 7 19 13 -6 13 -11 0 -18 -4 -14 -10z"/>
<path d="M1859 7013 c5 -10 14 -30 20 -45 6 -17 18 -28 28 -27 17 1 17 2 1 6
-10 2 -22 21 -28 44 -6 21 -15 39 -20 39 -6 0 -7 -7 -1 -17z"/>
<path d="M1936 7018 c-11 -36 -13 -57 -5 -52 5 3 9 16 9 29 0 13 6 26 13 28 9
4 9 6 -1 6 -7 1 -14 -5 -16 -11z"/>
<path d="M2128 7025 c-7 -7 0 -66 8 -74 3 -3 4 3 2 15 -1 11 3 28 11 38 12 14
12 16 -4 10 -13 -5 -16 -4 -11 4 7 12 4 16 -6 7z"/>
<path d="M2380 7020 c-8 -5 -12 -12 -9 -15 4 -3 12 1 19 10 14 17 11 19 -10 5z"/>
<path d="M1712 7013 c-6 -2 -9 -10 -5 -16 4 -7 0 -8 -11 -4 -10 4 -15 3 -11
-3 10 -16 23 -12 35 10 6 11 9 20 8 19 -2 0 -9 -3 -16 -6z"/>
<path d="M2426 7007 c3 -10 9 -15 12 -12 3 3 0 11 -7 18 -10 9 -11 8 -5 -6z"/>
<path d="M3030 7010 c-8 -5 -12 -12 -9 -15 4 -3 12 1 19 10 14 17 11 19 -10 5z"/>
<path d="M4140 7010 c0 -5 5 -10 10 -10 6 0 10 5 10 10 0 6 -4 10 -10 10 -5 0
-10 -4 -10 -10z"/>
<path d="M1543 7003 c-7 -2 -12 -17 -12 -31 1 -21 2 -23 6 -7 3 11 10 26 15
33 11 13 10 13 -9 5z"/>
<path d="M1771 6994 c0 -11 3 -14 6 -6 3 7 2 16 -1 19 -3 4 -6 -2 -5 -13z"/>
<path d="M2302 6990 c0 -14 2 -19 5 -12 2 6 2 18 0 25 -3 6 -5 1 -5 -13z"/>
<path d="M2462 6990 c0 -14 2 -19 5 -12 2 6 2 18 0 25 -3 6 -5 1 -5 -13z"/>
<path d="M2491 6983 c-1 -26 -5 -33 -21 -33 -10 0 -24 8 -29 18 -9 15 -10 16
-11 0 0 -9 -10 -18 -22 -20 -13 -2 1 -4 30 -5 57 -1 67 7 59 49 -3 17 -5 15
-6 -9z"/>
<path d="M3220 6999 c0 -5 5 -7 10 -4 6 3 10 8 10 11 0 2 -4 4 -10 4 -5 0 -10
-5 -10 -11z"/>
<path d="M1488 6975 c-3 -14 -1 -25 3 -25 5 0 9 11 9 25 0 14 -2 25 -4 25 -2
0 -6 -11 -8 -25z"/>
<path d="M1390 6979 c0 -5 5 -7 10 -4 6 3 10 8 10 11 0 2 -4 4 -10 4 -5 0 -10
-5 -10 -11z"/>
<path d="M1990 6981 c0 -5 9 -7 20 -4 11 3 20 7 20 9 0 2 -9 4 -20 4 -11 0
-20 -4 -20 -9z"/>
<path d="M2338 6983 c6 -2 18 -2 25 0 6 3 1 5 -13 5 -14 0 -19 -2 -12 -5z"/>
<path d="M2575 6980 c3 -5 8 -10 11 -10 2 0 4 5 4 10 0 6 -5 10 -11 10 -5 0
-7 -4 -4 -10z"/>
<path d="M1961 6964 c0 -11 3 -14 6 -6 3 7 2 16 -1 19 -3 4 -6 -2 -5 -13z"/>
<path d="M3380 6970 c0 -5 5 -10 11 -10 5 0 7 5 4 10 -3 6 -8 10 -11 10 -2 0
-4 -4 -4 -10z"/>
<path d="M2020 6962 c0 -7 -10 -13 -22 -13 -19 -1 -20 -2 -4 -6 20 -5 44 12
33 24 -4 3 -7 1 -7 -5z"/>
<path d="M1448 6943 c7 -3 16 -2 19 1 4 3 -2 6 -13 5 -11 0 -14 -3 -6 -6z"/>
<path d="M1738 6943 c7 -3 16 -2 19 1 4 3 -2 6 -13 5 -11 0 -14 -3 -6 -6z"/>
<path d="M1788 6943 c7 -3 16 -2 19 1 4 3 -2 6 -13 5 -11 0 -14 -3 -6 -6z"/>
<path d="M1838 6943 c7 -3 16 -2 19 1 4 3 -2 6 -13 5 -11 0 -14 -3 -6 -6z"/>
<path d="M2053 6943 c9 -2 23 -2 30 0 6 3 -1 5 -18 5 -16 0 -22 -2 -12 -5z"/>
<path d="M2340 6939 c0 -5 5 -7 10 -4 6 3 10 8 10 11 0 2 -4 4 -10 4 -5 0 -10
-5 -10 -11z"/>
<path d="M3137 6943 c-24 -23 9 -31 39 -8 18 14 18 14 -7 15 -14 0 -29 -3 -32
-7z"/>
<path d="M1770 6926 c0 -2 7 -7 16 -10 8 -3 12 -2 9 4 -6 10 -25 14 -25 6z"/>
<path d="M1960 6920 c0 -5 5 -10 10 -10 6 0 10 5 10 10 0 6 -4 10 -10 10 -5 0
-10 -4 -10 -10z"/>
<path d="M3196 6781 c-4 -5 3 -7 14 -4 23 6 26 13 6 13 -8 0 -17 -4 -20 -9z"/>
<path d="M2020 6750 l-55 -7 63 -1 c40 -1 61 2 57 8 -3 6 -7 9 -8 8 -1 -1 -27
-4 -57 -8z"/>
<path d="M2755 6750 c-21 -5 -6 -8 49 -9 44 0 77 2 73 5 -9 9 -88 12 -122 4z"/>
<path d="M3190 6750 c-12 -8 -10 -10 8 -10 13 0 20 4 17 10 -7 12 -6 12 -25 0z"/>
<path d="M3330 6749 c-18 -5 -6 -7 39 -8 35 -1 62 1 60 3 -10 8 -76 12 -99 5z"/>
<path d="M1028 6743 c12 -2 30 -2 40 0 9 3 -1 5 -23 4 -22 0 -30 -2 -17 -4z"/>
<path d="M1108 6743 c7 -3 16 -2 19 1 4 3 -2 6 -13 5 -11 0 -14 -3 -6 -6z"/>
<path d="M1643 6743 c9 -2 23 -2 30 0 6 3 -1 5 -18 5 -16 0 -22 -2 -12 -5z"/>
<path d="M1718 6743 c6 -2 18 -2 25 0 6 3 1 5 -13 5 -14 0 -19 -2 -12 -5z"/>
<path d="M1768 6743 c6 -2 18 -2 25 0 6 3 1 5 -13 5 -14 0 -19 -2 -12 -5z"/>
<path d="M2213 6743 c37 -2 96 -2 130 0 34 2 4 3 -68 3 -71 0 -99 -1 -62 -3z"/>
<path d="M2418 6743 c7 -3 16 -2 19 1 4 3 -2 6 -13 5 -11 0 -14 -3 -6 -6z"/>
<path d="M2658 6743 c7 -3 16 -2 19 1 4 3 -2 6 -13 5 -11 0 -14 -3 -6 -6z"/>
<path d="M2963 6743 c37 -2 96 -2 130 0 34 2 4 3 -68 3 -71 0 -99 -1 -62 -3z"/>
<path d="M3608 6743 c7 -3 16 -2 19 1 4 3 -2 6 -13 5 -11 0 -14 -3 -6 -6z"/>
<path d="M3693 6743 c9 -2 23 -2 30 0 6 3 -1 5 -18 5 -16 0 -22 -2 -12 -5z"/>
<path d="M3753 6743 c9 -2 23 -2 30 0 6 3 -1 5 -18 5 -16 0 -22 -2 -12 -5z"/>
<path d="M3888 6743 c6 -2 18 -2 25 0 6 3 1 5 -13 5 -14 0 -19 -2 -12 -5z"/>
<path d="M4328 6743 c7 -3 16 -2 19 1 4 3 -2 6 -13 5 -11 0 -14 -3 -6 -6z"/>
<path d="M4508 6743 c12 -2 30 -2 40 0 9 3 -1 5 -23 4 -22 0 -30 -2 -17 -4z"/>
<path d="M4578 6743 c7 -3 16 -2 19 1 4 3 -2 6 -13 5 -11 0 -14 -3 -6 -6z"/>
<path d="M4873 6743 c9 -2 23 -2 30 0 6 3 -1 5 -18 5 -16 0 -22 -2 -12 -5z"/>
<path d="M4973 6743 c15 -2 37 -2 50 0 12 2 0 4 -28 4 -27 0 -38 -2 -22 -4z"/>
<path d="M5098 6743 c7 -3 16 -2 19 1 4 3 -2 6 -13 5 -11 0 -14 -3 -6 -6z"/>
<path d="M5193 6743 c9 -2 23 -2 30 0 6 3 -1 5 -18 5 -16 0 -22 -2 -12 -5z"/>
<path d="M420 6710 c0 -13 11 -13 30 0 12 8 11 10 -7 10 -13 0 -23 -4 -23 -10z"/>
<path d="M640 6680 c-23 -13 -29 -19 -17 -20 18 0 77 27 77 35 0 10 -26 3 -60
-15z"/>
<path d="M6440 4540 l0 -1530 1075 0 1075 0 0 578 c0 317 1 1006 2 1530 l3
952 -1077 0 -1078 0 0 -1530z m2100 0 l0 -1480 -1025 0 -1025 0 0 1480 0 1480
1025 0 1025 0 0 -1480z"/>
<path d="M8160 5820 c0 -27 5 -50 10 -50 6 0 10 23 10 50 0 28 -4 50 -10 50
-5 0 -10 -22 -10 -50z"/>
<path d="M6852 5844 c-28 -19 -30 -74 -4 -97 36 -33 102 -10 102 36 0 13 -9
17 -35 17 -19 0 -35 -4 -35 -10 0 -5 12 -10 26 -10 22 0 25 -2 14 -15 -16 -20
-56 -19 -64 1 -18 47 14 85 53 64 33 -17 48 -11 22 10 -28 24 -49 25 -79 4z"/>
<path d="M6979 5858 c-1 -2 -2 -31 -3 -65 l-2 -63 38 0 c21 0 38 5 38 10 0 6
-11 10 -25 10 -16 0 -25 6 -25 15 0 8 9 15 20 15 11 0 20 4 20 9 0 5 -9 11
-20 14 -30 8 -25 37 6 37 14 0 23 4 19 10 -5 8 -62 15 -66 8z"/>
<path d="M7070 5850 c0 -5 7 -10 15 -10 10 0 15 -15 17 -55 2 -30 8 -55 13
-55 6 0 11 25 13 55 2 40 7 55 17 55 8 0 15 5 15 10 0 6 -20 10 -45 10 -25 0
-45 -4 -45 -10z"/>
<path d="M7240 5795 c0 -37 4 -65 10 -65 6 0 10 28 10 65 0 37 -4 65 -10 65
-6 0 -10 -28 -10 -65z"/>
<path d="M7290 5795 c0 -53 3 -65 16 -65 14 0 16 7 11 40 -3 22 -2 40 2 40 4
0 17 -18 30 -40 34 -61 51 -53 51 25 0 75 -17 89 -22 18 l-3 -48 -30 47 c-42
67 -55 63 -55 -17z"/>
<path d="M7480 5850 c0 -5 7 -10 15 -10 12 0 15 -13 15 -55 0 -42 3 -55 15
-55 12 0 15 13 15 55 0 42 3 55 15 55 8 0 15 5 15 10 0 6 -20 10 -45 10 -25 0
-45 -4 -45 -10z"/>
<path d="M7610 5840 c-40 -40 -14 -110 41 -110 46 0 75 42 59 84 -17 46 -67
59 -100 26z m61 -10 c19 -11 24 -35 13 -64 -7 -19 -45 -21 -62 -4 -18 18 -15
55 6 67 21 13 20 13 43 1z"/>
<path d="M7740 5807 c0 -59 12 -77 50 -77 38 0 50 18 50 77 0 69 -18 69 -22 1
-3 -49 -5 -53 -28 -53 -23 0 -25 4 -28 53 -4 68 -22 68 -22 -1z"/>
<path d="M7886 5836 c-15 -14 -26 -34 -26 -46 0 -48 80 -81 110 -45 16 20 5
32 -14 16 -8 -7 -25 -11 -38 -9 -18 2 -24 10 -26 35 -4 40 26 61 57 41 21 -13
41 -4 25 11 -5 5 -21 13 -36 16 -21 5 -33 1 -52 -19z"/>
<path d="M8010 5795 c0 -37 4 -65 10 -65 6 0 10 11 10 24 0 16 7 26 22 29 29
8 38 1 38 -29 0 -13 6 -24 13 -24 8 0 12 18 10 62 -1 64 -19 92 -25 41 -2 -22
-8 -28 -28 -28 -20 0 -26 6 -28 28 -6 53 -22 26 -22 -38z"/>
<path d="M8160 5745 c0 -9 5 -15 11 -13 6 2 11 8 11 13 0 5 -5 11 -11 13 -6 2
-11 -4 -11 -13z"/>
<path d="M7474 4295 c-7 -17 3 -35 19 -35 8 0 7 3 -2 9 -8 5 -11 16 -8 25 4 9
4 16 1 16 -2 0 -7 -7 -10 -15z"/>
<path d="M7561 4284 c0 -11 3 -14 6 -6 3 7 2 16 -1 19 -3 4 -6 -2 -5 -13z"/>
<path d="M7182 4275 c15 -16 20 -17 30 -6 11 11 10 13 0 7 -7 -4 -21 -2 -30 5
-15 12 -15 11 0 -6z"/>
<path d="M6810 4270 c-9 -6 -10 -10 -3 -10 6 0 15 5 18 10 8 12 4 12 -15 0z"/>
<path d="M7372 4260 c0 -14 2 -19 5 -12 2 6 2 18 0 25 -3 6 -5 1 -5 -13z"/>
<path d="M7192 3303 l3 -88 278 -3 277 -2 0 90 0 90 -280 0 -281 0 3 -87z
m160 2 c2 -14 -3 -21 -19 -23 -17 -3 -22 1 -20 20 2 43 32 45 39 3z m270 17
c-7 -2 -12 -12 -12 -23 0 -10 -4 -19 -10 -19 -5 0 -10 9 -10 20 0 11 -4 20
-10 20 -5 0 -10 -9 -10 -19 0 -16 -7 -19 -45 -19 -41 0 -45 2 -45 24 0 26 10
30 28 12 9 -9 12 -9 12 0 0 19 20 14 21 -5 1 -16 2 -16 6 -1 3 10 17 18 36 20
34 4 59 -3 39 -10z m-242 -7 c0 -21 18 -19 23 3 3 10 5 6 6 -10 1 -21 -4 -28
-18 -28 -10 0 -22 7 -25 16 -9 23 -7 34 4 34 6 0 10 -7 10 -15z m90 -10 c0
-18 -5 -25 -20 -25 -15 0 -20 7 -20 25 0 18 5 25 20 25 15 0 20 -7 20 -25z"/>
<path d="M1196 5782 c-30 -37 -70 -97 -87 -133 -38 -76 -80 -200 -71 -213 6
-11 11 -1 47 114 31 97 46 125 127 227 32 40 54 73 49 73 -6 0 -35 -31 -65
-68z"/>
<path d="M1639 5691 c17 -32 27 -61 24 -65 -3 -3 0 -12 6 -20 7 -8 21 -36 31
-63 26 -67 25 -27 -2 49 -19 57 -73 158 -84 158 -2 0 9 -26 25 -59z"/>
<path d="M2750 5555 c-7 -9 -8 -15 -2 -15 5 0 12 7 16 15 3 8 4 15 2 15 -2 0
-9 -7 -16 -15z"/>
<path d="M1670 5540 c0 -5 5 -10 11 -10 5 0 7 5 4 10 -3 6 -8 10 -11 10 -2 0
-4 -4 -4 -10z"/>
<path d="M3615 5500 c-26 -28 -15 -31 12 -3 12 13 19 23 14 23 -4 0 -16 -9
-26 -20z"/>
<path d="M1665 5480 c-3 -5 -1 -10 4 -10 6 0 11 5 11 10 0 6 -2 10 -4 10 -3 0
-8 -4 -11 -10z"/>
<path d="M2424 5459 c-19 -22 -19 -22 4 -8 12 8 22 17 22 21 0 12 -6 9 -26
-13z"/>
<path d="M2896 5451 c-10 -11 -16 -26 -13 -33 4 -9 6 -7 6 4 1 9 11 24 23 32
12 9 18 16 12 16 -6 0 -19 -9 -28 -19z"/>
<path d="M4524 5456 c-10 -8 -17 -17 -14 -19 3 -3 16 3 29 14 27 22 15 26 -15
5z"/>
<path d="M4954 5456 c-10 -8 -17 -17 -14 -19 3 -3 16 3 29 14 27 22 15 26 -15
5z"/>
<path d="M5250 5460 c-8 -5 -12 -11 -10 -14 3 -2 14 2 24 10 22 15 10 19 -14
4z"/>
<path d="M5510 5455 c-7 -9 -10 -18 -6 -22 3 -3 6 -1 6 6 0 6 10 16 23 21 15
6 17 9 6 9 -9 1 -22 -6 -29 -14z"/>
<path d="M2596 5444 c-22 -21 -20 -31 2 -12 9 9 24 18 32 21 12 4 12 6 -2 6
-9 1 -24 -6 -32 -15z"/>
<path d="M3195 5449 c-4 -6 -5 -12 -2 -15 2 -3 7 2 10 11 7 17 1 20 -8 4z"/>
<path d="M4233 5445 c-3 -9 -3 -18 -1 -21 3 -3 8 4 11 16 6 23 -1 27 -10 5z"/>
<path d="M5663 5390 c0 -36 2 -50 4 -32 2 17 2 47 0 65 -2 17 -4 3 -4 -33z"/>
<path d="M3786 5353 c-10 -13 -32 -33 -50 -44 -17 -10 -26 -19 -21 -19 19 0
74 39 85 60 16 31 8 33 -14 3z"/>
<path d="M5371 5341 c-7 -11 -24 -27 -39 -35 -15 -9 -21 -15 -15 -16 17 0 80
57 71 65 -3 4 -11 -3 -17 -14z"/>
<path d="M1731 5324 c0 -11 3 -14 6 -6 3 7 2 16 -1 19 -3 4 -6 -2 -5 -13z"/>
<path d="M2435 5320 c-10 -11 -25 -20 -33 -20 -9 0 -12 -3 -9 -7 9 -9 55 16
61 33 7 19 2 17 -19 -6z"/>
<path d="M2950 5300 c-9 -6 -10 -10 -3 -10 6 0 15 5 18 10 8 12 4 12 -15 0z"/>
<path d="M3990 5300 c-9 -6 -10 -10 -3 -10 6 0 15 5 18 10 8 12 4 12 -15 0z"/>
<path d="M4580 5300 c-9 -6 -10 -10 -3 -10 6 0 15 5 18 10 8 12 4 12 -15 0z"/>
<path d="M5005 5300 c-3 -5 -2 -10 4 -10 5 0 13 5 16 10 3 6 2 10 -4 10 -5 0
-13 -4 -16 -10z"/>
<path d="M5519 5183 c-13 -16 -12 -17 4 -4 9 7 17 15 17 17 0 8 -8 3 -21 -13z"/>
<path d="M2608 5153 c6 -2 18 -2 25 0 6 3 1 5 -13 5 -14 0 -19 -2 -12 -5z"/>
<path d="M2560 5129 c-16 -30 -8 -31 13 -3 10 13 13 24 8 24 -6 0 -15 -9 -21
-21z"/>
<path d="M4220 5135 c-20 -24 -6 -28 15 -5 10 11 13 20 8 20 -6 0 -16 -7 -23
-15z"/>
<path d="M6122 5125 c0 -16 2 -22 5 -12 2 9 2 23 0 30 -3 6 -5 -1 -5 -18z"/>
<path d="M1707 5103 c-4 -3 -7 -13 -7 -22 1 -13 3 -13 11 2 11 19 8 33 -4 20z"/>
<path d="M2880 5085 c-7 -9 -10 -18 -6 -22 3 -3 6 -1 6 5 0 5 12 15 28 20 23
9 24 11 6 11 -12 1 -27 -6 -34 -14z"/>
<path d="M3372 5088 c-19 -19 -14 -33 6 -16 9 9 24 18 32 21 11 4 9 6 -5 6
-12 1 -26 -4 -33 -11z"/>
<path d="M3650 5090 c-8 -5 -12 -11 -10 -14 3 -2 14 2 24 10 22 15 10 19 -14
4z"/>
<path d="M3920 5091 c0 -5 9 -7 20 -4 11 3 20 7 20 9 0 2 -9 4 -20 4 -11 0
-20 -4 -20 -9z"/>
<path d="M4669 5083 c-12 -16 -12 -17 1 -7 8 7 24 14 35 17 19 4 19 5 -1 6
-12 0 -28 -7 -35 -16z"/>
<path d="M4940 5085 c-7 -9 -10 -18 -6 -22 3 -3 6 -1 6 5 0 5 12 15 28 20 23
9 24 11 6 11 -12 1 -27 -6 -34 -14z"/>
<path d="M5249 5083 c-12 -16 -12 -17 1 -7 8 6 22 14 30 17 13 5 12 6 -1 6 -9
1 -23 -7 -30 -16z"/>
<path d="M5679 5083 c-12 -16 -12 -17 1 -7 8 6 22 14 30 17 13 5 12 6 -1 6 -9
1 -23 -7 -30 -16z"/>
<path d="M5960 5085 c-7 -9 -10 -18 -6 -22 3 -3 6 -1 6 5 0 5 12 15 28 20 23
9 24 11 6 11 -12 1 -27 -6 -34 -14z"/>
<path d="M3192 5078 c-7 -7 -12 -16 -12 -22 0 -5 6 -3 13 6 6 9 21 18 32 21
20 5 20 5 0 6 -12 0 -26 -4 -33 -11z"/>
<path d="M6121 5044 c0 -11 3 -14 6 -6 3 7 2 16 -1 19 -3 4 -6 -2 -5 -13z"/>
<path d="M3526 5005 c-9 -26 -7 -32 5 -12 6 10 9 21 6 23 -2 3 -7 -2 -11 -11z"/>
<path d="M4405 4991 c-3 -11 -25 -32 -48 -46 -23 -14 -37 -25 -32 -25 32 0
107 71 92 87 -3 2 -8 -5 -12 -16z"/>
<path d="M6122 4975 c0 -16 2 -22 5 -12 2 9 2 23 0 30 -3 6 -5 -1 -5 -18z"/>
<path d="M4800 4970 c-6 -11 -23 -26 -38 -34 -15 -9 -22 -15 -17 -16 16 0 54
29 65 51 6 10 8 19 6 19 -3 0 -10 -9 -16 -20z"/>
<path d="M2715 4954 c-18 -16 -22 -22 -9 -15 18 9 53 42 43 41 -2 -1 -17 -12
-34 -26z"/>
<path d="M3774 4969 c-3 -6 -20 -19 -38 -30 -17 -10 -25 -19 -19 -19 13 0 83
59 71 60 -4 0 -10 -5 -14 -11z"/>
<path d="M3481 4944 c-19 -13 -29 -24 -23 -24 6 0 24 11 39 25 35 31 28 31
-16 -1z"/>
<path d="M3971 4954 c0 -11 3 -14 6 -6 3 7 2 16 -1 19 -3 4 -6 -2 -5 -13z"/>
<path d="M2940 4935 c-11 -13 -10 -14 4 -9 9 3 16 10 16 15 0 13 -6 11 -20 -6z"/>
<path d="M4996 4934 c-11 -8 -16 -14 -10 -14 13 0 39 18 34 24 -3 2 -14 -2
-24 -10z"/>
<path d="M6016 4934 c-11 -8 -16 -14 -10 -14 13 0 39 18 34 24 -3 2 -14 -2
-24 -10z"/>
<path d="M6121 4924 c0 -11 3 -14 6 -6 3 7 2 16 -1 19 -3 4 -6 -2 -5 -13z"/>
<path d="M6085 4840 c-16 -17 -16 -20 -3 -15 9 4 19 13 22 21 7 19 2 18 -19
-6z"/>
<path d="M5993 4803 c9 -2 23 -2 30 0 6 3 -1 5 -18 5 -16 0 -22 -2 -12 -5z"/>
<path d="M1640 4531 c0 -5 9 -11 20 -14 24 -6 27 8 4 17 -21 8 -24 8 -24 -3z"/>
<path d="M3274 4499 c-10 -17 13 -36 27 -22 12 12 4 33 -11 33 -5 0 -12 -5
-16 -11z"/>
<path d="M3720 4420 c0 -64 3 -80 15 -80 12 0 15 16 15 80 0 64 -3 80 -15 80
-12 0 -15 -16 -15 -80z"/>
<path d="M3985 4471 c-9 -19 -11 -32 -5 -36 6 -3 10 -21 10 -39 0 -33 15 -56
37 -56 7 0 13 7 13 15 0 8 -4 15 -10 15 -5 0 -10 14 -10 30 0 17 5 30 10 30 6
0 10 7 10 15 0 8 -4 15 -10 15 -5 0 -10 6 -10 14 0 28 -19 26 -35 -3z"/>
<path d="M4070 4420 c0 -64 3 -80 15 -80 10 0 15 10 15 29 0 42 10 61 31 61
15 0 19 -7 19 -39 0 -38 11 -58 28 -47 4 2 5 28 2 58 l-5 53 -37 -1 c-34 -1
-38 2 -38 22 0 15 -6 24 -15 24 -12 0 -15 -16 -15 -80z"/>
<path d="M4419 4495 c0 -3 0 -37 -1 -77 0 -67 11 -95 27 -68 5 8 11 8 20 0 32
-26 73 15 66 65 -5 33 -23 47 -53 43 -24 -4 -28 -1 -28 19 0 14 -6 23 -15 23
-8 0 -15 -2 -16 -5z m76 -95 c0 -16 -6 -26 -18 -28 -19 -4 -32 20 -23 44 9 25
41 13 41 -16z"/>
<path d="M1640 4480 c0 -5 7 -10 15 -10 8 0 15 5 15 10 0 6 -7 10 -15 10 -8 0
-15 -4 -15 -10z"/>
<path d="M4808 4472 c-8 -30 8 -113 23 -123 21 -13 39 -11 39 6 0 8 -4 15 -10
15 -5 0 -10 14 -10 30 0 17 5 30 10 30 6 0 10 7 10 15 0 8 -4 15 -10 15 -5 0
-10 7 -10 15 0 22 -37 19 -42 -3z"/>
<path d="M3163 4453 c-25 -9 -14 -44 17 -54 17 -6 30 -15 30 -20 0 -5 -13 -6
-30 -2 -35 6 -41 -10 -10 -27 31 -17 79 3 80 33 0 4 -16 15 -35 23 -42 17 -46
29 -6 21 34 -7 45 1 30 20 -11 13 -52 16 -76 6z"/>
<path d="M3274 4403 c2 -42 7 -58 17 -58 10 0 15 16 17 58 3 51 1 57 -17 57
-18 0 -20 -6 -17 -57z"/>
<path d="M3340 4398 c0 -51 2 -59 18 -56 10 2 16 11 14 22 -6 34 7 66 28 66
17 0 20 -7 20 -46 0 -38 3 -45 18 -42 10 2 16 11 15 23 -5 38 7 65 27 65 11 0
20 -6 21 -12 0 -7 2 -26 2 -43 1 -19 7 -30 17 -30 19 0 26 65 10 95 -11 21
-54 28 -65 10 -4 -7 -11 -8 -18 -1 -7 5 -33 9 -59 9 l-48 -1 0 -59z"/>
<path d="M3570 4373 c0 -67 3 -83 15 -83 11 0 15 11 15 35 0 33 2 35 21 25 30
-17 69 11 69 50 0 41 -22 58 -75 58 l-45 -1 0 -84z m87 41 c3 -8 -2 -23 -11
-32 -14 -15 -18 -15 -31 -1 -9 9 -13 23 -9 32 8 21 43 22 51 1z"/>
<path d="M3795 4403 c21 -52 22 -61 9 -84 -12 -23 -11 -28 1 -33 16 -6 29 14
68 112 24 58 24 62 7 62 -12 0 -21 -10 -25 -30 -10 -43 -22 -45 -35 -5 -8 23
-18 35 -30 35 -18 0 -17 -3 5 -57z"/>
<path d="M4227 4442 c-23 -25 -21 -58 3 -82 25 -25 42 -25 71 0 l24 21 -34 -3
c-20 -2 -36 2 -38 10 -3 8 8 12 36 12 45 0 48 5 25 38 -19 27 -64 29 -87 4z
m63 -21 c0 -6 -9 -9 -20 -8 -11 1 -20 5 -20 9 0 4 9 8 20 8 11 0 20 -4 20 -9z"/>
<path d="M4564 4435 c-33 -51 16 -108 71 -83 35 16 31 30 -7 26 -18 -2 -33 2
-35 10 -3 8 8 12 36 12 45 0 53 16 23 43 -28 25 -69 21 -88 -8z m66 -13 c0 -4
-9 -8 -20 -9 -11 -1 -20 2 -20 8 0 5 9 9 20 9 11 0 20 -4 20 -8z"/>
<path d="M4694 4446 c-9 -24 2 -44 27 -48 12 -2 24 -9 27 -15 2 -9 -5 -11 -27
-7 -38 8 -42 -11 -6 -28 19 -9 29 -8 50 6 34 22 32 34 -10 52 -43 18 -45 28
-4 19 26 -6 30 -4 27 12 -4 24 -75 32 -84 9z"/>
<path d="M1651 4434 c0 -11 3 -14 6 -6 3 7 2 16 -1 19 -3 4 -6 -2 -5 -13z"/>
<path d="M4894 4369 c-10 -17 13 -36 27 -22 12 12 4 33 -11 33 -5 0 -12 -5
-16 -11z"/>
<path d="M1680 4350 c0 -5 5 -10 10 -10 6 0 10 5 10 10 0 6 -4 10 -10 10 -5 0
-10 -4 -10 -10z"/>
<path d="M1790 4310 c-12 -17 -20 -35 -18 -40 2 -5 13 8 26 30 27 47 22 53 -8
10z"/>
<path d="M1700 4180 c0 -5 5 -10 11 -10 5 0 7 5 4 10 -3 6 -8 10 -11 10 -2 0
-4 -4 -4 -10z"/>
<path d="M3897 3823 c-40 -6 -103 -70 -116 -118 -14 -52 1 -109 37 -149 50
-53 68 -56 362 -56 296 0 312 3 363 58 36 38 50 94 36 147 -13 49 -74 110
-119 119 -35 6 -516 6 -563 -1z m603 -30 c48 -29 70 -71 70 -130 0 -63 -28
-109 -83 -133 -38 -18 -67 -20 -312 -20 -244 0 -274 2 -305 19 -53 28 -80 74
-80 137 0 48 4 58 36 94 20 22 50 44 68 49 17 6 153 9 301 8 258 -2 272 -3
305 -24z"/>
<path d="M3914 3698 c-4 -6 0 -16 9 -23 21 -15 22 -29 2 -21 -8 3 -15 1 -15
-5 0 -15 43 -7 48 9 2 7 -5 16 -17 19 -11 3 -18 9 -16 14 3 4 13 5 22 2 11 -4
14 -3 9 5 -9 15 -33 15 -42 0z"/>
<path d="M3980 3675 c0 -30 3 -35 23 -35 18 0 19 2 7 10 -12 8 -13 11 -1 19
11 7 11 9 0 14 -12 4 -11 7 1 16 12 9 11 11 -7 11 -20 0 -23 -5 -23 -35z"/>
<path d="M4050 3673 c0 -25 3 -33 9 -24 6 9 11 10 15 2 13 -20 22 -11 21 22 0
25 -5 33 -22 35 -20 3 -23 -1 -23 -35z m30 17 c0 -5 -5 -10 -11 -10 -5 0 -7 5
-4 10 3 6 8 10 11 10 2 0 4 -4 4 -10z"/>
<path d="M4120 3706 c0 -19 25 -66 33 -63 14 4 40 67 28 67 -5 0 -14 -12 -19
-27 l-10 -28 -11 28 c-9 23 -21 36 -21 23z"/>
<path d="M4200 3675 c0 -19 5 -35 10 -35 6 0 10 16 10 35 0 19 -4 35 -10 35
-5 0 -10 -16 -10 -35z"/>
<path d="M4250 3695 c-18 -21 -3 -55 25 -55 13 0 27 5 31 12 5 8 2 9 -11 5 -9
-4 -24 -2 -31 4 -20 16 0 39 28 31 14 -3 19 -1 14 6 -10 17 -41 15 -56 -3z"/>
<path d="M4330 3675 c0 -30 3 -35 23 -35 18 0 19 2 7 10 -12 8 -13 11 -1 19
11 7 11 9 0 14 -12 4 -11 7 1 16 12 9 11 11 -7 11 -20 0 -23 -5 -23 -35z"/>
<path d="M4395 3700 c-8 -14 3 -30 21 -30 8 0 14 -5 14 -11 0 -6 -9 -8 -22 -4
-18 6 -20 4 -12 -5 14 -14 46 -10 51 7 2 6 -5 14 -16 18 -12 3 -21 10 -21 15
0 5 7 7 15 4 8 -4 15 -1 15 5 0 14 -37 15 -45 1z"/>
<path d="M4834 3819 c-42 -12 -100 -77 -108 -122 -14 -75 29 -153 100 -183 26
-11 96 -14 311 -14 249 0 282 2 319 19 115 52 124 216 16 283 -36 22 -44 23
-322 25 -157 1 -299 -2 -316 -8z m612 -18 c59 -27 89 -73 89 -138 0 -56 -18
-90 -69 -127 -26 -20 -43 -21 -316 -24 -323 -3 -337 -1 -385 62 -56 74 -30
180 55 224 43 21 54 22 315 22 242 0 274 -2 311 -19z"/>
<path d="M4859 3694 c-24 -30 27 -72 54 -45 9 9 5 11 -13 9 -19 -2 -25 2 -25
17 0 15 6 19 23 18 13 -2 21 1 17 7 -9 15 -41 12 -56 -6z"/>
<path d="M4952 3701 c-8 -4 -12 -19 -10 -32 2 -19 9 -24 33 -24 33 0 45 25 25
50 -14 17 -29 19 -48 6z m34 -40 c-22 -21 -46 0 -26 24 10 12 16 13 27 3 12
-10 12 -13 -1 -27z"/>
<path d="M5032 3678 c2 -28 7 -33 28 -33 21 0 26 5 28 33 2 18 -1 32 -7 32 -6
0 -11 -13 -11 -30 0 -16 -4 -30 -10 -30 -5 0 -10 14 -10 30 0 17 -5 30 -11 30
-6 0 -9 -14 -7 -32z"/>
<path d="M5110 3675 c0 -19 2 -35 4 -35 3 0 17 11 31 24 30 28 26 46 -11 46
-21 0 -24 -5 -24 -35z m40 15 c0 -5 -4 -10 -10 -10 -5 0 -10 5 -10 10 0 6 5
10 10 10 6 0 10 -4 10 -10z"/>
<path d="M5190 3695 c-18 -22 -1 -50 31 -50 20 0 24 5 24 30 0 23 -5 31 -21
33 -11 2 -27 -4 -34 -13z m47 -11 c8 -21 -13 -42 -28 -27 -13 13 -5 43 11 43
6 0 13 -7 17 -16z"/>
<path d="M5270 3675 c0 -19 5 -35 10 -35 6 0 10 10 10 22 l0 22 16 -22 c22
-32 34 -27 34 13 0 19 -4 35 -10 35 -5 0 -10 -10 -10 -22 l0 -22 -16 22 c-22
32 -34 27 -34 -13z"/>
<path d="M5364 3698 c-4 -6 0 -16 9 -23 21 -15 22 -26 2 -19 -8 4 -15 1 -15
-5 0 -15 37 -14 46 1 4 6 0 16 -9 23 -22 16 -22 26 0 18 11 -4 14 -3 9 5 -9
15 -33 15 -42 0z"/>
<path d="M1990 3451 c0 -4 28 -15 63 -25 34 -9 76 -24 94 -32 17 -8 45 -17 62
-20 17 -4 34 -11 37 -16 4 -6 -9 -7 -30 -3 -20 4 -36 5 -36 2 0 -8 92 -49 98
-43 3 3 15 -4 26 -17 12 -12 28 -23 36 -23 8 -1 23 -5 33 -9 13 -6 16 -3 11 9
-4 11 -1 16 11 16 16 0 16 -2 1 -25 -14 -22 -15 -25 -1 -25 8 0 15 -4 15 -9 0
-12 39 -21 46 -10 8 14 21 11 21 -6 0 -28 -30 -24 -95 14 -140 81 -385 181
-397 162 -2 -5 36 -23 85 -41 299 -107 510 -260 596 -435 49 -100 54 -166 21
-265 -14 -41 -24 -76 -22 -78 1 -1 13 21 26 50 20 45 24 69 24 160 0 58 -2
105 -5 103 -3 -2 -21 26 -39 62 -22 41 -64 96 -118 150 -45 47 -83 87 -83 89
0 2 5 4 11 4 5 0 8 -4 5 -9 -7 -11 35 -39 52 -34 6 3 12 9 12 15 0 6 -6 8 -13
5 -8 -3 -20 -1 -28 5 -11 8 -10 9 4 4 9 -3 17 -1 17 5 0 6 7 8 16 5 14 -5 15
-4 4 9 -17 21 -8 19 19 -4 18 -16 19 -20 6 -25 -9 -3 -14 -10 -11 -15 4 -5 0
-11 -9 -13 -10 -2 -12 -7 -5 -18 11 -17 21 -10 23 18 1 15 8 20 24 19 13 -1
23 -7 23 -12 -1 -6 -9 -8 -18 -7 -9 2 -14 1 -11 -2 12 -12 50 -15 43 -4 -4 6
-1 9 7 6 8 -3 13 -11 11 -17 -1 -6 4 -11 11 -11 8 0 22 -9 32 -20 20 -22 8
-28 -15 -7 -8 6 -6 2 5 -11 14 -17 21 -19 27 -10 7 12 12 4 9 -15 0 -4 2 -6 6
-6 21 3 24 -3 12 -18 -12 -15 -12 -16 5 -10 13 5 24 -1 40 -20 11 -15 20 -31
19 -34 -1 -4 4 -13 12 -19 43 -36 -17 57 -90 139 -76 85 -265 204 -440 277
-106 43 -295 105 -295 95z m334 -126 c55 -24 70 -49 23 -37 -18 4 -96 62 -84
62 3 0 30 -11 61 -25z m139 -71 c23 -15 44 -31 45 -36 2 -4 7 -6 11 -4 4 3 8
-1 8 -9 0 -26 -29 -13 -40 18 -5 13 -14 16 -34 12 -22 -4 -24 -3 -8 4 19 8 19
9 -4 12 -14 2 -26 10 -29 17 -6 18 3 15 51 -14z"/>
<path d="M1995 3420 c3 -5 16 -10 28 -9 21 0 21 1 2 9 -28 12 -37 12 -30 0z"/>
<path d="M1691 3383 c-10 -7 -24 -26 -30 -43 l-10 -31 29 21 c17 12 30 26 30
32 0 6 7 16 16 23 15 11 15 12 0 12 -9 0 -25 -6 -35 -14z m6 -18 c0 -8 -4 -12
-9 -9 -5 3 -6 10 -3 15 9 13 12 11 12 -6z"/>
<path d="M2090 3390 c20 -13 33 -13 25 0 -3 6 -14 10 -23 10 -15 0 -15 -2 -2
-10z"/>
<path d="M1693 3323 c-13 -8 -22 -25 -22 -37 1 -19 2 -19 6 -2 3 11 15 28 27
37 26 22 19 24 -11 2z"/>
<path d="M1737 3206 c-4 -11 -1 -13 10 -9 12 5 14 3 8 -8 -8 -12 -6 -12 8 0
18 15 23 26 7 16 -5 -3 -10 -1 -10 4 0 16 -17 13 -23 -3z"/>
<path d="M2597 3073 c25 -39 46 -63 55 -63 11 0 -13 43 -29 53 -7 4 -13 15
-13 22 0 8 -7 15 -15 15 -13 0 -13 -4 2 -27z"/>
<path d="M2670 2985 c0 -5 5 -17 10 -25 5 -8 10 -10 10 -5 0 6 -5 17 -10 25
-5 8 -10 11 -10 5z"/>
<path d="M2690 2935 c0 -5 5 -17 10 -25 5 -8 10 -10 10 -5 0 6 -5 17 -10 25
-5 8 -10 11 -10 5z"/>
<path d="M2835 2912 c4 -8 11 -26 15 -40 7 -22 8 -23 9 -6 1 11 -6 29 -15 40
-8 10 -12 13 -9 6z"/>
<path d="M2880 2673 c0 -10 -7 -38 -16 -63 -9 -25 -16 -53 -17 -62 -1 -10 -5
-18 -9 -18 -4 0 -8 -4 -8 -10 0 -22 22 -8 35 23 15 35 31 147 21 147 -3 0 -6
-8 -6 -17z"/>
<path d="M2640 2538 c-12 -22 -12 -22 6 -6 10 10 15 20 12 24 -4 3 -12 -5 -18
-18z"/>
<path d="M750 6984 c0 -8 5 -12 10 -9 6 4 8 11 5 16 -9 14 -15 11 -15 -7z"/>
<path d="M4536 1938 c-33 -33 -49 -78 -27 -78 17 0 63 43 72 68 17 44 -6 49
-45 10z"/>
<path d="M4395 1856 c-43 -19 -79 -87 -72 -138 8 -57 53 -144 89 -169 29 -21
31 -21 65 -5 32 15 37 15 69 0 34 -16 37 -16 62 3 15 10 37 38 49 61 l21 42
-29 29 c-35 35 -38 77 -9 114 27 35 25 42 -16 62 -31 15 -42 15 -81 5 -33 -10
-50 -10 -69 -1 -31 14 -42 14 -79 -3z"/>
<path d="M3614 685 c-3 -8 -10 -12 -15 -9 -5 3 -6 -2 -3 -10 3 -9 10 -16 14
-16 5 0 19 -18 31 -39 15 -28 30 -41 52 -45 16 -3 383 -6 816 -5 582 0 795 3
820 12 41 14 91 91 71 111 -8 8 -250 12 -896 14 -781 2 -885 1 -890 -13z"/>
<path d="M3248 244 c6 -3 9 -11 5 -16 -4 -7 2 -9 15 -6 12 4 20 2 17 -2 -3 -5
21 -12 52 -17 75 -10 2260 -11 2335 0 34 5 66 17 80 29 l23 21 -55 -7 c-30 -4
-60 -13 -66 -21 -17 -22 -2299 -22 -2311 -1 -4 8 -30 17 -58 20 -27 3 -44 3
-37 0z"/>
</g>
</svg>
