<?xml version="1.0" standalone="no"?>
<!DOCTYPE svg PUBLIC "-//W3C//DTD SVG 20010904//EN"
 "http://www.w3.org/TR/2001/REC-SVG-20010904/DTD/svg10.dtd">
<svg version="1.0" xmlns="http://www.w3.org/2000/svg"
 width="650.000000pt" height="590.000000pt" viewBox="0 0 650.000000 590.000000"
 preserveAspectRatio="xMidYMid meet">

<g transform="translate(0.000000,590.000000) scale(0.100000,-0.100000)"
fill="#000000" stroke="none">
<path d="M1112 5348 c-1 -121 -6 -178 -13 -180 -18 -6 0 -48 20 -48 16 0 17
-6 9 -57 -4 -32 -8 -83 -7 -113 1 -83 -2 -127 -8 -111 -4 10 -7 11 -13 1 -11
-18 -33 -1 -27 20 2 10 1 24 -4 31 -6 10 -9 6 -9 -13 0 -16 -4 -28 -10 -28 -5
0 -10 23 -10 50 0 30 -4 50 -11 50 -7 0 -10 -17 -7 -45 l3 -45 -35 -2 c-65 -3
-75 -5 -100 -12 -40 -13 -52 -26 -39 -42 7 -9 17 -11 28 -5 13 7 17 5 18 -9 1
-10 -6 -21 -15 -23 -15 -4 -15 -5 1 -6 14 -1 17 -12 18 -78 0 -43 2 -88 5
-100 l4 -23 -225 0 c-143 0 -225 -4 -225 -10 0 -6 81 -10 224 -10 l224 0 4
-67 c3 -39 1 -74 -5 -81 -8 -9 -7 -16 0 -20 13 -8 45 -202 42 -247 -4 -44 6
-55 39 -45 15 4 39 11 55 14 46 11 32 29 -18 24 -34 -4 -45 -2 -45 8 0 9 14
15 40 16 22 1 48 2 58 2 14 1 17 -8 18 -44 2 -58 -9 -70 -62 -70 -45 0 -66
-16 -43 -32 10 -7 8 -8 -8 -5 -13 3 -23 1 -23 -4 0 -5 -5 -9 -11 -9 -6 0 -9 7
-6 15 4 8 2 17 -3 20 -6 4 -10 -3 -10 -14 0 -16 -6 -21 -28 -21 -26 0 -28 2
-24 36 4 30 0 40 -19 55 -13 10 -26 19 -29 19 -3 0 -4 -26 -2 -59 3 -54 2 -59
-20 -64 -47 -13 -48 -12 -46 81 l2 87 6 -85 6 -85 2 81 c2 70 -1 83 -18 99
-20 18 -20 17 -20 -87 0 -102 -1 -106 -25 -122 -14 -9 -25 -23 -25 -31 0 -11
-11 -15 -37 -15 -20 0 -34 -3 -30 -6 3 -4 31 -3 62 1 41 5 55 10 51 20 -9 25
66 41 327 70 31 4 57 11 57 17 0 6 48 8 143 4 190 -7 299 -7 376 0 41 4 62 3
58 -3 -4 -6 16 -11 48 -12 47 -1 55 1 55 16 1 11 8 5 19 -17 l19 -35 -171 -5
-172 -5 -6 -38 c-9 -54 -39 -81 -92 -83 -23 -1 -71 -7 -107 -12 -75 -13 -197
-24 -278 -26 -37 -1 -56 -5 -55 -12 2 -11 -114 -34 -167 -34 -19 0 -27 -20
-13 -33 3 -4 6 -30 6 -58 l-1 -50 54 2 c30 2 56 0 59 -3 8 -8 -253 -22 -299
-16 -20 2 -36 0 -36 -4 0 -5 77 -8 171 -6 183 3 174 6 153 -47 -7 -18 -6 -19
9 -6 16 13 17 11 11 -23 -5 -35 -4 -36 20 -30 16 4 26 2 26 -5 0 -19 22 -12
27 9 6 21 36 35 53 25 5 -3 10 -18 11 -33 1 -25 2 -24 9 6 4 19 12 38 16 42
15 14 61 22 68 12 3 -5 0 -9 -7 -8 -13 1 -17 -6 -17 -29 0 -9 10 -15 26 -15
22 0 25 -4 22 -27 -2 -21 -9 -28 -28 -30 -14 -1 -60 -13 -102 -26 l-78 -25 -1
27 c-1 25 -2 25 -9 -4 l-7 -30 -5 30 -5 30 -2 -31 c-1 -27 -5 -31 -43 -40
l-43 -9 0 -48 0 -47 -222 0 c-150 0 -223 -3 -223 -11 0 -7 72 -9 225 -7 l225
3 0 -22 0 -23 -220 0 c-121 0 -220 -3 -220 -7 0 -5 100 -8 222 -8 l223 0 3
-24 c2 -15 -3 -28 -12 -33 -22 -12 -20 -28 4 -28 15 0 20 -7 20 -25 l0 -25
-222 -3 -223 -2 223 -3 c168 -1 224 -5 227 -14 2 -7 6 -31 9 -54 8 -65 38
-178 50 -186 6 -4 16 -2 23 4 9 7 13 7 13 -1 0 -6 -4 -11 -10 -11 -5 0 -11
-12 -11 -27 l-1 -28 -8 30 c-13 52 -11 3 5 -84 8 -46 18 -87 21 -90 4 -3 4 11
0 32 -14 85 -15 111 -2 57 8 -30 17 -72 20 -92 4 -21 11 -38 16 -38 15 0 12
58 -5 123 -8 32 -15 72 -14 90 1 40 3 34 24 -84 23 -121 9 -194 -24 -123 -17
37 -24 23 -12 -22 8 -29 8 -40 -2 -46 -20 -13 -30 -9 -17 7 10 12 10 18 -1 31
-11 14 -15 11 -36 -23 -12 -21 -23 -46 -23 -55 0 -9 -9 -23 -20 -31 -19 -14
-20 -15 -3 -21 10 -4 19 -3 21 3 9 26 42 57 65 59 29 2 33 -6 41 -84 l7 -59
-16 34 -15 33 -65 -5 c-37 -3 -65 -1 -65 4 0 5 -4 9 -10 9 -5 0 -10 -7 -10
-15 0 -8 -4 -15 -10 -15 -5 0 -7 6 -4 14 3 8 1 17 -5 21 -6 3 -11 -2 -11 -13
0 -11 -7 -25 -14 -32 -13 -10 -22 -41 -41 -140 -9 -44 -55 -311 -55 -315 0 -3
-87 -6 -192 -7 l-193 -3 188 -2 c217 -4 199 10 162 -133 -14 -52 -25 -105 -25
-117 0 -38 18 -26 22 15 3 20 19 91 36 157 16 66 45 197 62 290 43 227 45 231
110 240 28 4 53 5 55 3 3 -2 -3 -59 -12 -127 -14 -106 -14 -124 -2 -132 13
-10 1 -9 -88 3 -12 2 -23 -1 -25 -7 -2 -5 30 -17 70 -25 64 -12 74 -12 82 0 6
8 10 11 10 6 0 -24 30 21 31 48 1 24 3 26 6 8 3 -13 1 -31 -3 -40 -4 -9 -8
-33 -10 -52 -4 -39 -32 -124 -33 -99 -1 22 -43 39 -94 39 -54 0 -87 -9 -87
-24 0 -7 26 -11 83 -9 45 0 69 -1 52 -4 -41 -7 -48 -23 -22 -53 18 -21 19 -22
2 -8 -27 22 -54 9 -31 -15 20 -20 20 -46 0 -77 -24 -35 -44 -50 -70 -50 -29 0
-37 33 -19 77 18 42 33 43 27 2 -7 -46 20 -33 31 14 17 72 -15 90 -58 32 -36
-46 -43 -103 -18 -134 18 -22 23 -23 52 -13 26 9 31 9 23 -1 -5 -6 -18 -41
-28 -77 -10 -36 -22 -68 -27 -71 -5 -4 -33 -10 -61 -13 -28 -4 -66 -9 -83 -12
-27 -5 -33 -3 -34 12 0 17 -1 16 -9 -2 -5 -12 -13 -25 -18 -28 -6 -3 -8 -15
-5 -26 5 -19 6 -19 22 -1 11 12 47 24 111 35 316 55 460 76 583 82 82 4 137
11 137 17 0 7 -47 8 -137 4 l-138 -6 -3 107 c-2 117 -24 310 -49 440 -9 45
-13 85 -10 88 6 6 215 56 310 74 31 6 57 15 57 20 0 10 -61 3 -150 -17 -133
-30 -172 -35 -204 -29 -31 6 -33 9 -44 70 -22 117 -25 111 81 136 50 13 135
25 187 27 l95 5 19 -46 c10 -26 20 -63 23 -84 2 -20 8 -50 13 -67 9 -30 48
-257 70 -410 7 -44 14 -93 18 -109 5 -28 4 -29 -26 -23 -24 5 -32 3 -32 -8 0
-15 34 -30 49 -21 12 8 21 -18 21 -60 0 -21 4 -33 10 -29 5 3 10 2 10 -4 0 -5
-4 -13 -10 -16 -5 -3 -10 -27 -10 -53 0 -26 -1 -65 -1 -87 l-1 -40 -67 3 c-36
2 -69 9 -73 15 -4 7 -47 5 -140 -7 -73 -10 -187 -24 -253 -33 -66 -8 -182 -16
-257 -16 -87 -1 -137 -6 -135 -12 2 -5 22 -11 45 -13 23 -2 42 -7 42 -13 0 -5
-7 -9 -15 -9 -19 0 -20 -19 0 -26 13 -5 19 -31 29 -126 4 -34 2 -38 -19 -38
-13 0 -31 -3 -41 -7 -14 -5 -16 -1 -12 26 2 17 0 35 -6 41 -8 6 -10 -3 -8 -30
4 -41 2 -44 -45 -55 l-33 -7 0 71 c0 39 -3 71 -7 71 -5 0 -6 -30 -5 -66 2 -39
-1 -71 -7 -77 -8 -8 -11 12 -11 71 0 51 -4 82 -11 82 -6 0 -9 -29 -8 -82 1
-53 -2 -83 -9 -86 -8 -2 -12 28 -15 95 l-3 98 -2 -97 c-2 -92 -3 -98 -23 -98
-24 0 -59 -17 -59 -29 0 -10 173 20 262 45 32 9 61 14 64 11 4 -3 -3 -26 -15
-50 -11 -24 -26 -80 -32 -125 -7 -44 -15 -80 -18 -79 -13 3 -257 -46 -278 -56
-13 -6 -26 -8 -29 -4 -6 6 -6 131 0 179 2 15 10 38 19 51 20 31 6 60 -18 37
-33 -34 -40 -108 -44 -457 l-3 -343 816 0 816 0 0 241 0 240 23 -7 c50 -15 48
-8 50 -245 l1 -224 3 217 c2 120 7 218 11 218 31 -1 34 -18 32 -229 -1 -206 0
-211 20 -211 19 0 20 6 22 193 l2 192 6 -195 6 -195 2 197 c2 191 1 197 -19
203 -11 4 -19 9 -16 11 2 2 25 -5 50 -16 l47 -21 0 -150 c0 -102 3 -148 10
-144 7 4 10 57 9 143 -1 79 3 138 8 139 6 2 22 -1 36 -6 l27 -11 0 -115 c0
-70 4 -115 10 -115 6 0 10 46 10 117 0 91 3 114 12 105 7 -7 20 -12 30 -12 9
0 29 -5 43 -12 24 -11 25 -16 25 -87 0 -54 3 -72 11 -64 6 6 9 36 7 72 -3 57
-2 60 17 55 11 -4 24 -10 29 -15 13 -12 26 -11 26 1 0 13 -60 42 -143 70 -37
13 -66 25 -63 27 5 5 157 -47 173 -59 14 -11 26 38 18 78 -9 49 4 12 23 -61
16 -64 19 -70 47 -76 74 -15 75 -16 77 -88 l2 -66 3 62 c4 58 6 63 27 63 13 0
38 3 55 6 l31 7 0 -89 c0 -108 -17 -103 -23 6 l-3 75 -2 -82 c-2 -73 0 -83 18
-93 19 -10 20 -8 20 90 0 77 3 101 13 98 8 -3 13 -37 15 -111 4 -142 22 -140
22 2 l0 109 43 6 c23 3 65 8 92 11 28 2 67 7 88 11 l37 6 2 -139 2 -138 6 140
5 140 38 6 37 6 0 -144 c0 -95 4 -143 11 -143 7 0 9 46 7 145 -3 130 -1 145
14 145 9 0 23 3 32 6 13 5 16 -14 19 -148 l3 -153 2 151 2 152 46 7 c26 3 53
9 60 12 11 4 14 -26 17 -159 l3 -163 2 161 2 161 38 7 c76 12 71 20 75 -127
l3 -132 0 137 -1 137 60 7 c33 4 69 8 80 10 11 1 24 3 29 3 4 1 6 8 2 16 -3 8
-1 15 4 15 5 0 12 16 16 35 6 36 25 58 32 37 2 -6 19 -30 38 -54 31 -39 34
-49 34 -108 l0 -65 205 -103 c130 -65 205 -107 205 -117 0 -9 9 -15 25 -15
l25 0 0 245 c0 211 2 245 15 245 13 0 15 -34 15 -245 l0 -245 170 0 c144 0
170 2 170 15 0 8 5 15 10 15 6 0 11 84 12 228 l3 227 2 -220 c2 -121 7 -223
12 -228 5 -5 99 37 210 92 l201 101 200 -100 c110 -55 211 -100 225 -100 16 0
25 -6 25 -15 0 -13 63 -15 505 -15 l505 0 0 280 0 280 -147 2 -148 2 150 6
150 6 -142 2 c-95 1 -143 6 -145 13 -3 9 -9 9 -23 1 -33 -17 -199 -32 -373
-33 -157 -1 -164 0 -206 25 -35 21 -76 63 -76 79 0 8 65 -6 71 -15 7 -11 250
-12 351 -2 73 7 93 24 29 24 -22 0 -41 5 -43 11 -3 8 -68 11 -213 10 -157 -1
-211 2 -217 11 -14 23 -8 112 10 147 20 41 72 83 79 64 3 -7 19 -13 36 -13 18
0 50 -5 72 -10 22 -5 93 -16 158 -25 201 -25 247 -35 247 -54 0 -9 3 -26 6
-38 4 -15 1 -23 -13 -26 -16 -4 -15 -6 5 -12 32 -11 9 -25 -40 -25 -22 0 -38
-5 -38 -11 0 -8 17 -10 49 -7 l49 5 16 -41 c21 -53 42 -38 28 20 -20 78 -24
134 -10 134 23 0 41 -18 35 -34 -6 -14 10 -16 143 -16 l150 0 0 25 0 25 -140
0 c-101 0 -148 4 -172 15 -18 8 -55 21 -83 29 l-50 14 43 1 c23 1 42 5 42 11
0 9 -65 26 -87 22 -6 -1 -14 5 -16 15 -4 17 -5 17 -6 1 -1 -24 -18 -23 -26 1
-3 12 3 37 14 60 33 63 60 138 54 145 -9 9 -33 -14 -33 -33 0 -9 -14 -45 -31
-81 -16 -35 -28 -73 -25 -83 3 -14 0 -17 -11 -13 -9 4 -22 -1 -30 -11 -16 -20
-15 -17 11 52 11 28 25 53 30 57 8 5 8 8 0 8 -5 0 -10 18 -11 39 -1 33 3 41
21 44 20 4 20 4 -1 6 -13 0 -23 5 -23 10 0 5 -3 16 -6 25 -5 13 1 16 30 16 20
0 36 5 36 11 0 7 -14 10 -35 7 -19 -2 -35 -1 -35 4 0 18 -43 119 -56 133 -9 9
-18 42 -21 83 -5 72 -8 81 -22 66 -13 -14 8 -146 26 -167 25 -27 11 -29 -58
-8 -35 11 -113 32 -174 46 -60 15 -116 32 -124 39 -59 47 -67 201 -13 242 16
12 15 13 -6 14 -62 1 -71 -173 -13 -244 15 -18 15 -19 -14 -12 -40 10 -55 26
-66 72 -13 58 0 180 22 200 17 15 122 27 113 13 -8 -14 43 -44 211 -124 98
-47 182 -85 187 -85 4 0 8 14 8 30 0 17 -5 30 -11 30 -7 0 -9 -9 -6 -21 3 -13
1 -19 -6 -16 -7 2 -11 13 -9 23 2 13 0 15 -6 6 -6 -9 -38 2 -133 47 -68 33
-116 60 -106 61 21 0 23 20 1 20 -11 0 -14 5 -10 16 3 9 6 37 6 64 0 38 4 50
18 53 16 4 16 5 -1 6 -13 1 -17 7 -13 19 3 9 8 77 12 150 l7 132 61 2 61 2
-57 3 -58 4 0 39 0 39 88 4 87 3 -86 2 -87 2 5 68 c6 88 11 103 25 78 8 -14 7
-21 -3 -27 -11 -7 -10 -9 4 -9 13 0 17 8 17 35 0 24 -5 35 -15 35 -17 0 -19
18 -5 40 7 12 11 10 19 -10 5 -14 10 -19 10 -12 1 6 8 12 16 12 8 0 15 5 15
10 0 6 -4 10 -10 10 -5 0 -10 23 -10 50 0 30 -4 50 -11 50 -7 0 -10 -17 -7
-45 3 -43 -4 -57 -17 -34 -4 6 -13 8 -21 5 -11 -4 -14 4 -14 34 0 22 -4 40
-10 40 -5 0 -10 -16 -10 -36 0 -33 -2 -35 -27 -30 -16 3 -49 8 -75 12 -46 6
-47 7 -41 35 5 27 3 29 -26 29 -18 0 -31 5 -31 13 0 6 -11 36 -25 65 -13 28
-19 52 -14 52 6 0 3 7 -6 16 -11 11 -20 13 -26 7 -7 -7 6 -41 37 -101 47 -89
53 -132 12 -82 -11 14 -18 18 -15 9 4 -13 -2 -16 -36 -16 -23 1 -49 -2 -58 -6
-13 -7 -18 0 -23 32 -5 36 -21 60 -31 49 -2 -2 3 -43 11 -92 9 -48 14 -90 11
-92 -2 -2 -24 -7 -48 -10 l-44 -6 0 73 c1 41 -2 96 -6 122 l-6 49 53 -7 c57
-7 62 -5 40 17 -12 12 -8 25 22 87 25 51 37 91 39 130 5 67 -18 193 -35 199
-14 4 -16 -29 -3 -78 5 -19 12 -56 16 -82 6 -43 4 -48 -13 -48 -16 0 -20 10
-26 69 -3 37 -13 87 -21 111 -8 23 -15 44 -15 45 0 2 17 2 39 1 34 -1 38 2 37
21 -1 21 -6 23 -51 23 -27 0 -45 4 -39 8 6 4 16 16 23 27 l12 20 -5 -20 c-5
-18 -1 -20 35 -20 31 0 45 6 60 25 29 38 23 47 -11 15 -16 -16 -30 -26 -30
-22 0 4 16 21 35 38 19 17 40 48 46 70 l12 39 226 3 226 2 -226 3 -226 2 -6
28 c-10 51 -27 86 -37 76 -6 -6 -3 -29 7 -61 19 -61 12 -86 -43 -148 -19 -22
-32 -33 -28 -25 4 8 15 24 26 36 19 21 18 21 -11 53 -16 17 -32 31 -35 31 -13
0 -5 -25 17 -48 16 -18 17 -24 6 -19 -13 4 -18 -2 -23 -25 -3 -17 -8 -29 -11
-26 -3 2 -1 19 4 36 6 18 6 34 1 37 -5 3 -9 27 -9 53 1 54 -15 102 -33 102
-10 0 -9 3 1 9 8 5 20 7 28 4 7 -3 13 0 13 6 0 6 -13 11 -30 11 -23 0 -30 4
-30 20 0 11 -5 20 -10 20 -6 0 -10 -8 -8 -17 2 -14 -4 -18 -30 -18 -33 0 -33
0 -11 18 18 14 19 17 4 17 -12 0 -15 5 -11 16 3 9 6 18 6 20 0 13 29 1 33 -13
4 -14 5 -12 6 5 0 12 5 22 10 22 5 0 12 -10 14 -22 l4 -23 2 23 c1 21 5 23 39
20 30 -2 37 0 36 15 -2 16 15 17 222 17 143 0 224 4 224 10 0 6 -82 10 -225
10 -193 0 -225 2 -225 15 0 13 32 15 225 15 193 0 225 2 225 15 0 13 -32 15
-225 15 -173 0 -225 3 -225 13 -1 21 -48 67 -64 61 -9 -3 -16 2 -19 13 -4 16
-5 16 -6 1 0 -10 -7 -15 -14 -12 -9 3 -11 18 -7 52 l5 47 218 3 c139 1 217 -1
217 -8 0 -6 -67 -11 -172 -13 l-173 -3 178 -2 c171 -2 177 -1 177 18 0 19 -8
20 -222 23 l-223 2 223 3 c204 2 222 3 221 20 0 10 -3 12 -6 5 -3 -10 -57 -13
-219 -13 l-214 0 0 30 0 30 228 3 227 2 -227 3 -228 2 0 40 0 40 228 3 227 2
-227 3 -228 2 -1 38 c0 20 -2 47 -3 60 l-3 22 224 0 c123 0 223 3 223 8 0 4
-101 6 -225 4 l-225 -3 0 48 0 48 222 0 223 0 3 32 3 33 -228 2 c-208 3 -228
5 -231 21 -3 16 13 17 224 17 125 0 225 3 222 6 -4 3 -106 5 -228 4 l-222 -1
4 49 c2 31 -2 55 -11 65 -12 15 -10 17 18 17 17 0 31 5 31 10 0 6 -10 10 -22
10 -21 0 -23 4 -21 52 9 190 8 224 -4 212 -9 -9 -14 -54 -15 -141 l-2 -128 -3
113 c-2 68 -8 112 -14 112 -7 0 -9 -39 -7 -109 l3 -110 -60 -3 c-33 -2 -67 -7
-76 -11 -12 -6 -21 13 -46 110 -53 197 -62 227 -78 242 -27 27 -28 -12 -1 -72
13 -30 22 -58 18 -61 -3 -3 -16 -6 -30 -6 -13 0 -61 -9 -106 -19 -44 -10 -100
-21 -123 -24 -42 -5 -43 -4 -49 29 -3 19 -10 37 -15 40 -5 3 -9 16 -9 29 0 20
11 27 84 54 47 16 113 36 149 43 64 13 92 36 37 30 l-30 -3 0 150 c0 150 0
151 -20 139 -19 -12 -21 -22 -19 -153 l1 -140 -30 -12 c-16 -7 -42 -14 -56
-17 -55 -10 -152 -49 -176 -71 -25 -23 -25 -23 -48 -5 -33 27 -121 55 -134 42
-14 -14 -1 -32 19 -25 13 5 15 0 11 -30 -2 -21 0 -37 4 -37 4 0 8 14 8 30 0
28 2 30 28 24 15 -4 35 -13 45 -19 16 -11 16 -13 2 -19 -9 -3 -13 -10 -10 -16
3 -5 3 -15 -1 -21 -5 -8 -9 -8 -14 1 -5 9 -10 5 -15 -11 -8 -24 -22 -39 -38
-39 -5 0 -5 5 -2 10 3 6 1 10 -5 10 -7 0 -10 -6 -7 -14 4 -10 -14 -24 -58 -45
-44 -21 -70 -41 -80 -61 -8 -16 -19 -31 -23 -34 -5 -3 5 23 22 57 26 52 32 76
34 149 4 79 2 87 -17 97 -12 7 -21 19 -21 27 0 8 -16 22 -36 30 -33 14 -36 18
-32 50 2 19 0 34 -4 34 -4 0 -8 -14 -8 -31 0 -28 -3 -31 -22 -25 -13 3 -38 6
-55 6 -31 0 -33 2 -35 38 -1 36 -1 36 -5 5 -3 -24 -9 -33 -23 -33 -19 0 -150
26 -182 36 -15 5 -18 24 -21 162 l-3 157 -2 -157 c-2 -135 -4 -157 -17 -152
-12 5 -15 32 -15 155 0 98 -4 149 -11 149 -7 0 -9 -49 -7 -145 l3 -146 -40 6
c-71 11 -70 11 -67 60 l4 45 -48 0 -49 0 -15 48 c-9 27 -21 47 -30 48 -8 0
-28 6 -43 12 -16 7 -44 12 -63 12 -31 0 -34 2 -35 33 -2 30 -2 30 -6 5 -3 -19
-10 -28 -22 -28 -14 0 -17 6 -13 25 2 15 0 25 -7 25 -6 0 -11 -11 -11 -25 0
-18 -5 -25 -20 -25 -15 0 -20 7 -20 25 0 14 -5 25 -11 25 -6 0 -9 -9 -6 -20 3
-11 1 -23 -4 -26 -5 -3 -9 6 -9 20 0 14 -4 26 -10 26 -5 0 -10 -11 -10 -24 0
-32 -32 -28 -41 5 -7 23 -7 23 -8 2 -2 -39 -34 -38 -44 2 -4 17 -5 16 -6 -5
-1 -23 -5 -25 -60 -28 -58 -3 -60 -3 -64 25 l-4 28 -2 -27 c0 -16 -5 -28 -10
-28 -5 0 -12 12 -14 28 -4 25 -4 25 -6 -5 -1 -44 -31 -46 -31 -3 0 17 -4 30
-10 30 -5 0 -10 -13 -10 -29 0 -17 -6 -31 -16 -35 -24 -9 -24 -9 -24 29 0 19
-5 35 -11 35 -7 0 -10 -13 -7 -34 3 -30 0 -35 -19 -39 -21 -4 -23 0 -23 34 0
38 -1 39 -35 39 -33 0 -35 -2 -35 -35 0 -21 5 -35 13 -35 8 -1 7 -4 -3 -9 -13
-7 -64 -17 -184 -36 -20 -4 -33 0 -42 12 -13 19 -24 15 -28 -11 -3 -23 -36
-55 -73 -73 -18 -8 -33 -20 -33 -25 0 -5 6 -6 13 -2 7 4 9 3 4 -2 -5 -5 -13
-10 -18 -10 -5 -1 -14 -2 -19 -3 -6 0 -10 -9 -8 -18 2 -12 -3 -17 -14 -15 -11
2 -18 -3 -18 -14 0 -10 -3 -14 -7 -11 -9 9 -32 -24 -33 -47 0 -12 5 -16 14
-13 9 4 21 -5 31 -20 23 -35 41 -16 20 23 l-16 29 58 53 c81 75 122 106 130
98 4 -4 9 -46 11 -94 l4 -88 -61 -19 c-79 -24 -122 -50 -115 -70 4 -9 0 -15
-9 -15 -9 0 -23 -3 -32 -6 -13 -5 -16 -2 -13 16 2 13 -3 25 -11 28 -10 3 -12
-2 -7 -22 5 -19 3 -26 -8 -26 -7 0 -26 -3 -42 -6 -29 -6 -29 -5 -27 43 2 48 2
48 -5 8 -12 -62 -16 -65 -93 -65 l-69 0 0 -71 c0 -39 -4 -79 -10 -89 -6 -12
-5 -42 5 -92 7 -40 16 -102 19 -136 2 -34 7 -66 11 -72 3 -5 3 -10 -2 -10 -7
1 -83 103 -83 113 0 2 15 2 33 1 17 -2 24 -1 14 2 -9 3 -15 10 -12 15 4 5 -4
5 -18 0 -24 -9 -30 -2 -120 132 -127 189 -124 183 -96 213 20 22 31 24 118 26
l96 2 -100 6 c-95 5 -101 4 -126 -18 -18 -15 -29 -20 -34 -13 -10 18 -27 1
-21 -21 3 -15 -8 -34 -39 -67 -24 -25 -67 -75 -94 -109 -50 -62 -51 -63 -51
-33 0 17 5 31 10 31 6 0 8 11 6 25 -4 21 2 30 37 52 23 15 57 36 74 47 53 34
40 51 -14 20 -27 -15 -55 -33 -64 -41 -26 -22 -29 -16 -29 56 l0 70 48 4 47 3
-54 2 c-30 1 -51 5 -48 9 4 4 32 5 62 4 40 -2 55 1 55 11 0 10 -15 12 -60 10
l-60 -4 0 56 c0 30 -4 58 -10 61 -6 4 -10 63 -10 146 0 117 -2 139 -15 139
-13 0 -15 -22 -15 -135 0 -181 -18 -179 -23 3 l-3 137 -2 -138 c-1 -106 -5
-138 -14 -135 -9 3 -14 42 -16 136 -4 177 -22 174 -22 -3 0 -128 -1 -135 -20
-135 -19 0 -20 7 -20 135 0 88 -4 135 -11 135 -7 0 -9 -47 -7 -140 2 -77 0
-140 -4 -140 -3 0 -13 -3 -22 -6 -14 -5 -16 11 -16 140 0 95 -4 146 -10 146
-7 0 -10 -50 -9 -147 l1 -147 -33 -12 c-60 -22 -58 -27 -62 149 l-3 162 -2
-166 c-2 -171 -4 -179 -43 -179 -5 0 -10 78 -12 173 l-3 172 -2 -177 c-3 -237
-21 -237 -25 0 l-2 177 -3 -177z m2175 96 c-3 -3 -12 -4 -19 -1 -8 3 -5 6 6 6
11 1 17 -2 13 -5z m-366 -23 c-12 -8 -13 -16 -3 -49 7 -22 11 -52 11 -68 -1
-24 -3 -25 -6 -6 -4 22 -17 23 -71 6 -7 -2 -16 4 -19 14 -6 17 -33 80 -41 94
-4 8 35 14 98 16 30 1 40 -1 31 -7z m-133 -76 c-3 -3 -9 2 -12 12 -6 14 -5 15
5 6 7 -7 10 -15 7 -18z m840 -53 l3 -33 -48 7 c-50 7 -73 19 -73 38 0 6 4 4
10 -4 9 -14 24 -8 26 11 1 5 2 12 3 15 0 3 18 4 39 2 34 -3 37 -6 40 -36z
m-781 -39 c-3 -10 -5 -4 -5 12 0 17 2 24 5 18 2 -7 2 -21 0 -30z m480 20 c-25
-4 -27 -6 -15 -21 12 -15 11 -16 -4 -3 -23 17 -14 31 20 30 l27 -2 -28 -4z
m86 -10 c-7 -2 -21 -2 -30 0 -10 3 -4 5 12 5 17 0 24 -2 18 -5z m-480 -10 c-7
-2 -19 -2 -25 0 -7 3 -2 5 12 5 14 0 19 -2 13 -5z m540 0 c-7 -2 -19 -2 -25 0
-7 3 -2 5 12 5 14 0 19 -2 13 -5z m60 -10 c-7 -2 -19 -2 -25 0 -7 3 -2 5 12 5
14 0 19 -2 13 -5z m-294 -7 c-10 -9 -89 -46 -89 -41 0 6 72 44 84 45 5 0 7 -2
5 -4z m117 -26 c0 -12 -4 -16 -9 -11 -5 5 -6 14 -3 20 10 15 12 14 12 -9z
m261 14 c-3 -3 -12 -4 -19 -1 -8 3 -5 6 6 6 11 1 17 -2 13 -5z m-2187 -11 c0
-5 5 -37 10 -73 5 -36 14 -204 19 -375 6 -170 13 -342 17 -381 l5 -71 -42 -1
c-23 -1 -69 -6 -103 -12 -33 -5 -86 -10 -117 -10 l-56 0 -7 53 c-3 28 -6 204
-6 390 0 328 1 338 21 358 19 19 20 22 4 39 -16 18 -13 20 92 53 105 34 163
45 163 30z m94 -8 c-4 -8 -8 -15 -10 -15 -2 0 -4 7 -4 15 0 8 4 15 10 15 5 0
7 -7 4 -15z m2133 9 c-3 -3 -12 -4 -19 -1 -8 3 -5 6 6 6 11 1 17 -2 13 -5z
m-422 -14 c-3 -5 -12 -10 -18 -10 -7 0 -6 4 3 10 19 12 23 12 15 0z m564 -14
l95 -23 22 -59 c13 -32 23 -76 23 -98 1 -37 0 -38 -26 -33 -16 4 -63 12 -105
19 -74 12 -78 14 -78 39 0 71 -13 121 -34 129 -12 5 -17 9 -13 9 4 1 3 10 -3
21 -14 26 -2 26 119 -4z m-469 -28 c11 -24 19 -52 19 -63 0 -11 -6 -2 -13 20
-7 22 -18 50 -25 63 -6 12 -9 22 -6 22 3 0 15 -19 25 -42z m-130 27 c0 -2 -10
-9 -22 -15 -22 -11 -22 -10 -4 4 21 17 26 19 26 11z m96 -32 c29 -59 25 -164
-8 -229 l-27 -51 -130 -11 c-72 -6 -135 -13 -141 -17 -5 -3 -10 -15 -10 -25 0
-14 -18 -29 -62 -51 -112 -57 -179 -72 -147 -33 15 19 4 30 -15 15 -11 -9 -15
-6 -20 15 -5 20 -1 35 14 56 12 16 19 32 16 36 -4 3 -12 -3 -20 -13 -13 -18
-14 -17 -21 15 -7 32 -4 37 37 75 25 22 55 41 67 41 11 0 21 -1 21 -2 0 -1
-20 -14 -45 -28 -39 -23 -58 -46 -39 -46 3 0 99 56 212 124 284 169 276 164
288 165 7 1 20 -16 30 -36z m-150 11 c-3 -16 -24 -34 -41 -33 -5 0 1 6 15 14
15 9 19 14 10 15 -13 0 -13 1 0 10 19 12 19 13 16 -6z m-1617 -143 c1 -98 -6
-69 -11 49 -4 69 -3 89 2 60 5 -25 9 -74 9 -109z m1559 123 c-30 -15 -38 -30
-13 -20 22 8 18 -2 -6 -15 -15 -8 -19 -8 -15 0 11 17 -20 13 -34 -4 -7 -8 -17
-15 -23 -15 -6 0 0 8 13 17 37 26 84 52 95 52 6 0 -2 -7 -17 -15z m589 -16
c-3 -8 -6 -5 -6 6 -1 11 2 17 5 13 3 -3 4 -12 1 -19z m300 16 c-3 -3 -12 -4
-19 -1 -8 3 -5 6 6 6 11 1 17 -2 13 -5z m66 -11 c-7 -2 -19 -2 -25 0 -7 3 -2
5 12 5 14 0 19 -2 13 -5z m110 -10 c-7 -2 -19 -2 -25 0 -7 3 -2 5 12 5 14 0
19 -2 13 -5z m-766 -25 c-3 -8 -6 -5 -6 6 -1 11 2 17 5 13 3 -3 4 -12 1 -19z
m-952 -8 c-3 -5 -16 -10 -28 -9 -20 1 -20 2 3 9 14 4 26 8 28 9 2 1 0 -3 -3
-9z m600 0 c-3 -6 -21 -17 -38 -26 -36 -19 -31 -9 10 17 34 21 36 22 28 9z
m662 -57 c-3 -10 -5 -4 -5 12 0 17 2 24 5 18 2 -7 2 -21 0 -30z m530 5 c-3 -8
-6 -5 -6 6 -1 11 2 17 5 13 3 -3 4 -12 1 -19z m-1308 8 c-13 -13 -82 -56 -85
-54 -3 4 76 58 85 58 2 0 2 -2 0 -4z m36 -6 c-3 -6 -21 -17 -38 -26 -36 -19
-31 -9 10 17 34 21 36 22 28 9z m1022 -52 c-2 -13 -4 -3 -4 22 0 25 2 35 4 23
2 -13 2 -33 0 -45z m-1782 34 c6 -4 10 -16 10 -27 0 -12 8 -21 20 -23 13 -2
16 0 8 5 -12 9 -7 53 7 53 9 0 28 -130 19 -135 -4 -3 -10 5 -13 18 -7 21 -7
21 -16 2 -8 -18 -9 -17 -9 7 -1 17 5 28 17 31 10 3 6 5 -10 6 -25 1 -28 -3
-28 -29 0 -43 -18 -37 -23 8 l-4 37 -1 -42 c-3 -57 -22 -55 -22 1 0 30 -5 46
-15 50 -12 4 -15 -4 -15 -44 0 -28 -3 -50 -7 -50 -5 0 -6 25 -5 55 3 35 0 55
-7 55 -7 0 -11 -23 -11 -60 0 -33 -4 -60 -9 -60 -15 0 -21 28 -21 91 l0 59 63
0 c34 0 67 -4 72 -8z m2042 -59 c-3 -10 -5 -2 -5 17 0 19 2 27 5 18 2 -10 2
-26 0 -35z m-2398 -102 l89 -124 -34 -48 c-46 -63 -160 -169 -183 -169 -10 0
-34 23 -57 56 -21 31 -48 68 -59 82 -51 68 -52 76 -8 142 48 73 145 190 156
187 4 -1 48 -58 96 -126z m922 99 c-19 -16 -37 -27 -40 -23 -3 3 0 8 6 10 7 3
23 13 35 23 13 11 25 19 28 19 3 0 -10 -13 -29 -29z m966 -22 c-3 -7 -5 -2 -5
12 0 14 2 19 5 13 2 -7 2 -19 0 -25z m783 2 c-20 -13 -33 -13 -25 0 3 6 14 10
23 10 15 0 15 -2 2 -10z m-583 -32 c-3 -7 -5 -2 -5 12 0 14 2 19 5 13 2 -7 2
-19 0 -25z m623 22 c-12 -8 -12 -10 -1 -10 8 0 12 -2 10 -5 -3 -2 -15 -2 -28
2 -17 4 -19 8 -9 14 7 5 20 9 28 9 13 0 13 -1 0 -10z m395 -31 c7 -19 15 -51
19 -71 6 -32 4 -37 -9 -32 -10 4 -15 0 -15 -10 0 -9 8 -20 18 -23 42 -16 42
-49 0 -58 -105 -20 -209 -49 -219 -61 -21 -25 -1 -27 48 -7 26 12 79 28 117
38 37 9 75 19 84 22 12 5 14 1 9 -17 -3 -13 -2 -29 3 -35 5 -6 23 -87 39 -181
45 -254 77 -402 89 -417 6 -7 8 -18 4 -24 -9 -14 -116 -33 -145 -25 -16 4 -19
2 -14 -11 5 -14 -1 -17 -43 -17 l-50 0 30 47 c35 55 38 99 11 159 -19 42 -63
84 -87 84 -22 0 -16 -24 8 -35 36 -16 68 -73 68 -119 0 -65 -4 -67 -121 -64
l-104 3 -6 65 c-3 39 -16 89 -32 123 l-27 59 110 -4 c127 -4 146 13 29 24 -83
9 -121 20 -45 14 l48 -4 -7 32 c-3 17 -9 46 -12 64 -3 17 -9 32 -13 32 -4 0
-7 16 -8 35 -1 20 -4 40 -7 45 -3 5 -8 23 -10 40 -2 16 -11 56 -20 87 -10 32
-18 67 -20 78 -2 11 -12 45 -23 75 l-20 56 137 33 c75 18 141 35 146 36 20 6
29 -2 40 -36z m-361 16 c3 -8 1 -15 -4 -15 -6 0 -10 7 -10 15 0 8 2 15 4 15 2
0 6 -7 10 -15z m-1972 -31 c-9 -16 -10 -14 -9 8 1 15 6 23 11 18 4 -4 4 -16
-2 -26z m1157 33 c-2 -1 -13 -9 -24 -17 -19 -14 -19 -14 -6 3 7 9 18 17 24 17
6 0 8 -1 6 -3z m-1201 -64 l-4 -58 -65 -1 c-35 -1 -94 -4 -130 -8 l-67 -7 -4
34 -4 35 116 30 c167 43 162 44 158 -25z m1914 36 c-13 -5 -30 -5 -39 -1 -10
6 -2 9 24 10 33 0 35 -1 15 -9z m-615 -5 c-3 -3 -12 -4 -19 -1 -8 3 -5 6 6 6
11 1 17 -2 13 -5z m683 -4 c18 -12 2 -12 -25 0 -13 6 -15 9 -5 9 8 0 22 -4 30
-9z m-740 -16 c0 -2 -9 -4 -20 -4 -11 0 -20 4 -20 9 0 5 9 7 20 4 11 -3 20 -7
20 -9z m605 -5 c17 -8 16 -8 -7 -4 -15 3 -30 1 -33 -5 -3 -5 -11 -10 -18 -10
-6 0 -2 7 9 15 22 17 22 17 49 4z m180 0 c11 -16 1 -19 -13 -3 -7 8 -8 14 -3
14 5 0 13 -5 16 -11z m-1129 -8 c-4 -6 -13 -8 -21 -5 -23 9 -32 -26 -38 -143
-4 -90 -3 -111 8 -107 7 3 16 1 20 -5 3 -6 11 -11 16 -11 7 0 9 44 5 126 -3
70 -3 124 1 120 7 -6 19 -199 28 -466 7 -189 14 -214 59 -204 16 3 37 14 45
24 19 21 163 45 261 44 46 -1 55 0 30 5 -29 5 -17 9 65 19 55 7 114 14 132 15
17 1 30 4 27 6 -2 2 17 17 43 34 59 40 83 79 83 140 0 57 -19 98 -71 152 l-38
40 37 0 c92 1 288 18 296 25 12 12 105 0 139 -17 15 -7 27 -20 27 -27 0 -8 7
-16 15 -20 25 -9 55 -68 55 -107 0 -35 -2 -37 -44 -48 -61 -15 -76 -14 -77 7
-1 12 -4 9 -10 -8 -7 -19 -8 -13 -5 24 3 32 1 44 -6 35 -6 -10 -8 -7 -7 11 2
43 0 49 -37 90 -36 39 -38 40 -103 40 -37 0 -70 -3 -73 -6 -3 -3 8 -20 24 -37
40 -43 68 -100 68 -137 0 -29 2 -30 45 -30 50 0 51 3 34 64 -8 31 -8 41 4 53
12 12 16 12 28 -4 13 -16 12 -17 -3 -4 -15 11 -19 11 -23 -1 -3 -8 -1 -27 5
-42 5 -15 10 -38 10 -52 0 -22 -4 -24 -44 -24 -24 0 -51 -2 -58 -5 -11 -4 -13
3 -10 29 5 41 -25 111 -62 145 -38 36 -52 15 -17 -25 34 -39 56 -101 48 -136
-6 -22 -10 -23 -71 -20 -58 3 -65 2 -71 -18 -4 -12 -21 -37 -38 -57 l-32 -36
70 5 c40 3 61 2 50 -3 -11 -4 -47 -8 -80 -8 -33 -1 -65 -5 -72 -9 -20 -13 -4
-52 22 -52 12 0 30 -8 39 -19 16 -18 15 -19 -49 -26 -85 -9 -75 -21 15 -16 62
2 69 1 80 -19 12 -22 10 -88 -4 -125 -7 -17 -5 -17 13 4 12 13 24 34 27 48 8
31 -21 106 -57 148 l-29 32 62 7 c92 9 166 7 174 -5 3 -6 1 -14 -5 -18 -8 -6
-3 -25 19 -66 23 -44 30 -69 28 -99 l-3 -41 -96 -3 c-93 -3 -97 -4 -125 -34
-21 -22 -24 -29 -11 -25 10 4 61 7 112 7 81 0 94 2 98 18 4 16 5 16 6 -1 0
-10 -5 -19 -11 -22 -14 -4 -162 -11 -463 -21 l-190 -6 -45 36 c-149 119 -303
211 -367 220 -15 2 -79 13 -142 25 -63 12 -153 22 -200 23 -62 1 -71 3 -33 5
44 3 52 7 48 21 -3 9 -12 55 -21 102 -22 116 -33 148 -55 160 -27 14 -99 12
-153 -4 -43 -13 -46 -13 -51 8 -12 44 -7 65 17 70 63 13 108 14 162 2 59 -12
60 -13 59 -44 -1 -18 1 -32 6 -32 4 0 15 -50 25 -110 16 -98 27 -131 40 -118
4 4 -17 145 -30 204 -4 19 2 21 138 33 79 7 169 12 200 12 31 0 57 4 57 9 0
14 -86 16 -234 3 -77 -6 -146 -9 -153 -6 -7 3 -15 15 -18 27 -11 57 -27 193
-24 210 4 21 2 21 154 36 60 6 111 12 113 14 9 9 193 6 188 -3z m419 -1 c3 -5
-1 -10 -10 -10 -9 0 -13 5 -10 10 3 6 8 10 10 10 2 0 7 -4 10 -10z m22 -12
c-3 -8 -6 -5 -6 6 -1 11 2 17 5 13 3 -3 4 -12 1 -19z m-1278 -22 c-3 -3 -11 5
-18 17 -13 21 -12 21 5 5 10 -10 16 -20 13 -22z m1702 10 c-11 -13 -51 -29
-51 -20 0 3 51 33 59 34 2 0 -2 -6 -8 -14z m179 -1 c17 -9 30 -18 30 -21 0 -4
-59 23 -69 32 -10 9 13 3 39 -11z m-3497 -2 c-7 -2 -19 -2 -25 0 -7 3 -2 5 12
5 14 0 19 -2 13 -5z m3493 -29 c18 -14 18 -14 -6 -3 -31 14 -36 19 -24 19 6 0
19 -7 30 -16z m128 -31 c9 -18 14 -33 12 -33 -6 0 -36 55 -36 66 0 11 5 3 24
-33z m-297 11 c-3 -3 -12 -4 -19 -1 -8 3 -5 6 6 6 11 1 17 -2 13 -5z m131 -11
c-10 -2 -26 -2 -35 0 -10 3 -2 5 17 5 19 0 27 -2 18 -5z m-2073 -10 c-11 -2
-35 -8 -52 -13 -18 -5 -33 -6 -33 -4 0 9 46 23 75 22 20 0 23 -2 10 -5z m1135
-7 c0 -2 -7 -6 -15 -10 -8 -3 -15 -1 -15 4 0 6 7 10 15 10 8 0 15 -2 15 -4z
m-1524 -126 c64 -91 76 -113 94 -173 11 -33 16 -38 36 -34 27 5 52 -20 118
-116 39 -57 74 -82 41 -29 -10 17 -4 12 19 -13 19 -22 38 -55 42 -73 4 -21 14
-37 28 -41 17 -7 2 -15 -74 -39 -52 -17 -116 -39 -142 -51 l-46 -20 -54 57
c-66 71 -133 159 -133 176 0 19 -111 136 -129 136 -8 0 -29 18 -46 41 l-33 40
74 68 c41 38 88 91 104 119 17 28 33 48 36 44 3 -4 33 -45 65 -92z m633 -20
c-1 -95 -6 -80 -12 30 -2 47 0 76 4 65 4 -11 8 -54 8 -95z m-84 38 c-3 -29 -7
-73 -8 -96 -4 -51 -13 -58 -82 -67 -27 -4 -59 -13 -70 -19 -11 -7 -32 -16 -47
-20 l-28 -6 -2 90 c-1 49 -2 98 -2 108 -1 13 7 17 34 18 87 1 120 5 120 14 0
6 -8 11 -17 11 -22 2 42 16 80 18 27 1 27 1 22 -51z m1545 42 c0 -5 -5 -10
-11 -10 -5 0 -7 5 -4 10 3 6 8 10 11 10 2 0 4 -4 4 -10z m85 3 c-11 -3 -23
-10 -27 -17 -5 -7 -8 -7 -8 0 0 16 11 24 34 23 20 -1 20 -1 1 -6z m183 -10
c-26 -2 -71 -2 -100 0 -29 2 -8 3 47 3 55 0 79 -1 53 -3z m-3331 -9 c-3 -3
-12 -4 -19 -1 -8 3 -5 6 6 6 11 1 17 -2 13 -5z m81 -91 c-2 -81 -2 -83 -5 -22
-4 64 -4 66 -32 67 -27 1 -27 0 -21 -42 l6 -43 -43 -11 c-24 -7 -54 -12 -68
-12 -23 0 -25 3 -25 49 l0 49 49 12 c27 6 62 11 78 10 45 -3 53 -1 53 15 0 8
2 15 5 15 3 0 4 -39 3 -87z m3557 47 c10 -11 16 -20 13 -20 -3 0 -13 9 -23 20
-10 11 -16 20 -13 20 3 0 13 -9 23 -20z m-562 -21 c53 -35 85 -82 94 -135 5
-31 4 -36 -10 -31 -18 7 -147 -33 -147 -46 0 -4 4 -6 9 -3 19 12 141 33 141
24 0 -24 -32 -67 -70 -93 -34 -24 -55 -29 -133 -36 -51 -4 -148 -17 -217 -28
-69 -12 -135 -21 -146 -21 -23 0 -43 32 -25 38 6 2 11 10 11 18 0 18 59 44
100 44 16 0 30 5 30 11 0 11 -65 9 -110 -2 -10 -3 -15 3 -15 16 0 17 10 21 58
29 31 4 57 12 57 16 0 4 -28 6 -62 6 l-63 -1 0 39 0 39 105 28 c115 30 243 55
334 65 33 3 55 9 50 14 -15 15 -189 -8 -349 -46 -154 -36 -209 -47 -187 -38 6
3 9 10 6 16 -4 6 4 8 17 6 13 -2 29 2 34 8 6 7 44 19 85 28 41 9 120 27 175
40 138 34 171 33 228 -5z m-333 17 c0 -2 -29 -9 -65 -15 -36 -6 -72 -14 -80
-17 -11 -5 -13 -2 -9 10 3 9 9 14 14 11 4 -2 27 -1 51 4 50 10 89 13 89 7z
m-2160 -80 c-5 -15 -10 -42 -11 -59 0 -18 -3 -26 -6 -19 -9 22 8 125 18 115 6
-6 6 -20 -1 -37z m-541 -30 c-14 -14 -79 -32 -79 -22 0 3 18 10 40 16 22 6 40
16 40 22 0 6 3 8 7 4 4 -3 0 -13 -8 -20z m568 -8 c-3 -8 -6 -5 -6 6 -1 11 2
17 5 13 3 -3 4 -12 1 -19z m1216 -15 c-7 -2 -19 -2 -25 0 -7 3 -2 5 12 5 14 0
19 -2 13 -5z m53 -18 c-11 -8 -27 -15 -35 -15 -9 1 -2 7 14 15 39 18 44 18 21
0z m-1276 -82 c-2 -111 -2 -115 10 -108 6 3 10 -4 10 -17 l-1 -23 -19 24 c-11
13 -20 35 -20 50 0 44 13 161 17 161 3 0 4 -39 3 -87z m273 -158 c29 -28 76
-81 106 -117 30 -37 61 -70 69 -73 13 -5 -75 -63 -163 -106 -49 -25 35 33 92
63 l62 33 -47 51 c-26 28 -67 75 -91 104 -42 50 -45 51 -53 31 -5 -16 -15 -21
-30 -19 -28 4 -36 39 -14 57 14 12 10 21 -32 72 -26 32 -50 58 -54 58 -12 1
-21 -169 -10 -192 5 -12 47 -63 91 -114 45 -51 81 -96 81 -100 0 -10 -72 68
-138 150 l-55 68 7 89 c4 50 9 96 11 103 3 6 -5 23 -16 37 l-21 25 5 -25 c3
-14 -1 -63 -9 -110 l-13 -85 4 70 c3 39 5 94 5 123 l0 53 81 -98 c44 -54 104
-121 132 -148z m227 214 c0 -5 -4 -9 -10 -9 -5 0 -10 7 -10 16 0 8 5 12 10 9
6 -3 10 -10 10 -16z m1450 -17 c0 -16 -8 -32 -20 -40 -18 -11 -20 -10 -20 8 0
11 5 20 10 20 6 0 10 12 10 26 0 14 4 23 10 19 6 -3 10 -18 10 -33z m-737 21
c-7 -2 -19 -2 -25 0 -7 3 -2 5 12 5 14 0 19 -2 13 -5z m-1256 -85 c-2 -18 -4
-6 -4 27 0 33 2 48 4 33 2 -15 2 -42 0 -60z m870 76 c-3 -3 -12 -4 -19 -1 -8
3 -5 6 6 6 11 1 17 -2 13 -5z m340 0 c-3 -3 -12 -4 -19 -1 -8 3 -5 6 6 6 11 1
17 -2 13 -5z m1853 -46 c-23 -35 -23 -31 -1 15 8 15 16 25 19 22 2 -2 -5 -19
-18 -37z m-1837 -22 c12 4 27 9 33 11 7 2 15 -1 20 -8 7 -13 -50 -69 -70 -69
-6 0 6 11 27 25 20 14 37 30 37 35 0 13 -4 13 -45 -4 l-35 -15 2 42 c1 38 2
39 5 9 4 -29 7 -32 26 -26z m1871 9 c-9 -14 -18 -25 -21 -25 -5 0 5 18 20 38
17 22 18 13 1 -13z m-2357 -17 c-3 -7 -5 -2 -5 12 0 14 2 19 5 13 2 -7 2 -19
0 -25z m2011 3 c-7 -12 -16 -21 -21 -21 -4 0 0 11 10 24 22 29 30 27 11 -3z
m-3391 -13 c-3 -7 -5 -2 -5 12 0 14 2 19 5 13 2 -7 2 -19 0 -25z m2643 -9 c0
-18 -2 -19 -15 -9 -15 12 -12 30 6 30 5 0 9 -10 9 -21z m-2077 -16 c-7 -2 -19
-2 -25 0 -7 3 -2 5 12 5 14 0 19 -2 13 -5z m285 -78 c3 -73 -7 -97 -33 -75
-18 15 -21 100 -4 131 19 37 34 15 37 -56z m-826 53 c-5 -7 -12 -22 -15 -33
-5 -20 -5 -20 -6 1 0 11 4 25 11 32 16 16 23 15 10 0z m1365 -20 c-3 -8 -6 -5
-6 6 -1 11 2 17 5 13 3 -3 4 -12 1 -19z m-817 -3 c0 -8 -13 -16 -32 -19 -18
-3 -59 -10 -92 -16 -32 -5 -101 -13 -152 -16 -92 -7 -94 -6 -94 15 0 19 6 21
58 22 31 0 91 6 132 14 107 19 180 19 180 0z m-502 -41 c-3 -27 -4 -26 -9 8
-3 22 -1 34 4 29 5 -5 7 -21 5 -37z m1900 9 c-10 -2 -28 -2 -40 0 -13 2 -5 4
17 4 22 1 32 -1 23 -4z m-75 -10 c-7 -2 -19 -2 -25 0 -7 3 -2 5 12 5 14 0 19
-2 13 -5z m-1320 -10 c-7 -2 -19 -2 -25 0 -7 3 -2 5 12 5 14 0 19 -2 13 -5z
m-64 -72 c-11 -122 -22 -129 -200 -123 l-97 3 -4 35 c-2 19 0 34 4 34 5 0 6
16 2 36 -8 43 3 53 61 55 22 1 69 6 105 13 36 6 81 12 100 14 l36 3 -7 -70z
m78 -13 c-3 -7 -5 -2 -5 12 0 14 2 19 5 13 2 -7 2 -19 0 -25z m833 -57 c-8 -5
-26 -11 -40 -15 -21 -5 -20 -3 5 9 32 15 60 20 35 6z m-71 -26 c-9 -8 -79 -35
-79 -30 0 3 15 11 33 19 32 15 54 20 46 11z m-1231 -62 c-10 -2 -26 -2 -35 0
-10 3 -2 5 17 5 19 0 27 -2 18 -5z m793 -10 c13 -16 12 -17 -3 -4 -17 13 -22
21 -14 21 2 0 10 -8 17 -17z m309 12 c0 -6 -56 -35 -67 -35 -4 1 8 9 27 20 39
22 40 22 40 15z m1926 -67 c-11 -6 -41 -10 -67 -9 -26 1 -50 -3 -54 -9 -4 -6
9 -10 32 -11 30 0 34 -2 17 -9 -11 -4 -41 -31 -66 -59 l-46 -51 -26 38 c-14
21 -42 54 -62 73 l-35 34 103 5 c222 11 224 11 204 -2z m102 5 c-16 -2 -40 -2
-55 0 -16 2 -3 4 27 4 30 0 43 -2 28 -4z m450 0 c-21 -2 -57 -2 -80 0 -24 2
-7 4 37 4 44 0 63 -2 43 -4z m-2501 -9 c-3 -3 -12 -4 -19 -1 -8 3 -5 6 6 6 11
1 17 -2 13 -5z m2276 -1 c-7 -2 -21 -2 -30 0 -10 3 -4 5 12 5 17 0 24 -2 18
-5z m50 0 c-7 -2 -19 -2 -25 0 -7 3 -2 5 12 5 14 0 19 -2 13 -5z m-2366 -9
c-3 -3 -12 -4 -19 -1 -8 3 -5 6 6 6 11 1 17 -2 13 -5z m2154 -6 c0 -7 4 -50 7
-95 l7 -81 -40 -7 c-21 -3 -43 -11 -47 -18 -6 -9 -8 -9 -8 0 0 6 5 15 10 18
19 11 10 24 -22 35 l-33 10 38 -4 c42 -5 51 10 12 20 -31 8 -109 -11 -153 -37
-18 -10 -35 -19 -38 -19 -13 0 36 72 83 122 49 51 60 57 102 61 25 2 54 4 64
5 9 1 17 -4 18 -10z m56 6 c-3 -3 -12 -4 -19 -1 -8 3 -5 6 6 6 11 1 17 -2 13
-5z m-2303 -17 c-4 -12 -154 -92 -154 -82 0 3 31 20 69 40 38 19 72 39 76 45
9 14 15 12 9 -3z m-219 -42 c-16 -14 -34 -25 -40 -25 -9 0 55 49 65 49 3 0 -8
-11 -25 -24z m2178 -54 c-16 -27 -30 -48 -32 -46 -4 5 48 95 54 95 3 0 -7 -22
-22 -49z m-2123 5 c0 -2 -26 -20 -57 -41 -32 -21 -80 -56 -108 -77 l-50 -40
40 37 c33 31 163 125 172 125 2 0 3 -2 3 -4z m2230 -72 c-30 -14 -64 -33 -75
-42 -19 -16 -19 -16 -5 1 16 21 97 66 120 66 8 1 -10 -11 -40 -25z m-3205 -34
c3 -5 -2 -10 -12 -11 -16 0 -16 -1 2 -9 19 -8 19 -9 -2 -9 -17 -1 -23 5 -23
19 0 21 24 28 35 10z m-53 -30 c3 -16 1 -30 -4 -30 -5 0 -7 -4 -3 -9 3 -6 17
-6 35 -1 23 7 30 5 30 -6 0 -10 -13 -14 -45 -14 l-45 0 0 45 c0 53 25 64 32
15z m3306 14 c-30 -16 -38 -30 -12 -20 9 3 12 2 9 -5 -10 -16 46 1 74 23 19
14 39 18 95 16 l71 -2 -69 -3 c-49 -3 -76 -10 -94 -23 -14 -11 -33 -20 -44
-20 -17 0 -15 -4 10 -25 36 -30 40 -30 166 -5 54 11 137 23 185 26 47 3 98 7
113 9 20 3 26 1 22 -9 -3 -8 -31 -16 -71 -20 -94 -10 -158 -25 -179 -42 -18
-15 -18 -15 1 -9 52 17 191 37 297 42 99 5 122 3 143 -11 14 -9 25 -20 25 -25
0 -5 -46 -14 -102 -21 -122 -14 -135 -17 -122 -30 6 -6 35 -4 79 5 93 20 169
19 185 0 8 -10 9 -19 4 -24 -11 -10 -139 -31 -188 -31 -19 0 -38 -5 -42 -11
-5 -9 9 -10 52 -6 32 4 91 9 130 13 l71 6 6 -32 c4 -17 11 -29 17 -25 6 3 7
17 4 29 -4 18 -1 25 18 29 25 7 16 23 -16 29 -11 1 -22 10 -24 18 -5 13 -3 13
13 0 15 -12 15 -8 -4 18 -12 17 -27 32 -33 32 -15 0 -99 78 -90 84 4 2 66 5
137 5 l130 2 27 -43 c32 -53 45 -101 41 -153 -3 -45 -33 -114 -48 -115 -5 -1
-40 -4 -76 -8 l-67 -8 3 36 c1 19 0 23 -2 9 l-4 -27 -237 -8 c-130 -5 -243 -8
-250 -7 -7 0 -11 -4 -9 -11 4 -12 14 -12 272 -5 99 3 167 4 150 2 -70 -8 -95
-15 -95 -25 0 -6 13 -8 35 -4 19 4 74 7 122 8 84 0 88 -1 110 -28 27 -34 63
-124 63 -159 0 -22 -4 -24 -64 -27 l-64 -3 -12 52 c-6 31 -22 62 -38 79 -15
15 -21 24 -14 20 6 -4 12 -5 12 -2 0 3 -19 15 -42 26 -44 21 -86 24 -128 9
-23 -8 -22 -8 8 -5 26 2 32 -1 32 -16 0 -16 3 -17 20 -8 30 16 84 -20 108 -73
23 -48 35 -114 22 -122 -4 -3 -52 -9 -106 -15 -127 -13 -164 -20 -164 -31 0
-5 10 -7 23 -4 32 7 240 25 244 21 6 -6 -19 -96 -29 -102 -5 -3 -68 -8 -141
-11 -73 -2 -141 -9 -153 -15 -39 -18 -67 -6 -77 32 -21 82 -52 170 -83 238
-19 40 -34 75 -34 77 0 19 -85 175 -93 172 -6 -2 -36 29 -67 68 -65 81 -126
136 -182 164 l-39 19 23 16 c12 9 32 16 43 16 17 -1 16 -3 -7 -16z m725 9
c-13 -2 -33 -2 -45 0 -13 2 -3 4 22 4 25 0 35 -2 23 -4z m-90 -10 c-13 -2 -35
-2 -50 0 -16 2 -5 4 22 4 28 0 40 -2 28 -4z m-2433 -8 c0 -2 -10 -9 -22 -15
-22 -11 -22 -10 -4 4 21 17 26 19 26 11z m2880 -47 c11 -24 19 -50 19 -58 0
-8 -8 5 -17 29 -17 43 -45 72 -57 59 -4 -3 1 -18 10 -32 22 -33 47 -116 35
-116 -6 0 -10 10 -10 23 0 12 -13 48 -29 80 l-30 57 30 0 c26 0 33 -6 49 -42z
m39 16 c17 -37 8 -39 -13 -4 -9 17 -13 30 -8 30 5 0 14 -12 21 -26z m-4376 9
c-7 -2 -19 -2 -25 0 -7 3 -2 5 12 5 14 0 19 -2 13 -5z m1407 -7 c0 -3 -15 -14
-32 -26 l-33 -22 30 26 c31 27 35 29 35 22z m2495 -1 c-23 -8 -85 -10 -85 -3
0 4 21 8 48 7 26 0 43 -2 37 -4z m-3090 -55 c-27 -11 -52 -20 -55 -19 -11 2
76 38 90 38 8 0 -7 -9 -35 -19z m3582 -12 c-3 -8 -6 -5 -6 6 -1 11 2 17 5 13
3 -3 4 -12 1 -19z m-3667 -22 c0 -2 -12 -11 -27 -20 l-28 -17 24 20 c23 21 31
25 31 17z m3677 -33 c-3 -10 -5 -4 -5 12 0 17 2 24 5 18 2 -7 2 -21 0 -30z
m-3959 20 c-10 -2 -26 -2 -35 0 -10 3 -2 5 17 5 19 0 27 -2 18 -5z m105 0 c-7
-2 -19 -2 -25 0 -7 3 -2 5 12 5 14 0 19 -2 13 -5z m3817 -13 c0 -11 -4 -20 -9
-20 -5 0 -7 9 -4 20 3 11 7 20 9 20 2 0 4 -9 4 -20z m-3797 -62 c-73 -77 -155
-198 -208 -312 -29 -61 -55 -120 -58 -131 -2 -11 -4 41 -4 116 l0 135 39 12
c49 15 59 15 52 -2 -3 -8 -1 -17 4 -20 5 -3 9 12 8 33 l-1 37 -43 -12 c-23 -7
-47 -16 -52 -19 -6 -4 -10 10 -10 33 0 37 2 40 42 53 23 7 69 14 101 14 32 0
52 2 45 4 -7 2 -19 10 -26 18 -15 14 -57 12 -122 -7 -39 -11 -44 -9 -36 17 5
16 17 18 120 15 l114 -3 34 30 c48 44 49 38 1 -11z m116 8 c-2 -2 -32 -25 -66
-50 -71 -52 -157 -151 -215 -248 -22 -38 -42 -68 -45 -68 -6 0 40 80 79 137
45 67 138 162 193 199 43 30 67 43 54 30z m2861 -217 c44 -68 36 -69 -15 -3
-24 33 -70 88 -102 124 l-57 65 72 -70 c40 -38 86 -91 102 -116z m-3363 69 c0
-20 -1 -24 -4 -10 -5 27 -8 27 -88 1 -101 -32 -106 -40 -97 -126 5 -40 10 -75
13 -78 3 -3 47 -2 97 1 82 6 91 9 94 28 3 18 4 18 9 -5 l6 -26 -105 -7 c-74
-5 -107 -3 -112 4 -4 7 -10 46 -14 88 -6 71 -5 78 15 92 16 12 155 65 179 69
3 1 6 -14 7 -31z m1858 -68 c-9 -16 -18 -30 -21 -30 -2 0 2 14 11 30 9 17 18
30 21 30 2 0 -2 -13 -11 -30z m-1195 6 c0 -5 -102 -71 -120 -78 -29 -11 -176
-126 -240 -189 -81 -79 -128 -137 -174 -214 -20 -32 -36 -54 -36 -49 0 15 64
119 107 173 84 105 242 235 388 320 75 43 75 43 75 37z m-653 -48 c-3 -7 -5
-2 -5 12 0 14 2 19 5 13 2 -7 2 -19 0 -25z m4080 -30 c-3 -8 -6 -5 -6 6 -1 11
2 17 5 13 3 -3 4 -12 1 -19z m-1957 -36 c0 -5 -7 -17 -15 -28 -14 -18 -14 -17
-4 9 12 27 19 34 19 19z m-1595 -84 c-89 -94 -92 -97 -75 -73 17 24 133 145
139 145 2 0 -27 -33 -64 -72z m3572 50 c-3 -8 -6 -5 -6 6 -1 11 2 17 5 13 3
-3 4 -12 1 -19z m-4094 -45 c-13 -2 -33 -2 -45 0 -13 2 -3 4 22 4 25 0 35 -2
23 -4z m-145 -10 c-10 -2 -28 -2 -40 0 -13 2 -5 4 17 4 22 1 32 -1 23 -4z
m3360 -28 c-3 -3 -9 2 -12 12 -6 14 -5 15 5 6 7 -7 10 -15 7 -18z m-597 -12
c-12 -20 -14 -14 -5 12 4 9 9 14 11 11 3 -2 0 -13 -6 -23z m-2804 -25 c-3 -8
-6 -5 -6 6 -1 11 2 17 5 13 3 -3 4 -12 1 -19z m1708 -20 c-79 -94 -301 -247
-395 -272 -14 -4 3 7 37 23 87 41 231 142 311 217 37 35 69 63 70 64 2 0 -8
-15 -23 -32z m2395 -13 c-7 -20 -14 -34 -17 -31 -3 2 0 21 7 41 7 20 14 34 17
31 3 -2 0 -21 -7 -41z m-1319 -11 c-5 -21 -9 -30 -10 -19 -1 24 10 67 15 62 3
-2 0 -22 -5 -43z m-2212 -27 c-16 -31 -44 -94 -61 -139 -26 -70 -31 -98 -32
-178 l-1 -95 -79 -3 c-63 -2 -77 0 -69 10 6 8 7 45 2 98 -7 83 1 136 16 98 11
-27 25 -21 25 10 0 45 52 114 141 191 46 38 84 69 86 67 2 -1 -11 -28 -28 -59z
m1970 -32 l-6 -90 -1 77 c-2 62 5 119 12 106 1 -2 -1 -43 -5 -93z m910 15 c0
-8 -7 1 -14 20 -18 46 -17 64 0 25 8 -16 14 -37 14 -45z m-2839 40 c-6 -11
-13 -20 -16 -20 -2 0 0 9 6 20 6 11 13 20 16 20 2 0 0 -9 -6 -20z m1591 -9
c-24 -33 -230 -231 -241 -231 -6 0 252 260 258 260 2 0 -6 -13 -17 -29z m136
-3 c-3 -7 -5 -2 -5 12 0 14 2 19 5 13 2 -7 2 -19 0 -25z m1864 -1 c-10 -9 -11
-8 -5 6 3 10 9 15 12 12 3 -3 0 -11 -7 -18z m-4194 -19 c-3 -8 -6 -5 -6 6 -1
11 2 17 5 13 3 -3 4 -12 1 -19z m2289 -76 c-1 -76 3 -107 18 -140 13 -29 24
-41 34 -37 7 3 18 5 23 5 5 0 27 16 49 36 22 20 40 31 40 25 0 -6 5 -11 11
-11 6 0 9 9 6 20 -3 10 1 25 9 31 17 14 15 17 40 -46 23 -58 73 -98 110 -89
20 5 24 2 24 -15 0 -42 41 -128 77 -163 45 -44 79 -58 141 -59 43 0 49 -3 77
-42 19 -26 43 -46 63 -52 17 -5 32 -15 32 -22 0 -31 17 -8 44 58 33 82 98 183
138 212 26 19 27 19 64 1 63 -31 79 -63 78 -152 -1 -88 -16 -131 -72 -204 -41
-55 -117 -111 -141 -104 -10 3 -32 -15 -59 -50 -24 -30 -69 -73 -100 -96 -31
-23 -73 -54 -93 -69 l-37 -28 -18 21 c-11 12 -61 54 -111 95 -51 41 -93 80
-93 88 0 8 5 26 12 40 29 64 -44 34 -105 -43 -65 -82 -257 -292 -289 -315 -39
-29 -62 -31 -303 -31 -162 1 -248 6 -325 19 -115 19 -238 53 -291 80 -117 60
-299 223 -369 330 -92 141 -168 349 -158 431 3 28 4 27 26 -18 19 -39 33 -52
77 -73 30 -14 63 -25 74 -25 18 0 14 6 -20 37 -38 35 -69 80 -69 103 0 5 12
10 28 10 15 0 51 7 81 15 42 11 66 12 102 4 26 -6 93 -9 148 -7 56 2 101 2
101 1 0 -7 -105 -54 -135 -61 -40 -8 -44 -28 -5 -24 14 1 70 24 125 51 55 28
114 52 131 55 18 3 45 8 60 11 l29 6 -27 -16 c-32 -18 -58 -63 -58 -99 0 -61
121 -73 222 -22 30 15 112 69 183 120 72 52 132 92 133 91 5 -5 -28 -36 -71
-69 -41 -32 -41 -55 1 -29 69 44 180 136 210 174 17 24 32 38 32 33 0 -6 -7
-19 -15 -30 -17 -22 -20 -38 -5 -29 5 3 26 36 46 73 30 54 58 92 69 92 1 0 1
-44 1 -98z m-2193 81 c-7 -2 -21 -2 -30 0 -10 3 -4 5 12 5 17 0 24 -2 18 -5z
m18 -41 c-52 -24 -55 -24 -68 -6 -7 10 -13 22 -13 28 0 6 7 1 15 -11 14 -21
16 -21 55 -6 22 9 40 20 40 25 0 5 6 6 12 2 8 -5 -7 -17 -41 -32z m86 -59 c-2
-21 -4 -6 -4 32 0 39 2 55 4 38 2 -18 2 -50 0 -70z m374 70 c-12 -20 -14 -14
-5 12 4 9 9 14 11 11 3 -2 0 -13 -6 -23z m-548 -83 c4 -28 3 -37 -2 -25 -5 11
-11 40 -15 65 -4 28 -3 38 2 25 5 -11 12 -40 15 -65z m1207 75 c0 -6 -56 -35
-67 -35 -4 1 8 9 27 20 39 22 40 22 40 15z m2217 -17 c-3 -8 -6 -5 -6 6 -1 11
2 17 5 13 3 -3 4 -12 1 -19z m553 -21 c0 -18 11 -75 24 -127 14 -51 23 -97 20
-102 -3 -4 -26 -8 -52 -8 l-47 0 -3 118 c-3 90 -7 120 -19 129 -12 10 -11 12
9 16 61 11 68 9 68 -26z m-3455 -33 c-8 -27 -15 -60 -16 -74 -2 -22 -2 -23 -6
-3 -4 21 25 138 33 130 2 -2 -3 -26 -11 -53z m2912 4 c-3 -7 -5 -2 -5 12 0 14
2 19 5 13 2 -7 2 -19 0 -25z m-1140 -50 c-2 -13 -4 -5 -4 17 -1 22 1 32 4 23
2 -10 2 -28 0 -40z m-987 37 c0 -2 -10 -9 -22 -15 -22 -11 -22 -10 -4 4 21 17
26 19 26 11z m1207 -47 c-3 -7 -5 -2 -5 12 0 14 2 19 5 13 2 -7 2 -19 0 -25z
m2083 12 c0 -11 -4 -20 -8 -20 -4 0 -8 9 -9 20 -1 11 2 20 8 20 5 0 9 -9 9
-20z m-4413 -67 c-3 -10 -5 -2 -5 17 0 19 2 27 5 18 2 -10 2 -26 0 -35z m2480
-5 c-2 -13 -4 -5 -4 17 -1 22 1 32 4 23 2 -10 2 -28 0 -40z m-2170 -35 c-3
-10 -5 -2 -5 17 0 19 2 27 5 18 2 -10 2 -26 0 -35z m2067 -2 c-5 -5 -33 30
-34 43 0 4 9 -2 19 -15 11 -13 17 -26 15 -28z m-1321 32 c-7 -2 -19 -2 -25 0
-7 3 -2 5 12 5 14 0 19 -2 13 -5z m2634 -25 c-3 -7 -5 -2 -5 12 0 14 2 19 5
13 2 -7 2 -19 0 -25z m-2680 16 c-3 -3 -12 -4 -19 -1 -8 3 -5 6 6 6 11 1 17
-2 13 -5z m703 1 c0 -8 -121 -95 -133 -95 -6 0 21 22 59 49 77 55 74 53 74 46z
m-1713 -77 c-1 -35 3 -73 7 -85 7 -19 2 -23 -51 -38 -85 -24 -102 -27 -73 -14
65 30 89 39 104 39 13 0 15 4 6 19 -5 11 -10 33 -10 49 0 29 10 92 15 92 1 0
2 -28 2 -62z m4225 -34 c3 -27 7 -170 7 -319 l1 -270 -49 3 c-50 4 -50 4 -58
45 -4 23 -7 140 -5 261 l3 219 47 -6 c26 -2 39 -3 30 0 -10 2 -18 8 -18 12 0
5 -30 11 -66 14 -37 4 -68 8 -69 9 -2 2 -5 19 -7 37 l-3 35 74 3 c41 1 77 5
79 8 14 14 28 -6 34 -51z m-2816 31 c-11 -8 -25 -15 -30 -15 -6 1 0 7 14 15
32 19 40 18 16 0z m-919 -27 c-3 -8 -6 -5 -6 6 -1 11 2 17 5 13 3 -3 4 -12 1
-19z m3383 -70 c5 -29 13 -75 19 -101 7 -27 9 -64 5 -83 -5 -25 -3 -34 8 -34
17 0 90 -287 74 -293 -17 -6 -193 -7 -178 -1 16 7 15 23 -3 57 -8 15 -9 25 -4
21 8 -4 9 4 4 26 -11 52 -43 344 -38 353 2 4 17 7 33 7 16 0 32 5 36 12 5 8
-11 10 -64 5 -65 -5 -72 -4 -72 12 0 10 -3 32 -6 48 l-6 29 79 15 c92 18 98
14 113 -73z m-1300 -57 c15 -17 25 -31 21 -31 -23 0 -91 113 -90 150 0 8 9 -8
20 -37 11 -29 33 -66 49 -82z m107 97 c-3 -7 -5 -2 -5 12 0 14 2 19 5 13 2 -7
2 -19 0 -25z m816 -108 c3 -84 47 -292 71 -336 9 -16 26 -41 38 -56 12 -15 20
-30 17 -32 -2 -2 -39 -5 -83 -7 l-79 -4 -14 50 c-7 28 -16 66 -18 85 -2 19 -4
37 -4 39 -1 2 -8 -2 -16 -9 -21 -17 -19 -5 10 65 27 65 34 63 11 -3 -14 -38
-14 -41 4 -47 15 -5 17 -11 11 -28 -6 -15 -4 -25 5 -32 8 -5 15 -23 15 -40 3
-55 9 -65 40 -65 16 0 29 1 29 3 0 1 -19 63 -41 137 -39 127 -42 142 -40 245
1 61 7 126 13 145 l12 35 8 -35 c5 -19 10 -69 11 -110z m-2986 68 c-3 -8 -6
-5 -6 6 -1 11 2 17 5 13 3 -3 4 -12 1 -19z m2213 -87 c-1 -13 -29 45 -29 59 0
8 6 0 14 -19 8 -18 15 -36 15 -40z m-2176 -11 c5 -17 4 -20 -2 -10 -5 8 -13
26 -16 40 -5 17 -4 20 2 10 5 -8 13 -26 16 -40z m2265 -5 c0 -5 -4 -3 -9 5 -5
8 -9 22 -9 30 0 16 17 -16 18 -35z m908 -27 c-3 -8 -6 -5 -6 6 -1 11 2 17 5
13 3 -3 4 -12 1 -19z m726 9 l119 0 -7 -101 c-4 -55 -8 -102 -9 -103 0 0 -41
9 -91 22 -54 13 -82 24 -70 27 28 7 4 15 -67 23 l-58 6 0 71 0 70 33 -8 c17
-3 85 -7 150 -7z m-716 -59 c-3 -8 -6 -5 -6 6 -1 11 2 17 5 13 3 -3 4 -12 1
-19z m-3357 -33 c13 -14 21 -25 18 -25 -2 0 -15 11 -28 25 -13 14 -21 25 -18
25 2 0 15 -11 28 -25z m-530 10 c0 -2 -10 -9 -22 -15 -22 -11 -22 -10 -4 4 21
17 26 19 26 11z m37 -57 c-3 -8 -6 -5 -6 6 -1 11 2 17 5 13 3 -3 4 -12 1 -19z
m3870 0 c-3 -8 -6 -5 -6 6 -1 11 2 17 5 13 3 -3 4 -12 1 -19z m-3869 -25 c-10
-2 -28 -2 -40 0 -13 2 -5 4 17 4 22 1 32 -1 23 -4z m613 -30 c13 -16 12 -17
-3 -4 -10 7 -18 15 -18 17 0 8 8 3 21 -13z m2758 -28 c-18 -25 -41 -53 -52
-62 -11 -10 2 10 28 45 56 72 72 83 24 17z m-3371 18 c-10 -2 -28 -2 -40 0
-13 2 -5 4 17 4 22 1 32 -1 23 -4z m3889 -25 c-3 -8 -6 -5 -6 6 -1 11 2 17 5
13 3 -3 4 -12 1 -19z m-3896 -22 c-9 -18 -18 -29 -19 -24 -4 8 24 58 32 58 2
0 -4 -15 -13 -34z m813 -130 c27 -20 54 -36 60 -36 27 0 164 -64 189 -87 23
-23 27 -35 27 -79 0 -73 12 -98 59 -125 23 -12 39 -24 37 -26 -6 -6 -135 75
-184 114 -30 24 -47 32 -54 25 -12 -12 8 -56 22 -47 5 3 45 -19 89 -48 84 -56
170 -101 406 -212 79 -37 150 -78 164 -93 l23 -27 -18 30 c-26 44 -23 43 -279
165 -60 29 -104 55 -97 57 8 3 12 28 12 79 0 41 2 74 4 74 2 0 51 -16 108 -34
85 -29 129 -37 255 -47 l152 -12 -18 -26 c-36 -51 -81 -150 -100 -221 -17 -63
-17 -76 -5 -104 7 -17 13 -26 14 -20 0 9 41 34 57 34 3 0 -6 -12 -21 -27 -40
-39 -26 -38 40 5 90 59 142 75 102 33 -15 -16 -16 -16 84 32 90 43 233 90 455
147 87 23 178 48 202 56 24 8 46 12 49 10 14 -15 -15 -34 -89 -58 -424 -135
-686 -221 -693 -229 -16 -15 -14 -14 184 49 69 22 232 74 363 116 131 42 242
74 248 70 6 -3 16 1 22 9 12 14 127 57 154 57 11 0 11 -5 3 -20 -22 -41 -129
-83 -405 -159 -55 -15 -172 -50 -260 -78 -201 -63 -327 -91 -333 -75 -2 8 -13
6 -32 -8 -90 -64 -206 -88 -269 -55 -36 18 -79 69 -87 102 -5 19 -9 22 -16 11
-7 -11 -11 -10 -21 2 -6 9 -28 27 -47 40 -19 14 -62 50 -95 81 -67 61 -172
134 -309 216 -73 43 -90 57 -91 78 0 14 1 25 2 25 5 0 102 -70 168 -121 33
-25 140 -97 237 -159 98 -63 176 -116 174 -118 -3 -2 -15 1 -28 8 -20 10 -20
8 4 -12 37 -31 108 -71 108 -60 0 5 -18 19 -41 31 -24 14 -37 26 -30 30 6 4
-72 62 -177 131 -103 67 -214 144 -247 170 -102 79 -176 123 -187 112 -7 -7
-6 -17 1 -31 7 -12 8 -21 4 -21 -15 0 -103 82 -98 90 3 5 -8 16 -25 25 -22 11
-29 20 -22 28 5 7 17 45 27 85 l18 74 -69 71 -69 72 70 -66 c39 -36 92 -83
119 -103z m3093 102 c-3 -8 -6 -5 -6 6 -1 11 2 17 5 13 3 -3 4 -12 1 -19z
m-3320 -50 c-3 -8 -6 -5 -6 6 -1 11 2 17 5 13 3 -3 4 -12 1 -19z m2048 -103
c49 -35 119 -96 123 -107 2 -4 -3 -8 -11 -8 -9 0 -17 -5 -19 -12 -6 -16 -26
-1 -146 112 -77 72 -98 97 -90 107 8 10 20 5 57 -25 25 -21 64 -51 86 -67z
m813 48 c-6 -7 -3 -23 7 -43 l16 -32 -38 3 c-42 2 -73 -8 -73 -23 0 -7 18 -9
48 -5 26 3 62 2 79 -1 l33 -7 -16 -30 c-10 -19 -19 -74 -25 -150 -5 -66 -11
-150 -15 -187 -5 -50 -3 -68 5 -68 7 0 9 -5 6 -10 -3 -6 1 -13 9 -16 9 -3 16
-13 16 -21 0 -7 12 -25 28 -39 15 -14 5 -10 -23 10 -27 20 -90 76 -139 125
l-89 89 12 49 c7 26 14 93 17 148 3 78 7 101 20 108 12 7 13 11 5 17 -8 4 10
29 51 72 56 58 64 63 69 44 3 -12 2 -26 -3 -33z m-2788 -18 c0 -5 -5 -3 -10 5
-5 8 -10 20 -10 25 0 6 5 3 10 -5 5 -8 10 -19 10 -25z m1920 -74 c65 -55 120
-97 124 -94 3 4 6 -1 6 -10 0 -9 -3 -17 -7 -16 -18 1 -248 187 -251 202 -2 9
0 17 4 17 4 0 60 -45 124 -99z m667 61 c-26 -27 -87 -68 -87 -58 0 5 102 86
109 86 3 0 -7 -12 -22 -28z m518 9 c3 -6 -11 -12 -32 -16 -21 -3 -59 -9 -85
-13 -36 -7 -48 -5 -48 4 0 8 19 15 48 19 26 3 54 8 62 9 31 7 49 6 55 -3z
m-3116 -66 c0 -5 -6 1 -14 15 -8 14 -14 30 -14 35 0 6 6 -1 14 -15 8 -14 14
-29 14 -35z m1809 -4 c-7 -9 -23 -28 -37 -43 -36 -40 -8 -34 39 8 l40 36 69
-51 c102 -76 102 -75 28 -99 -63 -20 -195 -47 -272 -56 -22 -2 1 -3 51 -2 l90
1 -30 -54 c-53 -93 -78 -93 -131 -2 -27 48 -32 52 -65 51 -19 -1 -41 -2 -49
-1 -8 1 16 31 53 68 38 37 93 97 123 134 l54 68 24 -21 c20 -17 22 -24 13 -37z
m1888 53 l82 -7 -15 -35 c-17 -40 -19 -158 -4 -209 11 -37 12 -36 -49 -22 -35
8 -47 7 -55 -4 -8 -11 -54 -15 -195 -20 -102 -4 -206 -10 -232 -13 l-48 -7
-25 56 c-30 65 -43 173 -25 206 10 20 9 22 -7 19 -16 -3 -18 -14 -18 -89 0
-71 5 -93 26 -137 l26 -52 -31 -4 c-17 -3 -51 -7 -76 -10 -25 -2 -53 -8 -62
-11 -11 -4 -18 -3 -18 4 0 6 -7 11 -15 11 -11 0 -14 -7 -10 -23 3 -12 1 -34
-4 -47 -9 -20 -10 -14 -7 33 2 31 -1 60 -6 63 -14 9 -35 -16 -46 -56 l-10 -35
-3 50 c-1 28 -1 65 0 84 2 21 -1 31 -8 27 -7 -4 -10 6 -9 28 1 19 5 33 10 30
5 -3 8 -13 6 -22 -2 -9 2 -24 9 -32 58 -69 82 -94 88 -88 3 3 -9 26 -28 51
-60 79 -72 188 -22 207 19 7 213 39 330 53 53 7 367 7 451 1z m-4422 -148 c-3
-21 -8 -35 -11 -32 -2 2 -1 20 3 40 3 21 8 35 11 32 2 -2 1 -20 -3 -40z m780
18 c5 -14 4 -15 -9 -4 -17 14 -19 20 -6 20 5 0 12 -7 15 -16z m461 -11 c11 -7
14 -13 8 -13 -7 0 -15 5 -18 10 -3 6 -15 10 -25 10 -10 0 -21 4 -24 9 -8 12
34 1 59 -16z m1655 -29 l31 -36 -26 -14 c-47 -24 -90 -10 -96 31 -8 63 43 73
91 19z m-2029 -45 c31 -24 80 -65 110 -90 30 -26 113 -88 184 -139 121 -86
255 -203 255 -223 0 -5 -28 16 -62 46 -35 30 -126 100 -203 155 -139 99 -356
282 -364 305 -3 9 -1 9 10 1 8 -6 39 -31 70 -55z m-904 29 c-3 -8 -6 -5 -6 6
-1 11 2 17 5 13 3 -3 4 -12 1 -19z m783 -3 c0 -8 -4 -15 -10 -15 -5 0 -7 7 -4
15 4 8 8 15 10 15 2 0 4 -7 4 -15z m-763 -37 c-3 -7 -5 -2 -5 12 0 14 2 19 5
13 2 -7 2 -19 0 -25z m733 19 c0 -2 -17 -19 -37 -38 l-38 -34 34 38 c33 34 41
42 41 34z m-790 -57 c-12 -16 -24 -30 -26 -30 -3 0 4 14 16 30 12 17 24 30 26
30 3 0 -4 -13 -16 -30z m47 -17 c-3 -10 -5 -4 -5 12 0 17 2 24 5 18 2 -7 2
-21 0 -30z m801 -3 c9 -37 8 -39 -9 -30 -12 7 -20 6 -25 -1 -4 -7 14 -30 44
-56 60 -52 68 -83 23 -83 -39 0 -80 36 -114 99 -30 54 -27 78 11 100 37 22 59
13 70 -29z m2177 22 c-3 -3 -11 0 -18 7 -9 10 -8 11 6 5 10 -3 15 -9 12 -12z
m1395 -65 c61 -22 98 -46 124 -79 33 -44 40 -77 26 -128 -13 -47 -67 -136 -90
-147 -21 -10 -632 -16 -647 -6 -13 9 -53 232 -42 238 3 3 3 23 -1 45 -9 48
-28 42 240 65 102 8 201 17 220 19 81 7 137 5 170 -7z m199 3 c38 -7 58 -18
80 -42 26 -29 28 -35 15 -49 -8 -8 -14 -23 -14 -32 0 -14 -9 -12 -59 12 -33
15 -72 42 -86 59 -14 17 -35 34 -47 38 -16 5 -18 8 -7 15 18 11 55 11 118 -1z
m-3846 -78 c36 -51 96 -87 128 -79 28 7 33 -10 7 -24 -28 -15 -99 -15 -127 0
-27 15 -61 82 -61 121 0 42 13 38 53 -18z m4208 -3 l88 -20 15 -47 c8 -26 16
-65 19 -88 l5 -41 -71 22 c-71 21 -72 22 -89 71 -20 55 -46 105 -62 116 -17
12 0 10 95 -13z m-1224 -11 c-3 -8 -6 -5 -6 6 -1 11 2 17 5 13 3 -3 4 -12 1
-19z m-3724 -15 c-7 -2 -21 -2 -30 0 -10 3 -4 5 12 5 17 0 24 -2 18 -5z m-60
-10 c-7 -2 -21 -2 -30 0 -10 3 -4 5 12 5 17 0 24 -2 18 -5z m3739 -32 c2 -22
0 -37 -4 -35 -8 5 -11 74 -4 74 2 0 6 -18 8 -39z m-442 4 c7 -8 18 -15 25 -15
7 0 27 -16 44 -35 25 -29 31 -44 31 -83 0 -54 -28 -114 -54 -118 -10 -1 -19
-4 -19 -6 -1 -2 -24 -27 -52 -56 -51 -54 -49 -71 4 -27 24 21 31 23 38 11 11
-20 81 -49 208 -85 132 -38 144 -39 108 -5 -20 19 -35 24 -54 20 -33 -6 -143
30 -116 38 9 3 24 8 33 11 9 3 39 -1 67 -9 29 -8 79 -20 112 -27 61 -14 123
-57 147 -103 11 -20 10 -20 -9 -3 -18 15 -43 23 -43 13 0 -2 16 -20 35 -39 41
-41 42 -52 15 -113 l-20 -44 -105 0 c-58 0 -107 4 -110 10 -3 6 -17 10 -30 10
-49 0 -239 107 -326 183 l-85 74 -68 -4 c-66 -5 -116 8 -116 29 0 4 21 8 48 8
75 0 153 12 149 23 -2 6 -40 9 -94 8 -90 -2 -122 8 -86 27 10 6 74 24 143 42
69 18 129 36 135 41 15 14 -20 11 -103 -11 -101 -25 -212 -37 -212 -22 0 18
69 59 130 77 30 9 64 21 75 25 11 5 28 10 38 12 10 2 17 8 17 13 -1 6 -6 9
-10 8 -37 -10 -191 -25 -197 -19 -24 24 173 111 236 104 16 -2 29 2 28 7 -1 6
-19 10 -40 10 -20 0 -37 2 -37 6 0 29 98 41 120 14z m-2473 -64 c12 -6 38 -11
57 -11 26 0 36 -4 36 -16 0 -8 -5 -12 -10 -9 -6 3 -14 -5 -19 -18 -11 -29 -71
-41 -101 -20 -23 16 -54 97 -46 119 6 15 10 14 34 -8 15 -14 37 -31 49 -37z
m2960 27 c-3 -8 -6 -5 -6 6 -1 11 2 17 5 13 3 -3 4 -12 1 -19z m-1007 -3 c0
-12 -605 -196 -690 -210 -77 -12 -36 6 77 36 60 15 182 50 273 78 91 28 183
56 205 62 22 6 49 15 60 19 45 19 75 25 75 15z m-2243 -21 c-3 -3 -12 -4 -19
-1 -8 3 -5 6 6 6 11 1 17 -2 13 -5z m11 -26 c7 -7 12 -8 12 -2 0 5 20 -38 44
-96 31 -76 47 -105 59 -104 9 1 14 -2 11 -7 -6 -11 -91 -11 -226 -2 l-97 6
-10 66 c-5 36 -12 80 -14 98 l-3 32 75 6 c42 3 85 7 96 9 11 2 25 4 31 5 5 0
15 -4 22 -11z m-465 -35 c-7 -2 -21 -2 -30 0 -10 3 -4 5 12 5 17 0 24 -2 18
-5z m-138 -13 c3 -5 -1 -10 -10 -10 -9 0 -13 5 -10 10 3 6 8 10 10 10 2 0 7
-4 10 -10z m63 3 c-10 -2 -26 -2 -35 0 -10 3 -2 5 17 5 19 0 27 -2 18 -5z
m3768 -45 l29 -33 -32 29 c-18 17 -33 31 -33 33 0 8 8 1 36 -29z m-3599 -10
c-3 -7 -5 -2 -5 12 0 14 2 19 5 13 2 -7 2 -19 0 -25z m-123 15 c56 -8 27 -19
-66 -27 -65 -5 -78 -4 -78 8 0 23 61 31 144 19z m844 -13 c7 -12 10 -25 6 -31
-8 -14 -54 -2 -78 19 -18 16 -17 17 15 23 19 4 36 7 39 8 3 0 11 -8 18 -19z
m-594 -29 c-4 -17 -9 -30 -11 -27 -3 2 -2 19 2 36 9 41 17 33 9 -9z m350 -21
c5 -17 4 -20 -2 -10 -5 8 -13 26 -16 40 -5 17 -4 20 2 10 5 -8 13 -26 16 -40z
m-463 -8 c6 -16 5 -24 -4 -26 -6 -2 -69 -14 -139 -28 l-127 -24 -6 38 c-4 22
-5 41 -3 44 2 2 38 8 79 14 41 6 88 14 104 19 39 11 85 -7 96 -37z m139 -23
c0 -9 -9 -19 -20 -22 -15 -4 -20 0 -20 14 0 13 5 17 16 12 13 -5 15 -1 9 18
-5 18 -4 21 4 9 6 -8 11 -22 11 -31z m4405 31 c4 -6 11 -8 16 -5 15 10 10 -12
-6 -25 -9 -8 -15 -8 -15 -2 0 6 -9 14 -20 17 -11 4 -18 11 -15 16 8 12 32 12
40 -1z m-4485 -21 c0 -5 -4 -9 -10 -9 -5 0 -10 7 -10 16 0 8 5 12 10 9 6 -3
10 -10 10 -16z m2540 -13 c-5 -15 -10 -41 -10 -58 0 -17 -12 -75 -26 -128 -19
-72 -30 -96 -42 -96 -43 -1 -253 -15 -303 -20 l-56 -6 -56 101 c-36 66 -51
104 -44 106 7 3 66 16 132 30 152 33 306 74 322 87 7 5 16 7 21 4 5 -3 22 -1
38 3 36 10 37 10 24 -23z m1889 5 c12 -12 28 -21 36 -21 10 0 1 -20 -27 -64
-45 -72 -32 -66 -205 -85 l-73 -7 0 26 c0 36 40 94 68 98 27 4 28 18 2 32 -15
8 -24 6 -39 -9 -64 -64 -81 -186 -40 -282 36 -82 47 -88 184 -92 70 -1 27 -4
-104 -5 -218 -2 -223 -1 -218 18 3 11 -2 25 -12 32 -14 12 -15 11 -2 -4 8 -11
9 -18 3 -18 -36 0 -105 162 -100 235 2 30 -1 40 -12 40 -37 0 -12 -153 38
-235 15 -25 39 -50 52 -57 23 -12 21 -13 -25 -11 -28 0 -38 3 -23 5 l27 4 -29
40 c-16 22 -37 64 -46 92 -9 29 -23 61 -30 72 -8 11 -14 27 -14 37 0 10 -4 18
-10 18 -15 0 -12 -33 5 -56 14 -21 13 -22 -42 -28 -95 -11 -105 -15 -100 -43
2 -13 1 -26 -4 -28 -4 -3 -8 49 -8 115 0 66 4 120 9 120 5 0 11 8 14 18 3 9 4
4 2 -11 -3 -25 -1 -28 18 -21 11 4 39 7 61 7 32 -1 36 1 20 8 -15 7 -10 8 18
5 22 -3 35 -1 32 5 -4 5 -3 9 2 9 4 0 53 7 107 15 55 8 151 20 214 26 62 6
123 14 135 20 33 14 92 4 116 -20z m-3013 -13 l29 -33 -32 29 c-31 28 -38 36
-30 36 2 0 16 -15 33 -32z m387 -85 c38 -99 84 -255 111 -376 7 -28 7 -29 34
-12 17 10 12 3 -13 -19 -43 -38 -60 -38 -50 1 4 18 2 23 -6 17 -7 -4 -9 -3 -6
3 9 15 -18 133 -73 309 -27 88 -52 168 -56 177 -3 9 -2 17 3 17 6 0 31 -53 56
-117z m2234 111 c-3 -3 -12 -4 -19 -1 -8 3 -5 6 6 6 11 1 17 -2 13 -5z m-2679
-33 c0 -16 5 -47 11 -69 6 -22 13 -52 15 -68 7 -53 24 -83 53 -91 36 -10 183
-10 248 -1 l50 7 -45 -15 c-61 -21 -180 -29 -221 -15 -18 6 -34 10 -35 8 -2
-2 9 -34 25 -73 28 -69 31 -98 5 -72 -29 29 -124 336 -124 400 0 30 17 20 18
-11z m1728 1 c-18 -16 -18 -16 -6 6 6 13 14 21 18 18 3 -4 -2 -14 -12 -24z
m861 22 c-3 -3 -12 -4 -19 -1 -8 3 -5 6 6 6 11 1 17 -2 13 -5z m-271 -29 c-11
-8 -25 -15 -30 -15 -6 1 0 7 14 15 32 19 40 18 16 0z m141 9 c-3 -3 -12 -4
-19 -1 -8 3 -5 6 6 6 11 1 17 -2 13 -5z m-3807 -36 c-4 -18 -14 -51 -22 -73
-9 -22 -18 -56 -22 -76 -6 -35 -9 -37 -81 -61 l-75 -24 0 25 c1 64 72 171 131
198 42 18 49 29 22 36 -10 3 -2 5 18 6 37 1 37 1 29 -31z m-96 3 c-54 -33
-116 -131 -132 -208 -8 -37 -9 -38 -85 -59 l-77 -21 0 38 c0 95 45 199 86 199
9 0 13 4 10 9 -3 5 -16 7 -29 4 -12 -3 -19 -3 -16 1 6 7 221 53 254 55 15 1
13 -3 -11 -18z m1571 -1 c13 -6 15 -9 5 -9 -8 0 -22 4 -30 9 -18 12 -2 12 25
0z m-1431 -25 c-17 -26 -24 -31 -24 -16 0 10 28 41 36 41 2 0 -3 -11 -12 -25z
m96 22 c0 -2 -10 -12 -21 -23 -22 -19 -22 -19 -8 4 12 19 29 30 29 19z m1467
-3 c-3 -3 -12 -4 -19 -1 -8 3 -5 6 6 6 11 1 17 -2 13 -5z m3306 -1 c-7 -2 -19
-2 -25 0 -7 3 -2 5 12 5 14 0 19 -2 13 -5z m-4595 -10 c-32 -2 -84 -2 -115 0
-32 2 -6 3 57 3 63 0 89 -1 58 -3z m160 0 c-16 -2 -40 -2 -55 0 -16 2 -3 4 27
4 30 0 43 -2 28 -4z m179 -15 c-3 -8 -6 -5 -6 6 -1 11 2 17 5 13 3 -3 4 -12 1
-19z m901 15 c-10 -2 -26 -2 -35 0 -10 3 -2 5 17 5 19 0 27 -2 18 -5z m3419 1
c-3 -3 -12 -4 -19 -1 -8 3 -5 6 6 6 11 1 17 -2 13 -5z m-4727 -44 c-143 -4
-185 -8 -185 -18 0 -10 56 -14 273 -15 178 -1 271 1 269 8 -2 6 -32 13 -68 16
l-64 6 62 1 c34 1 65 -2 68 -8 3 -5 19 -10 35 -10 16 0 31 -4 34 -9 4 -5 13
-56 22 -113 17 -108 29 -149 41 -147 17 3 33 -1 33 -8 0 -12 -450 -5 -570 8
-77 8 -105 9 -108 0 -2 -6 -16 -11 -32 -11 -26 0 -30 4 -40 53 -7 28 -10 63
-9 77 l4 25 145 1 c297 1 390 4 390 14 0 6 -97 10 -270 10 l-270 0 6 28 c9 36
22 63 45 87 17 19 27 20 196 15 l178 -5 -185 -5z m-237 -15 c-3 -9 -8 -14 -10
-11 -3 3 -2 9 2 15 9 16 15 13 8 -4z m4394 -72 c-3 -10 -5 -2 -5 17 0 19 2 27
5 18 2 -10 2 -26 0 -35z m-4420 -5 c-3 -8 -6 -5 -6 6 -1 11 2 17 5 13 3 -3 4
-12 1 -19z m4170 -45 c-3 -10 -5 -2 -5 17 0 19 2 27 5 18 2 -10 2 -26 0 -35z
m-4180 -40 c-2 -16 -4 -5 -4 22 0 28 2 40 4 28 2 -13 2 -35 0 -50z m1581 60
c-16 -2 -40 -2 -55 0 -16 2 -3 4 27 4 30 0 43 -2 28 -4z m2872 -38 c0 -5 -5
-3 -10 5 -5 8 -10 20 -10 25 0 6 5 3 10 -5 5 -8 10 -19 10 -25z m-2371 -59
c-1 -17 -2 -16 -9 6 -4 14 -11 32 -15 40 -3 7 1 4 9 -6 9 -11 16 -29 15 -40z
m2739 47 c-38 -2 -98 -2 -135 0 -38 2 -7 3 67 3 74 0 105 -1 68 -3z m-618 -38
c0 -5 -5 -3 -10 5 -5 8 -10 20 -10 25 0 6 5 3 10 -5 5 -8 10 -19 10 -25z m349
-56 c25 -16 38 -29 30 -29 -18 0 -106 75 -120 103 -6 12 2 7 17 -12 15 -18 48
-47 73 -62z m-4732 4 c-2 -16 -4 -5 -4 22 0 28 2 40 4 28 2 -13 2 -35 0 -50z
m-40 15 c-3 -8 -6 -5 -6 6 -1 11 2 17 5 13 3 -3 4 -12 1 -19z m230 0 c-3 -8
-6 -5 -6 6 -1 11 2 17 5 13 3 -3 4 -12 1 -19z m4218 -4 c9 -15 12 -23 6 -20
-11 7 -35 46 -28 46 3 0 12 -12 22 -26z m-2108 0 c-3 -3 -12 -4 -19 -1 -8 3
-5 6 6 6 11 1 17 -2 13 -5z m1743 -38 c19 -1 -18 -3 -83 -4 -65 -1 -116 1
-114 6 5 6 114 6 197 -2z m1270 -1 c0 -12 -15 -15 -82 -14 l-83 1 75 13 c41 6
78 13 83 14 4 0 7 -6 7 -14z m-5557 -12 c-23 -2 -64 -2 -90 0 -26 2 -7 3 42 3
50 0 71 -1 48 -3z m185 0 c-21 -2 -57 -2 -80 0 -24 2 -7 4 37 4 44 0 63 -2 43
-4z m225 0 c-29 -2 -78 -2 -110 0 -32 2 -8 3 52 3 61 0 87 -1 58 -3z m1611
-18 c25 -4 41 -2 46 5 5 8 9 6 14 -5 6 -16 0 -17 -56 -11 -34 4 -69 12 -78 17
-11 7 -9 8 10 5 14 -3 43 -8 64 -11z m28 -38 c31 -1 51 -5 45 -9 -18 -12 -106
-9 -129 3 -28 15 -30 8 -14 -37 8 -21 15 -32 15 -22 1 11 14 18 44 23 23 3 50
9 59 11 14 4 17 -7 20 -85 l3 -90 -52 -7 c-67 -8 -83 -2 -83 34 0 16 -11 66
-25 112 -14 46 -25 87 -25 91 0 5 19 1 43 -7 23 -8 67 -16 99 -17z m398 19 c0
-2 -8 -10 -17 -17 -16 -13 -17 -12 -4 4 13 16 21 21 21 13z m-980 -46 c8 -5
11 -10 5 -10 -5 0 -17 5 -25 10 -8 5 -10 10 -5 10 6 0 17 -5 25 -10z m65 -30
c3 -6 -1 -7 -9 -4 -18 7 -21 14 -7 14 6 0 13 -4 16 -10z"/>
<path d="M3607 5313 c-11 -10 -8 -43 3 -43 6 0 10 11 10 25 0 26 -2 29 -13 18z"/>
<path d="M3565 5290 c-3 -5 -2 -10 4 -10 5 0 13 5 16 10 3 6 2 10 -4 10 -5 0
-13 -4 -16 -10z"/>
<path d="M1200 5070 c0 -5 5 -10 10 -10 6 0 10 5 10 10 0 6 -4 10 -10 10 -5 0
-10 -4 -10 -10z"/>
<path d="M3185 5074 c-162 -81 -311 -171 -301 -181 3 -3 27 8 54 25 55 34 142
82 277 154 114 60 90 62 -30 2z"/>
<path d="M3204 5001 c-95 -45 -164 -88 -164 -100 0 -11 260 121 260 132 0 12
-12 8 -96 -32z"/>
<path d="M1587 4725 c-7 -16 8 -29 23 -20 15 9 12 35 -4 35 -8 0 -16 -7 -19
-15z"/>
<path d="M4290 4630 c-13 -8 -12 -10 3 -10 9 0 17 5 17 10 0 12 -1 12 -20 0z"/>
<path d="M3300 4374 c-8 -1 -55 -6 -103 -9 -63 -5 -90 -11 -94 -21 -8 -22 0
-25 34 -13 17 5 67 13 112 17 45 4 82 11 82 17 1 11 -9 14 -31 9z"/>
<path d="M3382 4335 c0 -16 2 -22 5 -12 2 9 2 23 0 30 -3 6 -5 -1 -5 -18z"/>
<path d="M4003 4243 c9 -2 23 -2 30 0 6 3 -1 5 -18 5 -16 0 -22 -2 -12 -5z"/>
<path d="M3933 4233 c9 -2 25 -2 35 0 9 3 1 5 -18 5 -19 0 -27 -2 -17 -5z"/>
<path d="M4008 4163 c7 -3 16 -2 19 1 4 3 -2 6 -13 5 -11 0 -14 -3 -6 -6z"/>
<path d="M3913 4153 c9 -2 25 -2 35 0 9 3 1 5 -18 5 -19 0 -27 -2 -17 -5z"/>
<path d="M4100 4125 c-36 -13 -75 -24 -87 -25 -13 0 -23 -5 -23 -10 0 -6 10
-8 23 -6 12 3 54 12 92 20 39 9 78 17 88 18 10 2 18 8 18 13 -1 18 -45 14
-111 -10z"/>
<path d="M3770 4134 c-8 -1 -51 -6 -94 -9 -50 -5 -74 -10 -65 -16 8 -4 23 -6
34 -4 11 2 50 7 88 10 37 4 67 11 67 16 0 9 -3 9 -30 3z"/>
<path d="M3723 4053 c-18 -2 -33 -9 -33 -15 0 -6 12 -8 31 -4 17 3 38 6 45 6
8 0 14 5 14 10 0 6 -6 9 -12 8 -7 0 -28 -3 -45 -5z"/>
<path d="M1813 4550 l-72 -69 27 -35 c15 -19 35 -35 44 -36 9 0 26 -12 37 -26
20 -26 21 -26 48 -9 16 10 40 29 55 42 l26 25 -41 89 c-23 48 -44 88 -47 88
-3 0 -37 -31 -77 -69z"/>
<path d="M2016 4479 c-16 -36 -95 -110 -128 -121 -12 -4 -3 -28 11 -28 17 0
111 82 130 114 21 33 28 76 14 76 -5 0 -16 -19 -27 -41z"/>
<path d="M4065 4493 c-65 -19 -84 -36 -30 -28 22 4 55 7 74 8 19 1 36 7 38 13
6 19 -30 22 -82 7z"/>
<path d="M1852 4248 c-19 -19 -14 -48 8 -48 15 0 20 7 20 24 0 30 -12 40 -28
24z"/>
<path d="M1775 4287 c-10 -37 -1 -110 13 -115 9 -3 12 15 12 67 0 69 -14 95
-25 48z"/>
<path d="M5040 3493 c33 -7 37 -15 33 -73 -2 -47 -1 -50 21 -50 35 0 66 44 66
91 l0 39 -72 -1 c-40 -1 -62 -4 -48 -6z"/>
<path d="M4770 3140 c-96 -7 -170 -26 -170 -42 0 -6 9 -8 23 -3 12 4 86 12
165 18 78 6 142 14 142 18 0 8 -39 19 -60 17 -8 -1 -53 -4 -100 -8z"/>
<path d="M4879 2995 c-3 -2 -47 -9 -99 -15 -108 -12 -140 -19 -140 -30 0 -10
98 -3 170 11 30 6 67 13 83 16 30 6 37 23 9 23 -10 0 -21 -2 -23 -5z"/>
<path d="M1262 3365 c0 -16 2 -22 5 -12 2 9 2 23 0 30 -3 6 -5 -1 -5 -18z"/>
<path d="M1352 2660 c0 -19 2 -27 5 -17 2 9 2 25 0 35 -3 9 -5 1 -5 -18z"/>
<path d="M3015 2545 c-5 -2 -27 -6 -47 -10 -35 -5 -37 -7 -26 -30 9 -20 15
-23 37 -17 14 4 61 7 104 7 42 0 77 2 77 5 -1 30 -99 60 -145 45z"/>
<path d="M2140 2448 c-37 -26 -97 -105 -87 -115 4 -4 22 7 40 24 17 17 51 40
75 52 37 19 41 24 32 41 -14 25 -20 25 -60 -2z"/>
<path d="M4127 2408 c-40 -32 -87 -113 -87 -148 0 -29 13 -24 30 12 19 39 45
57 61 41 8 -8 5 -22 -10 -54 -25 -51 -27 -66 -5 -48 22 18 44 64 44 93 0 25
-31 52 -44 39 -3 -3 -6 -1 -6 5 0 6 18 25 40 43 22 18 37 36 34 40 -8 14 -16
11 -57 -23z"/>
<path d="M3110 2132 c0 -26 25 -56 38 -48 17 10 15 32 -4 50 -21 21 -34 20
-34 -2z"/>
<path d="M2246 2032 c-8 -14 5 -50 20 -56 18 -7 27 10 20 40 -6 23 -29 33 -40
16z"/>
<path d="M2561 1987 c-13 -6 -33 -23 -43 -37 -34 -46 8 -110 73 -110 39 0 131
51 118 65 -4 3 -22 -3 -40 -14 -63 -39 -139 -21 -139 32 0 31 33 57 72 57 16
0 28 5 28 10 0 14 -40 12 -69 -3z"/>
<path d="M2410 1462 c0 -7 20 -20 64 -40 5 -3 6 1 2 7 -10 15 -66 44 -66 33z"/>
<path d="M2480 1446 c0 -2 22 -20 49 -39 31 -22 56 -52 70 -81 13 -25 27 -48
32 -52 33 -20 -42 108 -78 134 -35 24 -73 44 -73 38z"/>
<path d="M2520 1343 c25 -27 50 -58 57 -69 9 -15 12 -16 12 -3 1 19 -63 95
-92 111 -13 6 -4 -9 23 -39z"/>
<path d="M2726 1269 c-80 -57 -63 -61 21 -5 37 25 61 46 52 46 -9 0 -42 -18
-73 -41z"/>
<path d="M4430 1709 c0 -5 5 -7 10 -4 6 3 10 8 10 11 0 2 -4 4 -10 4 -5 0 -10
-5 -10 -11z"/>
<path d="M4792 1918 c-16 -16 -15 -101 2 -141 13 -32 78 -97 96 -97 19 0 9 16
-21 34 -56 33 -84 133 -55 199 9 20 -4 23 -22 5z"/>
<path d="M4965 1899 c-116 -43 -88 -137 45 -147 84 -6 146 5 178 33 l27 23
-21 29 c-12 15 -35 36 -53 46 -37 23 -134 31 -176 16z m184 -63 c32 -33 22
-44 -53 -56 -121 -20 -220 28 -154 74 30 21 34 20 42 -6 6 -21 7 -22 17 -5 25
42 102 38 148 -7z"/>
<path d="M5230 1840 c-24 -8 -24 -8 7 -9 30 -1 32 -4 38 -43 3 -24 7 -53 8
-65 1 -15 5 -19 12 -13 7 6 26 5 48 -2 20 -6 39 -9 41 -7 3 3 0 25 -5 49 -6
25 -9 57 -6 73 l4 27 -61 -1 c-34 -1 -72 -5 -86 -9z"/>
<path d="M4517 1699 c-3 -13 -3 -29 2 -36 6 -12 10 -12 20 1 10 12 10 19 -2
36 l-14 21 -6 -22z"/>
<path d="M5213 1613 c9 -2 23 -2 30 0 6 3 -1 5 -18 5 -16 0 -22 -2 -12 -5z"/>
<path d="M5070 1539 c-139 -9 -160 -13 -160 -27 0 -4 36 -5 81 -1 45 4 148 10
230 14 82 4 149 11 149 16 0 11 -111 10 -300 -2z"/>
<path d="M5135 1454 c-55 -6 -160 -16 -233 -20 -73 -4 -135 -12 -139 -17 -8
-14 200 -4 400 19 86 10 157 22 157 26 0 11 -62 8 -185 -8z"/>
<path d="M5174 1348 c-3 -5 -61 -8 -128 -8 -147 0 -246 -9 -246 -23 0 -6 79
-7 231 -3 268 9 289 11 289 35 0 10 -140 9 -146 -1z"/>
<path d="M1170 1303 c0 -21 173 -33 185 -13 4 6 -13 10 -43 10 -27 0 -70 3
-96 6 -28 4 -46 3 -46 -3z"/>
<path d="M3535 1209 c-19 -17 -35 -28 -35 -24 0 4 -7 2 -15 -5 -8 -7 -12 -17
-8 -24 3 -6 3 -8 -2 -4 -8 8 -164 -132 -179 -160 -5 -9 29 20 75 66 47 45 89
82 94 82 6 0 28 -19 50 -41 l40 -42 11 49 c17 78 23 134 13 134 -4 0 -24 -14
-44 -31z"/>
<path d="M3509 1208 c-12 -23 -12 -23 10 -4 23 21 26 26 11 26 -5 0 -15 -10
-21 -22z"/>
<path d="M5118 1033 c12 -2 30 -2 40 0 9 3 -1 5 -23 4 -22 0 -30 -2 -17 -4z"/>
<path d="M5038 1023 c12 -2 30 -2 40 0 9 3 -1 5 -23 4 -22 0 -30 -2 -17 -4z"/>
<path d="M4988 1013 c7 -3 16 -2 19 1 4 3 -2 6 -13 5 -11 0 -14 -3 -6 -6z"/>
<path d="M5127 892 c-26 -26 -47 -51 -47 -55 0 -4 38 -7 85 -7 l84 0 -24 36
c-13 19 -27 44 -30 55 -4 10 -10 19 -14 19 -4 0 -28 -22 -54 -48z"/>
<path d="M1178 1065 c-4 -5 -5 -12 -2 -16 7 -12 414 -12 414 0 0 6 -65 10
-157 10 -86 1 -178 4 -203 7 -25 3 -48 3 -52 -1z"/>
<path d="M1112 898 c-8 -10 35 -14 209 -16 231 -2 297 10 107 21 -183 11 -304
9 -316 -5z"/>
<path d="M1254 5370 c0 -85 2 -120 3 -77 2 42 2 112 0 155 -1 42 -3 7 -3 -78z"/>
<path d="M1404 5390 c0 -74 1 -105 3 -67 2 37 2 97 0 135 -2 37 -3 6 -3 -68z"/>
<path d="M1550 5375 l0 -145 85 0 85 0 0 145 0 145 -85 0 -85 0 0 -145z"/>
<path d="M1770 5300 c0 -121 4 -220 8 -220 28 0 32 30 32 232 0 201 -1 208
-20 208 -19 0 -20 -7 -20 -220z"/>
<path d="M2334 5395 c0 -71 1 -99 3 -62 2 37 2 96 0 130 -2 34 -3 4 -3 -68z"/>
<path d="M2513 5480 c0 -25 2 -35 4 -22 2 12 2 32 0 45 -2 12 -4 2 -4 -23z"/>
<path d="M3733 5475 c0 -27 2 -38 4 -22 2 15 2 37 0 50 -2 12 -4 0 -4 -28z"/>
<path d="M3854 5365 c0 -88 2 -123 3 -77 2 46 2 118 0 160 -1 42 -3 5 -3 -83z"/>
<path d="M3910 5360 c0 -100 4 -160 10 -160 6 0 10 60 10 160 0 100 -4 160
-10 160 -6 0 -10 -60 -10 -160z"/>
<path d="M3953 5465 c0 -33 2 -45 4 -27 2 18 2 45 0 60 -2 15 -4 0 -4 -33z"/>
<path d="M4262 5490 c0 -19 2 -27 5 -17 2 9 2 25 0 35 -3 9 -5 1 -5 -18z"/>
<path d="M4280 5490 c0 -16 5 -30 10 -30 6 0 10 14 10 30 0 17 -4 30 -10 30
-5 0 -10 -13 -10 -30z"/>
<path d="M4560 5505 c-7 -9 -10 -18 -7 -21 7 -8 47 14 47 26 0 15 -26 12 -40
-5z"/>
<path d="M6455 4455 c0 -588 1 -828 2 -532 2 296 2 778 0 1070 -1 293 -2 51
-2 -538z"/>
<path d="M4410 5490 c0 -6 28 -10 65 -10 37 0 65 4 65 10 0 6 -28 10 -65 10
-37 0 -65 -4 -65 -10z"/>
<path d="M4238 5433 c-41 -16 -43 -20 -27 -43 8 -12 12 -12 16 -2 3 7 22 22
44 32 21 11 39 23 39 25 0 10 -35 4 -72 -12z"/>
<path d="M3713 5325 c0 -44 2 -61 4 -37 2 23 2 59 0 80 -2 20 -4 1 -4 -43z"/>
<path d="M4422 5311 c2 -65 1 -77 -10 -68 -9 7 -13 30 -10 74 2 35 0 63 -4 63
-5 0 -8 -38 -8 -84 0 -75 2 -84 20 -89 12 -3 20 -14 20 -26 0 -12 4 -21 10
-21 5 0 8 15 6 33 -2 17 -4 69 -5 115 -1 51 -5 82 -12 82 -7 0 -9 -27 -7 -79z"/>
<path d="M3683 5310 c0 -36 2 -50 4 -32 2 17 2 47 0 65 -2 17 -4 3 -4 -33z"/>
<path d="M4133 5335 c0 -22 2 -30 4 -17 2 12 2 30 0 40 -3 9 -5 -1 -4 -23z"/>
<path d="M4258 5326 c-11 -8 -18 -26 -18 -44 0 -17 -5 -32 -12 -34 -26 -9 4
-27 35 -21 40 7 42 9 29 25 -6 7 -12 30 -14 50 -3 33 -5 35 -20 24z"/>
<path d="M4108 5283 c-18 -4 -26 -43 -10 -43 9 0 52 38 52 45 0 6 -17 5 -42
-2z"/>
<path d="M3988 5220 c2 -22 8 -40 14 -40 12 0 6 73 -7 77 -7 2 -9 -12 -7 -37z"/>
<path d="M4292 5195 c0 -16 2 -22 5 -12 2 9 2 23 0 30 -3 6 -5 -1 -5 -18z"/>
<path d="M4064 5193 c3 -22 56 -31 57 -11 0 7 4 4 9 -7 8 -19 9 -19 9 4 1 20
-3 22 -23 17 -14 -3 -28 -2 -31 4 -10 16 -23 11 -21 -7z"/>
<path d="M4356 5153 c-13 -14 -3 -24 54 -55 32 -18 61 -40 63 -48 2 -11 4 -9
8 5 5 17 -6 29 -56 62 -35 23 -66 39 -69 36z"/>
<path d="M4452 5130 c0 -14 2 -19 5 -12 2 6 2 18 0 25 -3 6 -5 1 -5 -13z"/>
<path d="M864 4970 c0 -69 1 -97 3 -62 2 34 2 90 0 125 -2 34 -3 6 -3 -63z"/>
<path d="M4375 5080 c3 -5 8 -10 11 -10 2 0 4 5 4 10 0 6 -5 10 -11 10 -5 0
-7 -4 -4 -10z"/>
<path d="M1570 5066 c0 -2 15 -6 34 -8 19 -2 32 0 30 4 -5 8 -64 12 -64 4z"/>
<path d="M1583 5043 c9 -2 23 -2 30 0 6 3 -1 5 -18 5 -16 0 -22 -2 -12 -5z"/>
<path d="M963 4940 c0 -41 2 -58 4 -37 2 20 2 54 0 75 -2 20 -4 3 -4 -38z"/>
<path d="M993 4930 c0 -36 2 -50 4 -32 2 17 2 47 0 65 -2 17 -4 3 -4 -33z"/>
<path d="M4330 4930 c0 -5 -12 -11 -27 -11 -24 -2 -25 -2 -5 -6 12 -2 22 -11
22 -19 0 -8 5 -14 10 -14 6 0 10 14 10 30 0 17 -2 30 -5 30 -3 0 -5 -4 -5 -10z"/>
<path d="M5133 4840 c0 -47 2 -66 4 -42 2 23 2 61 0 85 -2 23 -4 4 -4 -43z"/>
<path d="M5066 4814 c-9 -24 -7 -54 4 -54 6 0 10 16 10 35 0 38 -4 44 -14 19z"/>
<path d="M558 4683 c61 -2 163 -2 225 0 61 1 11 3 -113 3 -124 0 -174 -2 -112
-3z"/>
<path d="M455 4660 c8 -14 435 -14 435 0 0 6 -80 10 -221 10 -144 0 -218 -3
-214 -10z"/>
<path d="M5322 4643 c59 -2 158 -2 220 0 62 1 14 3 -107 3 -121 0 -172 -2
-113 -3z"/>
<path d="M572 4443 c59 -2 158 -2 220 0 62 1 14 3 -107 3 -121 0 -172 -2 -113
-3z"/>
<path d="M5450 4360 l-215 -6 218 -2 c139 -1 217 2 217 8 0 6 -1 9 -2 8 -2 -1
-100 -5 -218 -8z"/>
<path d="M5348 4203 c61 -2 163 -2 225 0 61 1 11 3 -113 3 -124 0 -174 -2
-112 -3z"/>
<path d="M868 4093 c12 -2 32 -2 45 0 12 2 2 4 -23 4 -25 0 -35 -2 -22 -4z"/>
<path d="M803 4030 c0 -30 2 -43 4 -27 2 15 2 39 0 55 -2 15 -4 2 -4 -28z"/>
<path d="M901 4013 c0 -25 1 -26 9 -8 12 27 12 35 0 35 -5 0 -10 -12 -9 -27z"/>
<path d="M1440 3977 c0 -3 12 -12 26 -22 15 -9 23 -12 20 -6 -7 11 -46 35 -46
28z"/>
<path d="M1280 3920 c0 -5 11 -10 25 -10 14 0 25 5 25 10 0 6 -11 10 -25 10
-14 0 -25 -4 -25 -10z"/>
<path d="M960 3890 c0 -6 28 -10 65 -10 37 0 65 4 65 10 0 6 -28 10 -65 10
-37 0 -65 -4 -65 -10z"/>
<path d="M5452 3793 c59 -2 158 -2 220 0 62 1 14 3 -107 3 -121 0 -172 -2
-113 -3z"/>
<path d="M5403 3715 c0 -22 2 -30 4 -17 2 12 2 30 0 40 -3 9 -5 -1 -4 -23z"/>
<path d="M5542 3643 c59 -2 158 -2 220 0 62 1 14 3 -107 3 -121 0 -172 -2
-113 -3z"/>
<path d="M542 3503 c59 -2 158 -2 220 0 62 1 14 3 -107 3 -121 0 -172 -2 -113
-3z"/>
<path d="M991 3394 c0 -11 3 -14 6 -6 3 7 2 16 -1 19 -3 4 -6 -2 -5 -13z"/>
<path d="M870 3376 c0 -17 5 -26 16 -26 10 0 14 7 12 22 -5 32 -28 35 -28 4z"/>
<path d="M971 3384 c0 -11 3 -14 6 -6 3 7 2 16 -1 19 -3 4 -6 -2 -5 -13z"/>
<path d="M5514 3259 c-3 -6 5 -23 18 -37 38 -42 68 -89 61 -96 -3 -3 -1 -6 5
-6 6 0 14 5 17 11 4 6 13 8 21 5 10 -4 14 2 13 17 0 12 -3 16 -6 10 -13 -34
-71 19 -99 90 -7 19 -20 22 -30 6z"/>
<path d="M5387 3213 c-13 -12 -7 -19 33 -46 47 -31 52 -20 10 23 -32 32 -33
33 -43 23z"/>
<path d="M5440 3113 c0 -13 8 -23 21 -26 20 -5 20 -5 3 16 -11 12 -20 24 -21
26 -2 2 -3 -5 -3 -16z"/>
<path d="M5517 3124 c-3 -4 2 -23 13 -43 10 -21 18 -44 17 -52 -1 -8 9 -48 23
-89 22 -66 25 -71 28 -43 2 18 -2 41 -7 52 -7 12 -7 22 -2 25 5 4 4 18 -4 34
-8 15 -23 48 -34 75 -21 48 -23 51 -34 41z"/>
<path d="M5630 3111 c0 -17 38 -99 49 -105 14 -9 14 18 1 42 -5 9 -14 29 -20
45 -9 25 -30 38 -30 18z"/>
<path d="M5410 3082 c0 -4 16 -23 35 -42 41 -40 46 -31 9 17 -24 31 -44 43
-44 25z"/>
<path d="M395 3056 c27 -21 439 -24 433 -3 -4 9 -60 13 -229 15 -199 2 -221 1
-204 -12z"/>
<path d="M5445 2990 c-4 -7 6 -24 23 -41 16 -16 35 -42 42 -59 7 -16 16 -27
21 -24 11 6 -35 96 -61 119 -13 12 -20 13 -25 5z"/>
<path d="M5652 2922 c-12 -2 -20 -8 -16 -13 3 -5 10 -7 15 -4 5 4 13 -5 18
-18 15 -39 32 -43 29 -7 -3 37 -14 47 -46 42z"/>
<path d="M5714 2916 c-7 -18 -2 -47 9 -47 4 1 109 2 235 3 l227 2 -225 6 -225
5 3 23 c4 24 -15 31 -24 8z"/>
<path d="M5650 2850 c-13 -8 -12 -10 3 -10 9 0 17 5 17 10 0 12 -1 12 -20 0z"/>
<path d="M5722 2825 c0 -16 2 -22 5 -12 2 9 2 23 0 30 -3 6 -5 -1 -5 -18z"/>
<path d="M5692 2820 c0 -14 2 -19 5 -12 2 6 2 18 0 25 -3 6 -5 1 -5 -13z"/>
<path d="M5638 2823 c6 -2 13 -23 13 -46 l1 -42 8 40 c8 39 0 56 -25 54 -5 0
-4 -3 3 -6z"/>
<path d="M5560 2786 c0 -20 2 -36 4 -36 8 0 12 61 4 66 -4 3 -8 -11 -8 -30z"/>
<path d="M5793 2750 c0 -30 2 -43 4 -27 2 15 2 39 0 55 -2 15 -4 2 -4 -28z"/>
<path d="M710 2724 c-6 -14 -10 -36 -10 -49 0 -18 -6 -25 -27 -28 l-28 -4 28
-2 c17 0 27 -7 27 -16 0 -8 4 -15 9 -15 6 0 11 -14 13 -30 l3 -30 28 35 28 35
-31 0 c-28 0 -30 3 -30 35 l0 35 53 2 52 2 -49 3 c-45 4 -48 6 -43 29 6 32
-11 31 -23 -2z"/>
<path d="M842 2639 c-1 -20 -8 -41 -15 -47 -7 -6 -24 -33 -37 -61 -20 -40 -31
-51 -50 -52 -23 -2 -23 -2 -3 -6 21 -4 21 -6 8 -43 -21 -60 -2 -56 40 10 21
32 43 57 49 56 6 -2 8 -1 5 1 -4 2 -5 13 -2 23 9 33 -5 23 -33 -25 -43 -74
-38 -45 6 36 31 56 40 82 37 109 l-4 35 -1 -36z"/>
<path d="M627 2583 c-11 -10 -8 -43 3 -43 6 0 10 11 10 25 0 26 -2 29 -13 18z"/>
<path d="M6491 2554 c0 -11 3 -14 6 -6 3 7 2 16 -1 19 -3 4 -6 -2 -5 -13z"/>
<path d="M902 2533 c-44 -65 -94 -155 -88 -160 9 -9 19 4 51 62 15 28 38 61
51 76 24 26 31 49 15 49 -5 0 -18 -12 -29 -27z"/>
<path d="M600 2510 c0 -5 5 -10 11 -10 5 0 7 5 4 10 -3 6 -8 10 -11 10 -2 0
-4 -4 -4 -10z"/>
<path d="M657 2465 c-18 -38 -22 -75 -9 -75 4 0 13 19 20 43 7 23 15 48 18 55
3 6 2 12 -3 12 -5 0 -17 -16 -26 -35z"/>
<path d="M596 2482 c-8 -14 -19 -112 -12 -112 9 0 21 36 30 83 6 34 -4 51 -18
29z"/>
<path d="M5924 2385 c0 -55 1 -76 3 -47 2 29 2 74 0 100 -2 26 -3 2 -3 -53z"/>
<path d="M5897 2463 c-4 -3 -6 -43 -5 -87 l1 -81 7 85 c6 93 6 93 -3 83z"/>
<path d="M363 2453 c43 -2 110 -2 150 0 40 1 5 3 -78 3 -82 0 -115 -2 -72 -3z"/>
<path d="M1143 2453 c9 -2 25 -2 35 0 9 3 1 5 -18 5 -19 0 -27 -2 -17 -5z"/>
<path d="M5748 2393 c17 -2 47 -2 65 0 17 2 3 4 -33 4 -36 0 -50 -2 -32 -4z"/>
<path d="M905 2360 c3 -5 10 -10 16 -10 5 0 9 5 9 10 0 6 -7 10 -16 10 -8 0
-12 -4 -9 -10z"/>
<path d="M940 2360 c0 -5 7 -7 15 -4 8 4 15 8 15 10 0 2 -7 4 -15 4 -8 0 -15
-4 -15 -10z"/>
<path d="M650 2316 c0 -8 5 -18 10 -21 6 -3 10 3 10 14 0 12 -4 21 -10 21 -5
0 -10 -6 -10 -14z"/>
<path d="M5867 2282 c-4 -5 5 -20 18 -32 21 -20 25 -21 25 -7 0 15 21 17 215
17 137 0 215 4 215 10 0 6 -75 10 -204 10 -112 0 -217 3 -234 6 -16 3 -32 2
-35 -4z"/>
<path d="M571 2197 c1 -29 -1 -59 -5 -66 -11 -17 -3 -23 18 -15 10 4 15 13 12
21 -3 8 -6 37 -6 64 0 28 -5 49 -11 49 -6 0 -10 -20 -8 -53z"/>
<path d="M5780 2233 c0 -7 -10 -14 -22 -16 -22 -4 -22 -4 -2 -6 20 -1 21 -3 8
-68 -27 -138 -27 -138 -16 -128 19 17 56 205 43 218 -8 8 -11 8 -11 0z"/>
<path d="M663 2173 c9 -2 25 -2 35 0 9 3 1 5 -18 5 -19 0 -27 -2 -17 -5z"/>
<path d="M1255 2099 c-44 -9 -97 -18 -117 -18 -21 -1 -38 -6 -38 -12 0 -8 17
-10 53 -6 77 8 197 37 197 48 0 5 -3 8 -7 8 -5 -1 -44 -10 -88 -20z"/>
<path d="M5802 2066 c-6 -13 -14 -40 -17 -60 -10 -52 10 -45 24 8 6 24 13 51
17 60 10 26 -12 19 -24 -8z"/>
<path d="M5806 1924 c1 -6 -2 -16 -8 -22 -6 -6 -6 -12 0 -16 5 -3 17 3 27 14
16 17 16 20 2 20 -8 0 -17 3 -20 8 -2 4 -3 2 -1 -4z"/>
<path d="M383 1923 c53 -2 141 -2 195 0 53 1 9 3 -98 3 -107 0 -151 -2 -97 -3z"/>
<path d="M1175 1923 c-31 -5 -53 -19 -43 -28 7 -7 100 15 113 26 9 9 -14 10
-70 2z"/>
<path d="M5732 1891 c-11 -7 -11 -9 2 -14 10 -4 16 -1 16 8 0 17 -1 17 -18 6z"/>
<path d="M5891 1877 c-1 -18 -8 -31 -23 -37 -18 -7 -19 -9 -5 -9 10 -1 20 -8
23 -16 4 -8 10 -15 16 -15 5 0 7 4 4 9 -4 5 0 12 6 14 10 4 10 8 1 14 -6 4
-13 22 -16 38 l-4 30 -2 -28z"/>
<path d="M5632 1719 c5 -15 84 -36 95 -25 12 11 -11 24 -56 31 -34 6 -42 4
-39 -6z"/>
<path d="M5897 1719 c7 -7 15 -10 18 -7 3 3 -2 9 -12 12 -14 6 -15 5 -6 -5z"/>
<path d="M5750 1680 c0 -5 7 -10 15 -10 8 0 15 5 15 10 0 6 -7 10 -15 10 -8 0
-15 -4 -15 -10z"/>
<path d="M5737 1644 c-10 -11 3 -24 24 -24 10 0 19 7 19 15 0 15 -31 21 -43 9z"/>
<path d="M5962 1643 c37 -2 100 -2 140 0 40 1 10 3 -67 3 -77 0 -110 -1 -73
-3z"/>
<path d="M6063 1490 c0 -36 2 -50 4 -32 2 17 2 47 0 65 -2 17 -4 3 -4 -33z"/>
<path d="M290 1425 c0 -12 19 -15 113 -15 94 0 114 3 114 15 0 12 -20 15 -114
15 -94 0 -113 -3 -113 -15z"/>
<path d="M6082 1283 c-12 -33 -18 -61 -13 -66 10 -10 36 41 46 91 11 52 -10
37 -33 -25z"/>
<path d="M6138 1313 c7 -3 16 -2 19 1 4 3 -2 6 -13 5 -11 0 -14 -3 -6 -6z"/>
<path d="M6151 1284 c0 -11 3 -14 6 -6 3 7 2 16 -1 19 -3 4 -6 -2 -5 -13z"/>
<path d="M6136 1245 c-16 -12 -17 -18 -8 -27 9 -9 15 -8 27 8 26 35 16 45 -19
19z"/>
<path d="M657 1203 c-11 -10 -8 -33 4 -33 6 0 9 6 6 14 -4 9 1 17 11 19 14 4
14 5 1 6 -9 0 -19 -2 -22 -6z"/>
<path d="M5867 1087 c-4 -12 -18 -14 -59 -11 -185 13 -279 13 -275 1 3 -9 56
-13 195 -17 106 -3 192 -2 192 2 0 4 28 5 62 1 70 -7 76 11 6 20 -24 3 -59 9
-79 12 -27 6 -37 4 -42 -8z"/>
<path d="M5640 901 c-8 -5 -12 -12 -9 -15 11 -11 381 -8 392 3 8 8 -12 11 -68
11 -44 1 -129 3 -190 6 -65 3 -116 1 -125 -5z"/>
<path d="M1942 518 c2 -233 6 -206 10 80 2 83 0 152 -4 152 -5 0 -7 -105 -6
-232z"/>
<path d="M2190 510 c0 -73 3 -131 6 -127 7 7 5 249 -2 256 -2 2 -4 -56 -4
-129z"/>
<path d="M3608 530 c-2 -55 0 -100 5 -100 4 0 7 45 7 100 0 55 -2 100 -4 100
-3 0 -6 -45 -8 -100z"/>
<path d="M3510 498 c-3 -70 -1 -124 3 -119 4 4 6 61 5 127 l-3 119 -5 -127z"/>
<path d="M2292 508 c-2 -83 0 -97 13 -92 12 5 15 24 13 98 l-2 91 -6 -90 -6
-90 -5 90 -5 90 -2 -97z"/>
<path d="M3374 445 c0 -88 2 -123 3 -77 2 46 2 118 0 160 -1 42 -3 5 -3 -83z"/>
<path d="M3294 440 c0 -85 2 -120 3 -77 2 42 2 112 0 155 -1 42 -3 7 -3 -78z"/>
<path d="M2410 504 c0 -34 4 -53 10 -49 6 3 10 28 10 56 0 27 -4 49 -10 49 -5
0 -10 -25 -10 -56z"/>
<path d="M3094 425 c0 -77 2 -107 3 -67 2 40 2 103 0 140 -2 37 -3 4 -3 -73z"/>
<path d="M2954 415 c0 -72 1 -99 3 -62 2 37 2 96 0 130 -2 34 -3 4 -3 -68z"/>
<path d="M2864 410 c0 -69 1 -97 3 -62 2 34 2 90 0 125 -2 34 -3 6 -3 -63z"/>
<path d="M2904 410 c0 -69 1 -97 3 -62 2 34 2 90 0 125 -2 34 -3 6 -3 -63z"/>
<path d="M2934 410 c0 -69 1 -97 3 -62 2 34 2 90 0 125 -2 34 -3 6 -3 -63z"/>
<path d="M2583 455 c0 -33 2 -45 4 -27 2 18 2 45 0 60 -2 15 -4 0 -4 -33z"/>
<path d="M2663 430 c0 -41 2 -58 4 -37 2 20 2 54 0 75 -2 20 -4 3 -4 -38z"/>
</g>
</svg>
